<?xml version="1.0" encoding="UTF-8" standalone="no"?><svg xmlns="http://www.w3.org/2000/svg" xmlns:xlink="http://www.w3.org/1999/xlink" contentScriptType="application/ecmascript" contentStyleType="text/css" height="762px" preserveAspectRatio="none" style="width:2075px;height:762px;" version="1.1" viewBox="0 0 2075 762" width="2075px" zoomAndPan="magnify"><defs><filter height="300%" id="f1ihp5ioskdqnh" width="300%" x="-1" y="-1"><feGaussianBlur result="blurOut" stdDeviation="2.0"/><feColorMatrix in="blurOut" result="blurOut2" type="matrix" values="0 0 0 0 0 0 0 0 0 0 0 0 0 0 0 0 0 0 .4 0"/><feOffset dx="4.0" dy="4.0" in="blurOut2" result="blurOut3"/><feBlend in="SourceGraphic" in2="blurOut3" mode="normal"/></filter></defs><g><!--cluster Clients--><rect fill="#FFFFFF" filter="url(#f1ihp5ioskdqnh)" height="269" style="stroke: #000000; stroke-width: 1.5;" width="289" x="54" y="56.5"/><path d="M115,57.5 L115,65.9883 L105,75.9883 L54,75.9883 " fill="none" style="stroke: #000000; stroke-width: 1.5;"/><text fill="#000000" font-family="sans-serif" font-size="14" font-weight="bold" lengthAdjust="spacingAndGlyphs" textLength="51" x="57" y="71.0352">Clients</text><!--cluster KeyVaultServer--><polygon fill="#FFFFFF" filter="url(#f1ihp5ioskdqnh)" points="1051,598.5,1061,588.5,1235,588.5,1235,670.5,1225,680.5,1051,680.5,1051,598.5" style="stroke: #000000; stroke-width: 1.5;"/><line style="stroke: #000000; stroke-width: 1.5;" x1="1225" x2="1234" y1="598.5" y2="589.5"/><line style="stroke: #000000; stroke-width: 1.5;" x1="1051" x2="1225" y1="598.5" y2="598.5"/><line style="stroke: #000000; stroke-width: 1.5;" x1="1225" x2="1225" y1="598.5" y2="680.5"/><text fill="#000000" font-family="sans-serif" font-size="14" font-weight="bold" lengthAdjust="spacingAndGlyphs" textLength="108" x="1085" y="615.0352">KeyVaultServer</text><!--cluster Cloud--><path d="M394.5425,176.396 C404.6951,156.7617 423.8945,156.0573 437.321,172.5156 C450.9711,147.2269 468.6976,147.5245 485.3644,169.4457 C500.5414,151.5091 514.5235,153.8369 526.3672,173.1179 C537.257,150.2518 558.9567,145.2358 575.7459,166.5199 C591.2219,148.8275 608.2067,148.0095 619.6317,170.9005 C631.8646,146.3699 648.1521,147.3285 664.58,166.5953 C671.5641,142.9106 692.0106,141.9034 705.0752,160.8147 C725.5818,138.1342 741.7049,141.9996 752.9858,169.6046 C763.5254,149.3089 775.8648,145.2451 791.6085,164.5259 C809.3668,138.4164 826.8279,144.2781 842.233,166.9671 C855.1675,149.6826 871.971,152.0983 881.3546,170.8247 C895.2231,147.6885 909.9652,149.9635 925.1232,169.5021 C940.6296,151.0956 964.6584,149.3752 974.0858,176.0975 C988.7251,153.954 1004.726,157.8726 1019,176.5 C1022.0058,173.4519 1023.8626,174.4789 1025.5097,177.873 C1048.2811,194.3213 1046.6843,208.4315 1025.4184,224.7941 C1041.997,239.3148 1043.8707,258.3577 1020.9275,268.8496 C1039.6513,282.7818 1044.2795,297.8898 1022.6203,313.3579 C1046.2317,324.8922 1045.405,339.8103 1025.9658,354.8185 C1049.6222,370.9483 1044.1713,391.2147 1023.1757,404.8546 C1043.4981,418.3048 1043.6104,433.1385 1024.8444,448.0971 C1046.3933,457.892 1049.8886,475.1889 1030.3583,490.3452 C1049.1746,509.4884 1053.2623,526.3534 1024.3746,539.7149 C1043.6019,551.2962 1043.8598,568.8582 1025.7704,581.6806 C1044.2317,595.3825 1044.8423,610.0648 1023.6487,621.6623 C1044.5235,634.2877 1046.2442,655.0422 1025.0503,668.9153 C1045.8433,690.3828 1037.7851,708.1739 1012,717 C1016.6295,715.916 1018.1092,718.8104 1017.3665,722.7448 C1002.1065,745.3902 982.6923,740.2569 969.5749,720.3391 C956.8149,738.9581 941.6835,743.1561 926.7971,722.6648 C912.7502,744.6491 898.7292,741.4812 885.6787,721.6842 C874.5327,744.0724 852.7555,740.5958 841.5526,721.745 C825.5022,744.1441 811.0342,742.8873 794.1874,722.6294 C780.8313,747.2108 765.2004,745.1929 748.757,725.8204 C732.7625,747.0908 716.3877,748.2223 703.4916,722.8157 C691.3868,743.8144 678.8883,748.9426 661.6992,727.8658 C648.3186,746.7538 626.1713,750.413 614.3188,726.1865 C602.574,745.3646 581.6785,748.5406 570.2979,725.8039 C555.9396,749.3064 535.479,746.5322 524.3324,722.686 C512.3245,742.277 490.1621,745.9526 479.4154,721.4026 C467.9259,741.7377 452.2106,743.207 437.2832,725.1784 C414.7481,750.261 389.7089,741.5175 383,710 C387.4768,709.0226 390.8575,710.8946 389.5285,716.1153 C364.1337,705.0593 358.8201,685.1349 383.1094,667.5165 C364.566,652.9667 363.9533,637.5547 385.7941,625.5909 C363.2982,610.3065 364.0022,590.6764 388.5105,578.0793 C366.4921,568.176 362.9359,549.464 382.9497,534.2302 C365.5484,519.7563 365.3426,501.9989 386.3097,490.4711 C365.5652,476.3005 366.7032,460.0782 387.8066,447.3607 C367.7315,436.6042 362.8122,416.9286 382.1559,401.3327 C365.3782,384.4126 366.7455,370.6544 387.3684,358.2603 C368.0874,346.8556 368.4831,328.1419 387.129,316.5198 C368.605,304.7603 361.1092,285.9275 384.8989,272.0462 C366.2087,258.0566 364.6108,241.8788 384.6236,227.6491 C354.9958,206.4581 356.7362,184.8761 390,169.5 C395.0457,169.2081 396.8934,171.8156 394.5425,176.396 " fill="#FFFFFF" style="stroke: #000000; stroke-width: 1.5;"/><text fill="#000000" font-family="sans-serif" font-size="14" font-weight="bold" lengthAdjust="spacingAndGlyphs" textLength="42" x="680" y="188.0352">Cloud</text><!--cluster VirtualMachines--><polygon fill="#FFFFFF" filter="url(#f1ihp5ioskdqnh)" points="754,426.5,764,416.5,995,416.5,995,683,985,693,754,693,754,426.5" style="stroke: #000000; stroke-width: 1.5;"/><line style="stroke: #000000; stroke-width: 1.5;" x1="985" x2="994" y1="426.5" y2="417.5"/><line style="stroke: #000000; stroke-width: 1.5;" x1="754" x2="985" y1="426.5" y2="426.5"/><line style="stroke: #000000; stroke-width: 1.5;" x1="985" x2="985" y1="426.5" y2="693"/><text fill="#000000" font-family="sans-serif" font-size="14" font-weight="bold" lengthAdjust="spacingAndGlyphs" textLength="116" x="812.5" y="443.0352">VirtualMachines</text><!--cluster FrontendServer--><polygon fill="#FFFFFF" filter="url(#f1ihp5ioskdqnh)" points="407,222.5,417,212.5,714,212.5,714,514.5,704,524.5,407,524.5,407,222.5" style="stroke: #000000; stroke-width: 1.5;"/><line style="stroke: #000000; stroke-width: 1.5;" x1="704" x2="713" y1="222.5" y2="213.5"/><line style="stroke: #000000; stroke-width: 1.5;" x1="407" x2="704" y1="222.5" y2="222.5"/><line style="stroke: #000000; stroke-width: 1.5;" x1="704" x2="704" y1="222.5" y2="524.5"/><text fill="#000000" font-family="sans-serif" font-size="14" font-weight="bold" lengthAdjust="spacingAndGlyphs" textLength="108" x="502.5" y="239.0352">FrontendServer</text><!--cluster Vendor_1--><path d="M1835.1766,391.9326 C1837.7088,385.9897 1844.2549,383.6364 1848.6907,389.8095 C1851.4246,382.3713 1858.5001,380.321 1863.9894,386.7752 C1868.3922,380.8866 1873.1431,378.9113 1877.8776,386.4317 C1881.072,379.9945 1887.4239,379.7928 1891.8014,385.0194 C1896.348,377.659 1901.5628,375.8932 1908.0622,382.7927 C1912.9758,375.6246 1917.6176,375.696 1923.2971,381.9215 C1927.6906,375.8675 1933.1495,374.4514 1937.5402,381.9245 C1941.4802,376.1745 1945.6237,374.5971 1950.4639,380.9643 C1956.5499,373.218 1961.5141,375.3938 1966.1267,382.5164 C1971.6388,376.6613 1977.3612,377.0823 1981.038,384.5678 C1984.9154,379.1162 1990.9985,379.458 1993.8519,385.6908 C1998.3234,380.6624 2005.2658,381.4279 2007.711,388.0923 C2013.3658,381.5576 2017.5451,382.0875 2021.5788,389.6833 C2030.6883,382.2421 2040.187,384.1546 2043,396.5 C2044.6355,396.6778 2045.464,397.2253 2044.6768,399.017 C2051.835,402.5204 2053.1612,407.7653 2046.4762,413.0443 C2055.1917,416.5488 2057.5939,422.4594 2049.8922,429.3939 C2060.6649,433.203 2061.9186,439.3937 2053.7994,447.3203 C2061.766,449.8343 2063.8828,456.6227 2057.4699,462.5927 C2063.5995,468.8766 2060.5561,474.6199 2053.467,477.3081 C2060.2784,483.9923 2059.8773,491.9233 2050.3879,495.9091 C2055.0651,501.1174 2055.2254,506.5613 2047.818,509.4815 C2055.8939,521.0136 2050.4019,532.5083 2036,532.5 C2037.7159,531.6263 2038.9393,532.272 2038.888,534.2744 C2033.502,542.1103 2026.255,542.092 2020.9819,534.1462 C2016.1718,542.1438 2007.2965,543.9201 2002.6765,533.9525 C1997.4324,542.4517 1992.2418,540.7469 1986.8202,534.1388 C1982.0489,542.3358 1976.3302,543.0873 1969.7002,536.2562 C1964.6984,544.1934 1957.5196,545.655 1952.2047,536.5781 C1946.2842,543.5921 1940.9387,544.001 1935.3954,536.1515 C1930.6309,542.1418 1923.9834,542.2323 1920.2403,534.9822 C1915.2168,543.172 1909.3295,545.8158 1902.3462,537.0505 C1896.6789,543.617 1890.2342,543.0441 1887.3172,534.3432 C1882.1548,543.5127 1872.8902,542.0191 1868.4356,533.584 C1863.8937,541.889 1858.2707,542.9364 1852.0473,535.3142 C1839.3459,542.7129 1830.584,541.3701 1827,525.5 C1827.86,525.5094 1828.3913,526.1421 1827.8756,526.9705 C1819.5324,523.873 1818.05,517.8297 1825.4491,512.154 C1815.777,507.9283 1815.5148,499.9822 1824.6627,494.8987 C1815.8607,491.9626 1814.4114,486.6037 1820.9365,479.8679 C1811.9738,475.341 1811.1126,467.9747 1818.7291,461.4597 C1810.3472,456.5484 1810.6763,449.8447 1819.2541,445.491 C1813.3768,440.3308 1814.9326,433.311 1822.1857,430.7648 C1813.9727,425.3877 1815.0851,417.2194 1824.4775,414.2915 C1816.1897,401.2492 1818.1733,393.2799 1834,389.5 C1835.5491,389.7433 1835.824,390.6269 1835.1766,391.9326 " fill="#FFFFFF" style="stroke: #000000; stroke-width: 1.5;"/><text fill="#000000" font-family="sans-serif" font-size="14" font-weight="bold" lengthAdjust="spacingAndGlyphs" textLength="67" x="1901.5" y="408.0352">Vendor_1</text><!--cluster Server_1--><polygon fill="#FFFFFF" filter="url(#f1ihp5ioskdqnh)" points="1843,434.5,1853,424.5,2027,424.5,2027,506.5,2017,516.5,1843,516.5,1843,434.5" style="stroke: #000000; stroke-width: 1.5;"/><line style="stroke: #000000; stroke-width: 1.5;" x1="2017" x2="2026" y1="434.5" y2="425.5"/><line style="stroke: #000000; stroke-width: 1.5;" x1="1843" x2="2017" y1="434.5" y2="434.5"/><line style="stroke: #000000; stroke-width: 1.5;" x1="2017" x2="2017" y1="434.5" y2="516.5"/><text fill="#000000" font-family="sans-serif" font-size="14" font-weight="bold" lengthAdjust="spacingAndGlyphs" textLength="60" x="1901" y="451.0352">Server_1</text><!--cluster Vendor_2--><path d="M1579.1766,391.9326 C1581.7088,385.9897 1588.2549,383.6364 1592.6907,389.8095 C1595.4246,382.3713 1602.5001,380.321 1607.9894,386.7752 C1612.3922,380.8866 1617.1431,378.9113 1621.8776,386.4317 C1625.072,379.9945 1631.4239,379.7928 1635.8014,385.0194 C1640.348,377.659 1645.5628,375.8932 1652.0622,382.7927 C1656.9758,375.6246 1661.6176,375.696 1667.2971,381.9215 C1671.6906,375.8675 1677.1495,374.4514 1681.5402,381.9245 C1685.4802,376.1745 1689.6237,374.5971 1694.4639,380.9643 C1700.5499,373.218 1705.5141,375.3938 1710.1267,382.5164 C1715.6388,376.6613 1721.3612,377.0823 1725.038,384.5678 C1728.9154,379.1162 1734.9985,379.458 1737.8519,385.6908 C1742.3234,380.6624 1749.2658,381.4279 1751.711,388.0923 C1757.3658,381.5576 1761.5451,382.0875 1765.5788,389.6833 C1774.6883,382.2421 1784.187,384.1546 1787,396.5 C1788.6355,396.6778 1789.464,397.2253 1788.6768,399.017 C1795.835,402.5204 1797.1612,407.7653 1790.4762,413.0443 C1799.1917,416.5488 1801.5939,422.4594 1793.8922,429.3939 C1804.6649,433.203 1805.9186,439.3937 1797.7994,447.3203 C1805.766,449.8343 1807.8828,456.6227 1801.4699,462.5927 C1807.5995,468.8766 1804.5561,474.6199 1797.467,477.3081 C1804.2784,483.9923 1803.8773,491.9233 1794.3879,495.9091 C1799.0651,501.1174 1799.2254,506.5613 1791.818,509.4815 C1799.8939,521.0136 1794.4019,532.5083 1780,532.5 C1781.7159,531.6263 1782.9393,532.272 1782.888,534.2744 C1777.502,542.1103 1770.255,542.092 1764.9819,534.1462 C1760.1718,542.1438 1751.2965,543.9201 1746.6765,533.9525 C1741.4324,542.4517 1736.2418,540.7469 1730.8202,534.1388 C1726.0489,542.3358 1720.3302,543.0873 1713.7002,536.2562 C1708.6984,544.1934 1701.5196,545.655 1696.2047,536.5781 C1690.2842,543.5921 1684.9387,544.001 1679.3954,536.1515 C1674.6309,542.1418 1667.9834,542.2323 1664.2403,534.9822 C1659.2168,543.172 1653.3295,545.8158 1646.3462,537.0505 C1640.6789,543.617 1634.2342,543.0441 1631.3172,534.3432 C1626.1548,543.5127 1616.8902,542.0191 1612.4356,533.584 C1607.8937,541.889 1602.2707,542.9364 1596.0473,535.3142 C1583.3459,542.7129 1574.584,541.3701 1571,525.5 C1571.86,525.5094 1572.3913,526.1421 1571.8756,526.9705 C1563.5324,523.873 1562.05,517.8297 1569.4491,512.154 C1559.777,507.9283 1559.5148,499.9822 1568.6627,494.8987 C1559.8607,491.9626 1558.4114,486.6037 1564.9365,479.8679 C1555.9738,475.341 1555.1126,467.9747 1562.7291,461.4597 C1554.3472,456.5484 1554.6763,449.8447 1563.2541,445.491 C1557.3768,440.3308 1558.9326,433.311 1566.1857,430.7648 C1557.9727,425.3877 1559.0851,417.2194 1568.4775,414.2915 C1560.1897,401.2492 1562.1733,393.2799 1578,389.5 C1579.5491,389.7433 1579.824,390.6269 1579.1766,391.9326 " fill="#FFFFFF" style="stroke: #000000; stroke-width: 1.5;"/><text fill="#000000" font-family="sans-serif" font-size="14" font-weight="bold" lengthAdjust="spacingAndGlyphs" textLength="67" x="1645.5" y="408.0352">Vendor_2</text><!--cluster Server_2--><polygon fill="#FFFFFF" filter="url(#f1ihp5ioskdqnh)" points="1587,434.5,1597,424.5,1771,424.5,1771,506.5,1761,516.5,1587,516.5,1587,434.5" style="stroke: #000000; stroke-width: 1.5;"/><line style="stroke: #000000; stroke-width: 1.5;" x1="1761" x2="1770" y1="434.5" y2="425.5"/><line style="stroke: #000000; stroke-width: 1.5;" x1="1587" x2="1761" y1="434.5" y2="434.5"/><line style="stroke: #000000; stroke-width: 1.5;" x1="1761" x2="1761" y1="434.5" y2="516.5"/><text fill="#000000" font-family="sans-serif" font-size="14" font-weight="bold" lengthAdjust="spacingAndGlyphs" textLength="60" x="1645" y="451.0352">Server_2</text><!--cluster Vendor_3--><path d="M1323.1766,391.9326 C1325.7088,385.9897 1332.2549,383.6364 1336.6907,389.8095 C1339.4246,382.3713 1346.5001,380.321 1351.9894,386.7752 C1356.3922,380.8866 1361.1431,378.9113 1365.8776,386.4317 C1369.072,379.9945 1375.4239,379.7928 1379.8014,385.0194 C1384.348,377.659 1389.5628,375.8932 1396.0622,382.7927 C1400.9758,375.6246 1405.6176,375.696 1411.2971,381.9215 C1415.6906,375.8675 1421.1495,374.4514 1425.5402,381.9245 C1429.4802,376.1745 1433.6237,374.5971 1438.4639,380.9643 C1444.5499,373.218 1449.5141,375.3938 1454.1267,382.5164 C1459.6388,376.6613 1465.3612,377.0823 1469.038,384.5678 C1472.9154,379.1162 1478.9985,379.458 1481.8519,385.6908 C1486.3234,380.6624 1493.2658,381.4279 1495.711,388.0923 C1501.3658,381.5576 1505.5451,382.0875 1509.5788,389.6833 C1518.6883,382.2421 1528.187,384.1546 1531,396.5 C1532.6355,396.6778 1533.464,397.2253 1532.6768,399.017 C1539.835,402.5204 1541.1612,407.7653 1534.4762,413.0443 C1543.1917,416.5488 1545.5939,422.4594 1537.8922,429.3939 C1548.6649,433.203 1549.9186,439.3937 1541.7994,447.3203 C1549.766,449.8343 1551.8828,456.6227 1545.4699,462.5927 C1551.5995,468.8766 1548.5561,474.6199 1541.467,477.3081 C1548.2784,483.9923 1547.8773,491.9233 1538.3879,495.9091 C1543.0651,501.1174 1543.2254,506.5613 1535.818,509.4815 C1543.8939,521.0136 1538.4019,532.5083 1524,532.5 C1525.7159,531.6263 1526.9393,532.272 1526.888,534.2744 C1521.502,542.1103 1514.255,542.092 1508.9819,534.1462 C1504.1718,542.1438 1495.2965,543.9201 1490.6765,533.9525 C1485.4324,542.4517 1480.2418,540.7469 1474.8202,534.1388 C1470.0489,542.3358 1464.3302,543.0873 1457.7002,536.2562 C1452.6984,544.1934 1445.5196,545.655 1440.2047,536.5781 C1434.2842,543.5921 1428.9387,544.001 1423.3954,536.1515 C1418.6309,542.1418 1411.9834,542.2323 1408.2403,534.9822 C1403.2168,543.172 1397.3295,545.8158 1390.3462,537.0505 C1384.6789,543.617 1378.2342,543.0441 1375.3172,534.3432 C1370.1548,543.5127 1360.8902,542.0191 1356.4356,533.584 C1351.8937,541.889 1346.2707,542.9364 1340.0473,535.3142 C1327.3459,542.7129 1318.584,541.3701 1315,525.5 C1315.86,525.5094 1316.3913,526.1421 1315.8756,526.9705 C1307.5324,523.873 1306.05,517.8297 1313.4491,512.154 C1303.777,507.9283 1303.5148,499.9822 1312.6627,494.8987 C1303.8607,491.9626 1302.4114,486.6037 1308.9365,479.8679 C1299.9738,475.341 1299.1126,467.9747 1306.7291,461.4597 C1298.3472,456.5484 1298.6763,449.8447 1307.2541,445.491 C1301.3768,440.3308 1302.9326,433.311 1310.1857,430.7648 C1301.9727,425.3877 1303.0851,417.2194 1312.4775,414.2915 C1304.1897,401.2492 1306.1733,393.2799 1322,389.5 C1323.5491,389.7433 1323.824,390.6269 1323.1766,391.9326 " fill="#FFFFFF" style="stroke: #000000; stroke-width: 1.5;"/><text fill="#000000" font-family="sans-serif" font-size="14" font-weight="bold" lengthAdjust="spacingAndGlyphs" textLength="67" x="1389.5" y="408.0352">Vendor_3</text><!--cluster Server_3--><polygon fill="#FFFFFF" filter="url(#f1ihp5ioskdqnh)" points="1331,434.5,1341,424.5,1515,424.5,1515,506.5,1505,516.5,1331,516.5,1331,434.5" style="stroke: #000000; stroke-width: 1.5;"/><line style="stroke: #000000; stroke-width: 1.5;" x1="1505" x2="1514" y1="434.5" y2="425.5"/><line style="stroke: #000000; stroke-width: 1.5;" x1="1331" x2="1505" y1="434.5" y2="434.5"/><line style="stroke: #000000; stroke-width: 1.5;" x1="1505" x2="1505" y1="434.5" y2="516.5"/><text fill="#000000" font-family="sans-serif" font-size="14" font-weight="bold" lengthAdjust="spacingAndGlyphs" textLength="60" x="1389" y="451.0352">Server_3</text><!--entity cl_1--><rect fill="#FEFECE" filter="url(#f1ihp5ioskdqnh)" height="46.4883" style="stroke: #000000; stroke-width: 1.5;" width="93" x="78.5" y="99.5"/><path d="M109.5,100.5 L109.5,104.5 L102.5,111.5 L78.5,111.5 " fill="none" style="stroke: #000000; stroke-width: 1.5;"/><text fill="#000000" font-family="sans-serif" font-size="14" lengthAdjust="spacingAndGlyphs" textLength="53" x="93.5" y="133.0352">Client 1</text><!--entity cl_2--><rect fill="#FEFECE" filter="url(#f1ihp5ioskdqnh)" height="46.4883" style="stroke: #000000; stroke-width: 1.5;" width="93" x="206.5" y="99.5"/><path d="M237.5,100.5 L237.5,104.5 L230.5,111.5 L206.5,111.5 " fill="none" style="stroke: #000000; stroke-width: 1.5;"/><text fill="#000000" font-family="sans-serif" font-size="14" lengthAdjust="spacingAndGlyphs" textLength="53" x="221.5" y="133.0352">Client 2</text><!--entity cl_n--><rect fill="#FEFECE" filter="url(#f1ihp5ioskdqnh)" height="46.4883" style="stroke: #000000; stroke-width: 1.5;" width="94" x="78" y="255.5"/><path d="M109.3333,256.5 L109.3333,260.5 L102.3333,267.5 L78,267.5 " fill="none" style="stroke: #000000; stroke-width: 1.5;"/><text fill="#000000" font-family="sans-serif" font-size="14" lengthAdjust="spacingAndGlyphs" textLength="54" x="93" y="289.0352">Client N</text><!--entity KeyVault--><rect fill="#FEFECE" filter="url(#f1ihp5ioskdqnh)" height="36.4883" style="stroke: #A80036; stroke-width: 1.5;" width="79" x="1067.5" y="628.5"/><rect fill="#FEFECE" height="5" style="stroke: #A80036; stroke-width: 1.5;" width="10" x="1062.5" y="633.5"/><rect fill="#FEFECE" height="5" style="stroke: #A80036; stroke-width: 1.5;" width="10" x="1062.5" y="654.9883"/><text fill="#000000" font-family="sans-serif" font-size="14" lengthAdjust="spacingAndGlyphs" textLength="59" x="1077.5" y="652.0352">KeyVault</text><!--entity Worker--><rect fill="#FEFECE" filter="url(#f1ihp5ioskdqnh)" height="36.4883" style="stroke: #A80036; stroke-width: 1.5;" width="69" x="778.5" y="464.5"/><rect fill="#FEFECE" height="5" style="stroke: #A80036; stroke-width: 1.5;" width="10" x="773.5" y="469.5"/><rect fill="#FEFECE" height="5" style="stroke: #A80036; stroke-width: 1.5;" width="10" x="773.5" y="490.9883"/><text fill="#000000" font-family="sans-serif" font-size="14" lengthAdjust="spacingAndGlyphs" textLength="49" x="788.5" y="488.0352">Worker</text><!--entity Service--><rect fill="#FEFECE" filter="url(#f1ihp5ioskdqnh)" height="36.4883" style="stroke: #A80036; stroke-width: 1.5;" width="68" x="883" y="464.5"/><rect fill="#FEFECE" height="5" style="stroke: #A80036; stroke-width: 1.5;" width="10" x="878" y="469.5"/><rect fill="#FEFECE" height="5" style="stroke: #A80036; stroke-width: 1.5;" width="10" x="878" y="490.9883"/><text fill="#000000" font-family="sans-serif" font-size="14" lengthAdjust="spacingAndGlyphs" textLength="48" x="893" y="488.0352">Service</text><!--entity Crypto--><rect fill="#FEFECE" filter="url(#f1ihp5ioskdqnh)" height="36.4883" style="stroke: #A80036; stroke-width: 1.5;" width="66" x="778" y="628.5"/><rect fill="#FEFECE" height="5" style="stroke: #A80036; stroke-width: 1.5;" width="10" x="773" y="633.5"/><rect fill="#FEFECE" height="5" style="stroke: #A80036; stroke-width: 1.5;" width="10" x="773" y="654.9883"/><text fill="#000000" font-family="sans-serif" font-size="14" lengthAdjust="spacingAndGlyphs" textLength="46" x="788" y="652.0352">Crypto</text><!--entity Database--><path d="M879.5,634 C879.5,624 921,624 921,624 C921,624 962.5,624 962.5,634 L962.5,659.4883 C962.5,669.4883 921,669.4883 921,669.4883 C921,669.4883 879.5,669.4883 879.5,659.4883 L879.5,634 " fill="#FEFECE" filter="url(#f1ihp5ioskdqnh)" style="stroke: #000000; stroke-width: 1.5;"/><path d="M879.5,634 C879.5,644 921,644 921,644 C921,644 962.5,644 962.5,634 " fill="none" style="stroke: #000000; stroke-width: 1.5;"/><text fill="#000000" font-family="sans-serif" font-size="14" lengthAdjust="spacingAndGlyphs" textLength="63" x="889.5" y="661.5352">Database</text><!--entity LoadBalancer--><rect fill="#FEFECE" filter="url(#f1ihp5ioskdqnh)" height="36.4883" style="stroke: #A80036; stroke-width: 1.5;" width="111" x="431.5" y="260.5"/><rect fill="#FEFECE" height="5" style="stroke: #A80036; stroke-width: 1.5;" width="10" x="426.5" y="265.5"/><rect fill="#FEFECE" height="5" style="stroke: #A80036; stroke-width: 1.5;" width="10" x="426.5" y="286.9883"/><text fill="#000000" font-family="sans-serif" font-size="14" lengthAdjust="spacingAndGlyphs" textLength="91" x="441.5" y="284.0352">LoadBalancer</text><!--entity Autoscaler--><rect fill="#FEFECE" filter="url(#f1ihp5ioskdqnh)" height="36.4883" style="stroke: #A80036; stroke-width: 1.5;" width="93" x="577.5" y="260.5"/><rect fill="#FEFECE" height="5" style="stroke: #A80036; stroke-width: 1.5;" width="10" x="572.5" y="265.5"/><rect fill="#FEFECE" height="5" style="stroke: #A80036; stroke-width: 1.5;" width="10" x="572.5" y="286.9883"/><text fill="#000000" font-family="sans-serif" font-size="14" lengthAdjust="spacingAndGlyphs" textLength="73" x="587.5" y="284.0352">Autoscaler</text><!--entity Endpoint--><rect fill="#FEFECE" filter="url(#f1ihp5ioskdqnh)" height="36.4883" style="stroke: #A80036; stroke-width: 1.5;" width="82" x="446" y="464.5"/><rect fill="#FEFECE" height="5" style="stroke: #A80036; stroke-width: 1.5;" width="10" x="441" y="469.5"/><rect fill="#FEFECE" height="5" style="stroke: #A80036; stroke-width: 1.5;" width="10" x="441" y="490.9883"/><text fill="#000000" font-family="sans-serif" font-size="14" lengthAdjust="spacingAndGlyphs" textLength="62" x="456" y="488.0352">Endpoint</text><!--entity PaymentProvider_1--><rect fill="#FEFECE" filter="url(#f1ihp5ioskdqnh)" height="36.4883" style="stroke: #A80036; stroke-width: 1.5;" width="151" x="1859.5" y="464.5"/><rect fill="#FEFECE" height="5" style="stroke: #A80036; stroke-width: 1.5;" width="10" x="1854.5" y="469.5"/><rect fill="#FEFECE" height="5" style="stroke: #A80036; stroke-width: 1.5;" width="10" x="1854.5" y="490.9883"/><text fill="#000000" font-family="sans-serif" font-size="14" lengthAdjust="spacingAndGlyphs" textLength="131" x="1869.5" y="488.0352">PaymentProvider_1</text><!--entity PaymentProvider_2--><rect fill="#FEFECE" filter="url(#f1ihp5ioskdqnh)" height="36.4883" style="stroke: #A80036; stroke-width: 1.5;" width="151" x="1603.5" y="464.5"/><rect fill="#FEFECE" height="5" style="stroke: #A80036; stroke-width: 1.5;" width="10" x="1598.5" y="469.5"/><rect fill="#FEFECE" height="5" style="stroke: #A80036; stroke-width: 1.5;" width="10" x="1598.5" y="490.9883"/><text fill="#000000" font-family="sans-serif" font-size="14" lengthAdjust="spacingAndGlyphs" textLength="131" x="1613.5" y="488.0352">PaymentProvider_2</text><!--entity PaymentProvider_3--><rect fill="#FEFECE" filter="url(#f1ihp5ioskdqnh)" height="36.4883" style="stroke: #A80036; stroke-width: 1.5;" width="151" x="1347.5" y="464.5"/><rect fill="#FEFECE" height="5" style="stroke: #A80036; stroke-width: 1.5;" width="10" x="1342.5" y="469.5"/><rect fill="#FEFECE" height="5" style="stroke: #A80036; stroke-width: 1.5;" width="10" x="1342.5" y="490.9883"/><text fill="#000000" font-family="sans-serif" font-size="14" lengthAdjust="spacingAndGlyphs" textLength="131" x="1357.5" y="488.0352">PaymentProvider_3</text><!--link FrontendServer to VirtualMachines--><path d="M714.2365,280.3273 C714.4188,280.3465 714.6039,280.366 714.7918,280.3858 C715.5432,280.4652 716.3388,280.5499 717.1769,280.64 C723.8816,281.3605 733.3076,282.4248 744.6414,283.8422 C767.3091,286.6769 797.6081,290.9237 829.0313,296.6575 C891.8775,308.125 959.22,325.54 979,349.5 C997.415,371.81 999.64,404.135 997.1513,431.2125 C996.8402,434.5972 996.4554,437.8999 996.0194,441.0908 C995.8014,442.6862 995.5706,444.2537 995.3298,445.7895 C995.2696,446.1735 995.2088,446.5555 995.1474,446.9354 C995.1167,447.1254 995.0858,447.3148 995.0548,447.5038 " fill="none" id="FrontendServer-VirtualMachines" style="stroke: #A80036; stroke-width: 1.0;"/><path d="M823.3443,288.432 A10,10 0 0 0 820.8057 302.3444" fill="#FFFFFF" style="stroke: #A80036; stroke-width: 1.5;"/><ellipse cx="829.0313" cy="296.6575" fill="#FFFFFF" rx="6" ry="6" style="stroke: #A80036; stroke-width: 1.5;"/><!--link FrontendServer to KeyVault--><path d="M714.1505,280.3649 C714.5252,280.4061 714.9117,280.4487 715.31,280.4928 C716.1065,280.581 716.9499,280.6751 717.8386,280.7749 C724.9478,281.5736 734.9519,282.7434 747.0063,284.2767 C771.115,287.3434 803.425,291.8644 837.18,297.7787 C904.69,309.6075 977.98,327.01 1003,349.5 C1088.47,426.33 1103.7,577.59 1106.41,628.4 " fill="none" id="FrontendServer-KeyVault" style="stroke: #A80036; stroke-width: 1.0;"/><path d="M931.1946,310.8847 A10,10 0 0 0 927.2671 324.4706" fill="#FFFFFF" style="stroke: #A80036; stroke-width: 1.5;"/><ellipse cx="936.0238" cy="319.6414" fill="#FFFFFF" rx="6" ry="6" style="stroke: #A80036; stroke-width: 1.5;"/><!--link VirtualMachines to KeyVault--><path d="M995.167,494.5241 C995.2652,494.6567 995.3642,494.7903 995.464,494.925 C997.06,497.0798 998.8499,499.4962 1000.8055,502.1364 C1008.6278,512.6972 1019.1019,526.8381 1030.4313,542.1338 C1053.09,572.725 1079.17,607.935 1094.3,628.36 " fill="none" id="VirtualMachines-KeyVault" style="stroke: #A80036; stroke-width: 1.0;"/><path d="M1031.9047,532.2429 A10,10 0 0 0 1020.5404 540.6603" fill="#FFFFFF" style="stroke: #A80036; stroke-width: 1.5;"/><ellipse cx="1030.4313" cy="542.1338" fill="#FFFFFF" rx="6" ry="6" style="stroke: #A80036; stroke-width: 1.5;"/><!--link Clients to FrontendServer--><path d="M343.5547,123.6079 C343.7751,123.611 343.9995,123.6142 344.2279,123.6175 C346.0546,123.6439 348.1323,123.6753 350.4425,123.7124 C359.6832,123.8607 372.6442,124.0996 388.1466,124.468 C419.1512,125.2047 460.3212,126.4594 502.225,128.5438 C586.0325,132.7125 672.775,140.2 687,153.5 C697.0225,162.8725 703.2625,175.1419 706.9748,188.3147 C708.831,194.9011 710.0553,201.7134 710.8045,208.5023 C710.8981,209.3509 710.9843,210.1992 711.0635,211.0466 C711.103,211.4703 711.1408,211.8938 711.1768,212.317 " fill="none" id="Clients-FrontendServer" style="stroke: #A80036; stroke-width: 1.0;"/><path d="M495.514,121.1301 A10,10 0 0 0 494.8114 135.2548" fill="#FFFFFF" style="stroke: #A80036; stroke-width: 1.5;"/><ellipse cx="502.225" cy="128.5438" fill="#FFFFFF" rx="6" ry="6" style="stroke: #A80036; stroke-width: 1.5;"/><!--link FrontendServer to PaymentProvider_1--><path d="M714.2074,279.737 C714.5913,279.7483 714.9883,279.76 715.3981,279.7721 C716.2177,279.7963 717.0887,279.8221 718.0103,279.8494 C725.3834,280.0684 735.9947,280.389 749.4104,280.8085 C776.2418,281.6477 814.2905,282.8829 860.0847,284.4933 C951.6731,287.7141 1074.2438,292.4356 1200.0225,298.4913 C1451.58,310.6025 1715.97,328.05 1771,349.5 C1835.36,374.59 1894.08,434.58 1920.41,464.26 " fill="none" id="FrontendServer-PaymentProvider_1" style="stroke: #A80036; stroke-width: 1.0;"/><path d="M1193.2997,291.0883 A10,10 0 0 0 1192.6196 305.2141" fill="#FFFFFF" style="stroke: #A80036; stroke-width: 1.5;"/><ellipse cx="1200.0225" cy="298.4913" fill="#FFFFFF" rx="6" ry="6" style="stroke: #A80036; stroke-width: 1.5;"/><!--link FrontendServer to PaymentProvider_2--><path d="M714.0541,279.5535 C714.3633,279.5559 714.681,279.5585 715.0071,279.5611 C720.2257,279.6037 727.6117,279.6733 736.8993,279.7848 C755.4743,280.0077 781.6552,280.3979 813.3136,281.0733 C876.6303,282.4241 961.8569,284.9156 1051.9663,289.4913 C1232.185,298.6425 1431.935,316.13 1515,349.5 C1579.1,375.25 1637.94,434.93 1664.35,464.4 " fill="none" id="FrontendServer-PaymentProvider_2" style="stroke: #A80036; stroke-width: 1.0;"/><path d="M1313.7138,302.5692 A10,10 0 0 0 1312.0714 316.6156" fill="#FFFFFF" style="stroke: #A80036; stroke-width: 1.5;"/><ellipse cx="1319.9158" cy="310.4136" fill="#FFFFFF" rx="6" ry="6" style="stroke: #A80036; stroke-width: 1.5;"/><!--link FrontendServer to PaymentProvider_3--><path d="M714.4563,280.556 C714.6331,280.5786 714.8126,280.6015 714.9947,280.6248 C715.7229,280.7178 716.4929,280.8166 717.3037,280.9212 C723.7896,281.7575 732.8852,282.9604 744.1148,284.5214 C766.5741,287.6434 797.5694,292.1981 833.2963,298.1188 C904.75,309.96 995.13,327.265 1074,349.5 C1189.66,382.11 1320.95,436.77 1384.49,464.4 " fill="none" id="FrontendServer-PaymentProvider_3" style="stroke: #A80036; stroke-width: 1.0;"/><path d="M1069.1129,340.7755 A10,10 0 0 0 1065.2755 354.3871" fill="#FFFFFF" style="stroke: #A80036; stroke-width: 1.5;"/><ellipse cx="1074" cy="349.5" fill="#FFFFFF" rx="6" ry="6" style="stroke: #A80036; stroke-width: 1.5;"/><!--link cl_1 to cl_2--><!--link cl_1 to cl_n--><!--link Worker to Service--><!--link Worker to Crypto--><!--link Crypto to Database--><!--link LoadBalancer to Autoscaler--><!--link LoadBalancer to Endpoint--><!--
@startuml
together {
    frame Clients {
        frame cl_1 [
            Client 1
        ]
        frame cl_2 [
            Client 2
        ]
        frame cl_n [
            Client N
        ]
    }
    
    node KeyVaultServer {
        component KeyVault
    }

    cloud Cloud {
        node VirtualMachines {
            component Worker
            component Service
            component Crypto
            database Database
        }

        node FrontendServer {
            component LoadBalancer
            component Autoscaler
            component Endpoint
            component Crypto
        }

        FrontendServer -(0- VirtualMachines
    }
    
    FrontendServer -(0- KeyVault
    VirtualMachines -(0- KeyVault
}

together {
    cloud Vendor_1 {
        node Server_1 {
            component PaymentProvider_1
        }
    }

    cloud Vendor_2 {
        node Server_2 {
            component PaymentProvider_2
        }
    }

    cloud Vendor_3 {
        node Server_3 {
            component PaymentProvider_3
        }
    }
}

Clients -(0- FrontendServer
FrontendServer -(0- PaymentProvider_1
FrontendServer -(0- PaymentProvider_2
FrontendServer -(0- PaymentProvider_3
@enduml

PlantUML version 1.2019.09(Mon Aug 26 18:19:51 CEST 2019)
(GPL source distribution)
Java Runtime: Java(TM) SE Runtime Environment
JVM: Java HotSpot(TM) 64-Bit Server VM
Java Version: 1.8.0_221-b11
Operating System: Mac OS X
OS Version: 10.15.1
Default Encoding: UTF-8
Language: en
Country: CZ
--></g></svg>