<?xml version="1.0" encoding="UTF-8" standalone="no"?><svg xmlns="http://www.w3.org/2000/svg" xmlns:xlink="http://www.w3.org/1999/xlink" contentScriptType="application/ecmascript" contentStyleType="text/css" height="332px" preserveAspectRatio="none" style="width:1527px;height:332px;" version="1.1" viewBox="0 0 1527 332" width="1527px" zoomAndPan="magnify"><defs><filter height="300%" id="f1o12pg8pm1kfk" width="300%" x="-1" y="-1"><feGaussianBlur result="blurOut" stdDeviation="2.0"/><feColorMatrix in="blurOut" result="blurOut2" type="matrix" values="0 0 0 0 0 0 0 0 0 0 0 0 0 0 0 0 0 0 .4 0"/><feOffset dx="4.0" dy="4.0" in="blurOut2" result="blurOut3"/><feBlend in="SourceGraphic" in2="blurOut3" mode="normal"/></filter></defs><g><text fill="#000000" font-family="sans-serif" font-size="22" font-weight="bold" lengthAdjust="spacingAndGlyphs" textLength="161" x="702.5" y="21.2695">Class diagram</text><!--class TicketSystem--><rect fill="#FEFECE" filter="url(#f1o12pg8pm1kfk)" height="99.8203" id="TicketSystem" style="stroke: #A80036; stroke-width: 1.5;" width="170" x="1156" y="65.9102"/><ellipse cx="1199.35" cy="81.9102" fill="#ADD1B2" rx="11" ry="11" style="stroke: #A80036; stroke-width: 1.0;"/><path d="M1201.8231,88.0532 Q1201.2421,88.3521 1200.6029,88.5015 Q1199.9638,88.6509 1199.2582,88.6509 Q1196.7514,88.6509 1195.4315,86.999 Q1194.1117,85.3472 1194.1117,82.2261 Q1194.1117,79.0967 1195.4315,77.4448 Q1196.7514,75.793 1199.2582,75.793 Q1199.9638,75.793 1200.6112,75.9424 Q1201.2587,76.0918 1201.8231,76.3906 L1201.8231,79.1133 Q1201.1923,78.5322 1200.5988,78.2625 Q1200.0053,77.9927 1199.3744,77.9927 Q1198.0297,77.9927 1197.3449,79.0593 Q1196.6601,80.126 1196.6601,82.2261 Q1196.6601,84.3179 1197.3449,85.3845 Q1198.0297,86.4512 1199.3744,86.4512 Q1200.0053,86.4512 1200.5988,86.1814 Q1201.1923,85.9116 1201.8231,85.3306 Z "/><text fill="#000000" font-family="sans-serif" font-size="12" lengthAdjust="spacingAndGlyphs" textLength="75" x="1219.65" y="86.4453">TicketSystem</text><line style="stroke: #A80036; stroke-width: 1.5;" x1="1157" x2="1325" y1="97.9102" y2="97.9102"/><text fill="#000000" font-family="sans-serif" font-size="11" lengthAdjust="spacingAndGlyphs" textLength="105" x="1162" y="112.5449">Int maxTicketCount</text><line style="stroke: #A80036; stroke-width: 1.5;" x1="1157" x2="1325" y1="118.8652" y2="118.8652"/><text fill="#000000" font-family="sans-serif" font-size="11" lengthAdjust="spacingAndGlyphs" textLength="137" x="1162" y="133.5">register(name, password)</text><text fill="#000000" font-family="sans-serif" font-size="11" lengthAdjust="spacingAndGlyphs" textLength="158" x="1162" y="146.4551">login(name, password, token)</text><text fill="#000000" font-family="sans-serif" font-size="11" lengthAdjust="spacingAndGlyphs" textLength="69" x="1162" y="159.4102">order(count)</text><!--class KeyVault--><rect fill="#FEFECE" filter="url(#f1o12pg8pm1kfk)" height="52.9551" id="KeyVault" style="stroke: #A80036; stroke-width: 1.5;" width="82" x="1410.5" y="167.4102"/><ellipse cx="1425.5" cy="183.4102" fill="#ADD1B2" rx="11" ry="11" style="stroke: #A80036; stroke-width: 1.0;"/><path d="M1427.9731,189.5532 Q1427.3921,189.8521 1426.7529,190.0015 Q1426.1138,190.1509 1425.4082,190.1509 Q1422.9014,190.1509 1421.5815,188.499 Q1420.2617,186.8472 1420.2617,183.7261 Q1420.2617,180.5967 1421.5815,178.9448 Q1422.9014,177.293 1425.4082,177.293 Q1426.1138,177.293 1426.7612,177.4424 Q1427.4087,177.5918 1427.9731,177.8906 L1427.9731,180.6133 Q1427.3423,180.0322 1426.7488,179.7625 Q1426.1553,179.4927 1425.5244,179.4927 Q1424.1797,179.4927 1423.4949,180.5593 Q1422.8101,181.626 1422.8101,183.7261 Q1422.8101,185.8179 1423.4949,186.8845 Q1424.1797,187.9512 1425.5244,187.9512 Q1426.1553,187.9512 1426.7488,187.6814 Q1427.3423,187.4116 1427.9731,186.8306 Z "/><text fill="#000000" font-family="sans-serif" font-size="12" lengthAdjust="spacingAndGlyphs" textLength="50" x="1439.5" y="187.9453">KeyVault</text><line style="stroke: #A80036; stroke-width: 1.5;" x1="1411.5" x2="1491.5" y1="199.4102" y2="199.4102"/><text fill="#000000" font-family="sans-serif" font-size="11" lengthAdjust="spacingAndGlyphs" textLength="44" x="1416.5" y="214.0449">getKey()</text><!--class Crypto--><rect fill="#FEFECE" filter="url(#f1o12pg8pm1kfk)" height="65.9102" id="Crypto" style="stroke: #A80036; stroke-width: 1.5;" width="108" x="1397.5" y="255.9102"/><ellipse cx="1429.6" cy="271.9102" fill="#ADD1B2" rx="11" ry="11" style="stroke: #A80036; stroke-width: 1.0;"/><path d="M1432.0731,278.0532 Q1431.4921,278.3521 1430.8529,278.5015 Q1430.2138,278.6509 1429.5082,278.6509 Q1427.0014,278.6509 1425.6815,276.999 Q1424.3617,275.3472 1424.3617,272.2261 Q1424.3617,269.0967 1425.6815,267.4448 Q1427.0014,265.793 1429.5082,265.793 Q1430.2138,265.793 1430.8612,265.9424 Q1431.5087,266.0918 1432.0731,266.3906 L1432.0731,269.1133 Q1431.4423,268.5322 1430.8488,268.2625 Q1430.2553,267.9927 1429.6244,267.9927 Q1428.2797,267.9927 1427.5949,269.0593 Q1426.9101,270.126 1426.9101,272.2261 Q1426.9101,274.3179 1427.5949,275.3845 Q1428.2797,276.4512 1429.6244,276.4512 Q1430.2553,276.4512 1430.8488,276.1814 Q1431.4423,275.9116 1432.0731,275.3306 Z "/><text fill="#000000" font-family="sans-serif" font-size="12" lengthAdjust="spacingAndGlyphs" textLength="38" x="1447.4" y="276.4453">Crypto</text><line style="stroke: #A80036; stroke-width: 1.5;" x1="1398.5" x2="1504.5" y1="287.9102" y2="287.9102"/><text fill="#000000" font-family="sans-serif" font-size="11" lengthAdjust="spacingAndGlyphs" textLength="96" x="1403.5" y="302.5449">encrypt(key, data)</text><text fill="#000000" font-family="sans-serif" font-size="11" lengthAdjust="spacingAndGlyphs" textLength="96" x="1403.5" y="315.5">decrypt(key, data)</text><!--class PaymentProvider--><rect fill="#FEFECE" filter="url(#f1o12pg8pm1kfk)" height="65.9102" id="PaymentProvider" style="stroke: #A80036; stroke-width: 1.5;" width="129" x="1387" y="65.9102"/><ellipse cx="1402" cy="81.9102" fill="#ADD1B2" rx="11" ry="11" style="stroke: #A80036; stroke-width: 1.0;"/><path d="M1404.4731,88.0532 Q1403.8921,88.3521 1403.2529,88.5015 Q1402.6138,88.6509 1401.9082,88.6509 Q1399.4014,88.6509 1398.0815,86.999 Q1396.7617,85.3472 1396.7617,82.2261 Q1396.7617,79.0967 1398.0815,77.4448 Q1399.4014,75.793 1401.9082,75.793 Q1402.6138,75.793 1403.2612,75.9424 Q1403.9087,76.0918 1404.4731,76.3906 L1404.4731,79.1133 Q1403.8423,78.5322 1403.2488,78.2625 Q1402.6553,77.9927 1402.0244,77.9927 Q1400.6797,77.9927 1399.9949,79.0593 Q1399.3101,80.126 1399.3101,82.2261 Q1399.3101,84.3179 1399.9949,85.3845 Q1400.6797,86.4512 1402.0244,86.4512 Q1402.6553,86.4512 1403.2488,86.1814 Q1403.8423,85.9116 1404.4731,85.3306 Z "/><text fill="#000000" font-family="sans-serif" font-size="12" lengthAdjust="spacingAndGlyphs" textLength="97" x="1416" y="86.4453">PaymentProvider</text><line style="stroke: #A80036; stroke-width: 1.5;" x1="1388" x2="1515" y1="97.9102" y2="97.9102"/><text fill="#000000" font-family="sans-serif" font-size="11" lengthAdjust="spacingAndGlyphs" textLength="73" x="1393" y="112.5449">balance(card)</text><text fill="#000000" font-family="sans-serif" font-size="11" lengthAdjust="spacingAndGlyphs" textLength="51" x="1393" y="125.5">pay(card)</text><!--class Service--><rect fill="#FEFECE" filter="url(#f1o12pg8pm1kfk)" height="52.9551" id="Service" style="stroke: #A80036; stroke-width: 1.5;" width="72" x="955" y="84.4102"/><ellipse cx="970" cy="100.4102" fill="#ADD1B2" rx="11" ry="11" style="stroke: #A80036; stroke-width: 1.0;"/><path d="M972.4731,106.5532 Q971.8921,106.8521 971.2529,107.0015 Q970.6138,107.1509 969.9082,107.1509 Q967.4014,107.1509 966.0815,105.499 Q964.7617,103.8472 964.7617,100.7261 Q964.7617,97.5967 966.0815,95.9448 Q967.4014,94.293 969.9082,94.293 Q970.6138,94.293 971.2612,94.4424 Q971.9087,94.5918 972.4731,94.8906 L972.4731,97.6133 Q971.8423,97.0322 971.2488,96.7625 Q970.6553,96.4927 970.0244,96.4927 Q968.6797,96.4927 967.9949,97.5593 Q967.3101,98.626 967.3101,100.7261 Q967.3101,102.8179 967.9949,103.8845 Q968.6797,104.9512 970.0244,104.9512 Q970.6553,104.9512 971.2488,104.6814 Q971.8423,104.4116 972.4731,103.8306 Z "/><text fill="#000000" font-family="sans-serif" font-size="12" lengthAdjust="spacingAndGlyphs" textLength="40" x="984" y="104.9453">Service</text><line style="stroke: #A80036; stroke-width: 1.5;" x1="956" x2="1026" y1="116.4102" y2="116.4102"/><text fill="#000000" font-family="sans-serif" font-size="11" lengthAdjust="spacingAndGlyphs" textLength="50" x="961" y="131.0449">execute()</text><!--class Worker--><rect fill="#FEFECE" filter="url(#f1o12pg8pm1kfk)" height="65.9102" id="Worker" style="stroke: #A80036; stroke-width: 1.5;" width="73" x="758" y="75.9102"/><ellipse cx="773" cy="91.9102" fill="#ADD1B2" rx="11" ry="11" style="stroke: #A80036; stroke-width: 1.0;"/><path d="M775.4731,98.0532 Q774.8921,98.3521 774.2529,98.5015 Q773.6138,98.6509 772.9082,98.6509 Q770.4014,98.6509 769.0815,96.999 Q767.7617,95.3472 767.7617,92.2261 Q767.7617,89.0967 769.0815,87.4448 Q770.4014,85.793 772.9082,85.793 Q773.6138,85.793 774.2612,85.9424 Q774.9087,86.0918 775.4731,86.3906 L775.4731,89.1133 Q774.8423,88.5322 774.2488,88.2625 Q773.6553,87.9927 773.0244,87.9927 Q771.6797,87.9927 770.9949,89.0593 Q770.3101,90.126 770.3101,92.2261 Q770.3101,94.3179 770.9949,95.3845 Q771.6797,96.4512 773.0244,96.4512 Q773.6553,96.4512 774.2488,96.1814 Q774.8423,95.9116 775.4731,95.3306 Z "/><text fill="#000000" font-family="sans-serif" font-size="12" lengthAdjust="spacingAndGlyphs" textLength="41" x="787" y="96.4453">Worker</text><line style="stroke: #A80036; stroke-width: 1.5;" x1="759" x2="830" y1="107.9102" y2="107.9102"/><text fill="#000000" font-family="sans-serif" font-size="11" lengthAdjust="spacingAndGlyphs" textLength="51" x="764" y="122.5449">process()</text><text fill="#000000" font-family="sans-serif" font-size="11" lengthAdjust="spacingAndGlyphs" textLength="41" x="764" y="135.5">getDC()</text><!--class Client--><rect fill="#FEFECE" filter="url(#f1o12pg8pm1kfk)" height="52.9551" id="Client" style="stroke: #A80036; stroke-width: 1.5;" width="64" x="6" y="192.4102"/><ellipse cx="21" cy="208.4102" fill="#ADD1B2" rx="11" ry="11" style="stroke: #A80036; stroke-width: 1.0;"/><path d="M23.4731,214.5532 Q22.8921,214.8521 22.2529,215.0015 Q21.6138,215.1509 20.9082,215.1509 Q18.4014,215.1509 17.0815,213.499 Q15.7617,211.8472 15.7617,208.7261 Q15.7617,205.5967 17.0815,203.9448 Q18.4014,202.293 20.9082,202.293 Q21.6138,202.293 22.2612,202.4424 Q22.9087,202.5918 23.4731,202.8906 L23.4731,205.6133 Q22.8423,205.0322 22.2488,204.7625 Q21.6553,204.4927 21.0244,204.4927 Q19.6797,204.4927 18.9949,205.5593 Q18.3101,206.626 18.3101,208.7261 Q18.3101,210.8179 18.9949,211.8845 Q19.6797,212.9512 21.0244,212.9512 Q21.6553,212.9512 22.2488,212.6814 Q22.8423,212.4116 23.4731,211.8306 Z "/><text fill="#000000" font-family="sans-serif" font-size="12" lengthAdjust="spacingAndGlyphs" textLength="32" x="35" y="212.9453">Client</text><line style="stroke: #A80036; stroke-width: 1.5;" x1="7" x2="69" y1="224.4102" y2="224.4102"/><text fill="#000000" font-family="sans-serif" font-size="11" lengthAdjust="spacingAndGlyphs" textLength="27" x="12" y="239.0449">run()</text><!--class ServiceEndpoint--><rect fill="#FEFECE" filter="url(#f1o12pg8pm1kfk)" height="52.9551" id="ServiceEndpoint" style="stroke: #A80036; stroke-width: 1.5;" width="123" x="252" y="192.4102"/><ellipse cx="267" cy="208.4102" fill="#ADD1B2" rx="11" ry="11" style="stroke: #A80036; stroke-width: 1.0;"/><path d="M269.4731,214.5532 Q268.8921,214.8521 268.2529,215.0015 Q267.6138,215.1509 266.9082,215.1509 Q264.4014,215.1509 263.0815,213.499 Q261.7617,211.8472 261.7617,208.7261 Q261.7617,205.5967 263.0815,203.9448 Q264.4014,202.293 266.9082,202.293 Q267.6138,202.293 268.2612,202.4424 Q268.9087,202.5918 269.4731,202.8906 L269.4731,205.6133 Q268.8423,205.0322 268.2488,204.7625 Q267.6553,204.4927 267.0244,204.4927 Q265.6797,204.4927 264.9949,205.5593 Q264.3101,206.626 264.3101,208.7261 Q264.3101,210.8179 264.9949,211.8845 Q265.6797,212.9512 267.0244,212.9512 Q267.6553,212.9512 268.2488,212.6814 Q268.8423,212.4116 269.4731,211.8306 Z "/><text fill="#000000" font-family="sans-serif" font-size="12" lengthAdjust="spacingAndGlyphs" textLength="91" x="281" y="212.9453">ServiceEndpoint</text><line style="stroke: #A80036; stroke-width: 1.5;" x1="253" x2="374" y1="224.4102" y2="224.4102"/><text fill="#000000" font-family="sans-serif" font-size="11" lengthAdjust="spacingAndGlyphs" textLength="81" x="258" y="239.0449">invokeService()</text><!--class LoadBalancer--><rect fill="#FEFECE" filter="url(#f1o12pg8pm1kfk)" height="117.7305" id="LoadBalancer" style="stroke: #A80036; stroke-width: 1.5;" width="109" x="518" y="47.9102"/><ellipse cx="533" cy="63.9102" fill="#ADD1B2" rx="11" ry="11" style="stroke: #A80036; stroke-width: 1.0;"/><path d="M535.4731,70.0532 Q534.8921,70.3521 534.2529,70.5015 Q533.6138,70.6509 532.9082,70.6509 Q530.4014,70.6509 529.0815,68.999 Q527.7617,67.3472 527.7617,64.2261 Q527.7617,61.0967 529.0815,59.4448 Q530.4014,57.793 532.9082,57.793 Q533.6138,57.793 534.2612,57.9424 Q534.9087,58.0918 535.4731,58.3906 L535.4731,61.1133 Q534.8423,60.5322 534.2488,60.2625 Q533.6553,59.9927 533.0244,59.9927 Q531.6797,59.9927 530.9949,61.0593 Q530.3101,62.126 530.3101,64.2261 Q530.3101,66.3179 530.9949,67.3845 Q531.6797,68.4512 533.0244,68.4512 Q533.6553,68.4512 534.2488,68.1814 Q534.8423,67.9116 535.4731,67.3306 Z "/><text fill="#000000" font-family="sans-serif" font-size="12" lengthAdjust="spacingAndGlyphs" textLength="77" x="547" y="68.4453">LoadBalancer</text><line style="stroke: #A80036; stroke-width: 1.5;" x1="519" x2="626" y1="79.9102" y2="79.9102"/><text fill="#000000" font-family="sans-serif" font-size="11" lengthAdjust="spacingAndGlyphs" textLength="73" x="524" y="94.5449">getAvailable()</text><text fill="#000000" font-family="sans-serif" font-size="11" lengthAdjust="spacingAndGlyphs" textLength="27" x="524" y="107.5">run()</text><text fill="#000000" font-family="sans-serif" font-size="11" lengthAdjust="spacingAndGlyphs" textLength="63" x="524" y="120.4551">getWorker()</text><text fill="#000000" font-family="sans-serif" font-size="11" lengthAdjust="spacingAndGlyphs" textLength="84" x="524" y="133.4102">releaseWorker()</text><text fill="#000000" font-family="sans-serif" font-size="11" lengthAdjust="spacingAndGlyphs" textLength="66" x="524" y="146.3652">addWorker()</text><text fill="#000000" font-family="sans-serif" font-size="11" lengthAdjust="spacingAndGlyphs" textLength="75" x="524" y="159.3203">firingWorker()</text><!--class Autoscaler--><rect fill="#FEFECE" filter="url(#f1o12pg8pm1kfk)" height="78.8652" id="Autoscaler" style="stroke: #A80036; stroke-width: 1.5;" width="108" x="259.5" y="64.4102"/><ellipse cx="281.7" cy="80.4102" fill="#ADD1B2" rx="11" ry="11" style="stroke: #A80036; stroke-width: 1.0;"/><path d="M284.1731,86.5532 Q283.5921,86.8521 282.9529,87.0015 Q282.3138,87.1509 281.6082,87.1509 Q279.1014,87.1509 277.7815,85.499 Q276.4617,83.8472 276.4617,80.7261 Q276.4617,77.5967 277.7815,75.9448 Q279.1014,74.293 281.6082,74.293 Q282.3138,74.293 282.9612,74.4424 Q283.6087,74.5918 284.1731,74.8906 L284.1731,77.6133 Q283.5423,77.0322 282.9488,76.7625 Q282.3553,76.4927 281.7244,76.4927 Q280.3797,76.4927 279.6949,77.5593 Q279.0101,78.626 279.0101,80.7261 Q279.0101,82.8179 279.6949,83.8845 Q280.3797,84.9512 281.7244,84.9512 Q282.3553,84.9512 282.9488,84.6814 Q283.5423,84.4116 284.1731,83.8306 Z "/><text fill="#000000" font-family="sans-serif" font-size="12" lengthAdjust="spacingAndGlyphs" textLength="60" x="297.3" y="84.9453">Autoscaler</text><line style="stroke: #A80036; stroke-width: 1.5;" x1="260.5" x2="366.5" y1="96.4102" y2="96.4102"/><text fill="#000000" font-family="sans-serif" font-size="11" lengthAdjust="spacingAndGlyphs" textLength="27" x="265.5" y="111.0449">run()</text><text fill="#000000" font-family="sans-serif" font-size="11" lengthAdjust="spacingAndGlyphs" textLength="40" x="265.5" y="124">resize()</text><text fill="#000000" font-family="sans-serif" font-size="11" lengthAdjust="spacingAndGlyphs" textLength="96" x="265.5" y="136.9551">createInstance(id)</text><!--link Service to TicketSystem--><path d="M1027.01,111.6202 C1059.08,112.2602 1107.95,113.2502 1150.79,114.1102 " fill="none" id="Service-&gt;TicketSystem" style="stroke: #A80036; stroke-width: 1.0;"/><polygon fill="#A80036" points="1155.98,114.2202,1147.062,110.0405,1150.981,114.1199,1146.9016,118.0389,1155.98,114.2202" style="stroke: #A80036; stroke-width: 1.0;"/><text fill="#000000" font-family="sans-serif" font-size="13" lengthAdjust="spacingAndGlyphs" textLength="52" x="1058" y="109.4785">controls</text><polygon fill="#000000" points="1113,103.0654,1119,106.0654,1113,109.0654,1113,103.0654" style="stroke: #000000; stroke-width: 1.0;"/><text fill="#000000" font-family="sans-serif" font-size="13" lengthAdjust="spacingAndGlyphs" textLength="8" x="1140.0517" y="127.3278">1</text><!--link TicketSystem to PaymentProvider--><path d="M1326.2,109.0402 C1344.54,107.5502 1363.73,105.9802 1381.4,104.5402 " fill="none" id="TicketSystem-&gt;PaymentProvider" style="stroke: #A80036; stroke-width: 1.0;"/><polygon fill="#A80036" points="1386.83,104.1002,1377.5389,100.8327,1381.846,104.5,1378.1787,108.8071,1386.83,104.1002" style="stroke: #A80036; stroke-width: 1.0;"/><text fill="#000000" font-family="sans-serif" font-size="13" lengthAdjust="spacingAndGlyphs" textLength="8" x="1370.89" y="118.1589">3</text><!--link ServiceEndpoint to KeyVault--><path d="M375.25,218.9102 C427.33,218.9102 504.35,218.9102 571.5,218.9102 C571.5,218.9102 571.5,218.9102 1242,218.9102 C1298.58,218.9102 1363.18,209.7202 1405.29,202.4902 " fill="none" id="ServiceEndpoint-&gt;KeyVault" style="stroke: #A80036; stroke-width: 1.0;"/><polygon fill="#A80036" points="1410.31,201.6102,1400.7633,199.1891,1405.382,202.4554,1402.1157,207.074,1410.31,201.6102" style="stroke: #A80036; stroke-width: 1.0;"/><text fill="#000000" font-family="sans-serif" font-size="13" lengthAdjust="spacingAndGlyphs" textLength="8" x="1394.543" y="216.8216">1</text><!--link ServiceEndpoint to Crypto--><path d="M374.74,245.4502 C426.02,265.6202 502.18,289.9102 571.5,289.9102 C571.5,289.9102 571.5,289.9102 1242,289.9102 C1292.79,289.9102 1350.53,289.6102 1392.35,289.3402 " fill="none" id="ServiceEndpoint-&gt;Crypto" style="stroke: #A80036; stroke-width: 1.0;"/><polygon fill="#A80036" points="1397.37,289.3102,1388.3473,285.3616,1392.3701,289.3387,1388.393,293.3615,1397.37,289.3102" style="stroke: #A80036; stroke-width: 1.0;"/><text fill="#000000" font-family="sans-serif" font-size="13" lengthAdjust="spacingAndGlyphs" textLength="8" x="1381.5588" y="302.967">1</text><!--link Worker to Service--><path d="M831.17,109.2802 C866.38,109.6402 919.87,110.1902 954.88,110.5502 " fill="none" id="Worker-Service" style="stroke: #A80036; stroke-width: 1.0;"/><text fill="#000000" font-family="sans-serif" font-size="13" lengthAdjust="spacingAndGlyphs" textLength="49" x="862" y="106.4785">invokes</text><polygon fill="#000000" points="914,100.0654,920,103.0654,914,106.0654,914,100.0654" style="stroke: #000000; stroke-width: 1.0;"/><text fill="#000000" font-family="sans-serif" font-size="13" lengthAdjust="spacingAndGlyphs" textLength="6" x="838.98" y="123.4373">*</text><text fill="#000000" font-family="sans-serif" font-size="13" lengthAdjust="spacingAndGlyphs" textLength="8" x="938.9814" y="124.5592">1</text><!--link Autoscaler to LoadBalancer--><path d="M367.75,104.5302 C409.99,105.0202 468.99,105.7102 512.63,106.2202 " fill="none" id="Autoscaler-&gt;LoadBalancer" style="stroke: #A80036; stroke-width: 1.0;"/><polygon fill="#A80036" points="517.88,106.2802,508.9263,102.1776,512.8803,106.223,508.8349,110.177,517.88,106.2802" style="stroke: #A80036; stroke-width: 1.0;"/><text fill="#000000" font-family="sans-serif" font-size="13" lengthAdjust="spacingAndGlyphs" textLength="39" x="420.5" y="102.4785">scales</text><polygon fill="#000000" points="462.5,96.0654,468.5,99.0654,462.5,102.0654,462.5,96.0654" style="stroke: #000000; stroke-width: 1.0;"/><text fill="#000000" font-family="sans-serif" font-size="13" lengthAdjust="spacingAndGlyphs" textLength="8" x="502.0029" y="119.8106">1</text><!--link TicketSystem to KeyVault--><path d="M1326.14,142.7902 C1336.58,146.4002 1347.07,150.1502 1357,153.9102 C1373.01,159.9702 1390.31,167.1802 1405.62,173.7902 " fill="none" id="TicketSystem-&gt;KeyVault" style="stroke: #A80036; stroke-width: 1.0;"/><polygon fill="#A80036" points="1410.31,175.8302,1403.6595,168.5658,1405.7269,173.8313,1400.4614,175.8987,1410.31,175.8302" style="stroke: #A80036; stroke-width: 1.0;"/><text fill="#000000" font-family="sans-serif" font-size="13" lengthAdjust="spacingAndGlyphs" textLength="8" x="1394.543" y="186.6106">1</text><!--link TicketSystem to Crypto--><path d="M1301.01,166.0802 C1327.23,188.2302 1358.54,214.5102 1387,237.9102 C1392.77,242.6502 1398.86,247.6102 1404.89,252.4902 " fill="none" id="TicketSystem-&gt;Crypto" style="stroke: #A80036; stroke-width: 1.0;"/><polygon fill="#A80036" points="1409.06,255.8502,1404.5779,247.0803,1405.1724,252.7058,1399.5469,253.3004,1409.06,255.8502" style="stroke: #A80036; stroke-width: 1.0;"/><text fill="#000000" font-family="sans-serif" font-size="13" lengthAdjust="spacingAndGlyphs" textLength="8" x="1391.4818" y="245.0943">1</text><!--link LoadBalancer to Worker--><path d="M627.04,107.4002 C665.71,107.7502 717.15,108.2202 752.56,108.5402 " fill="none" id="LoadBalancer-&gt;Worker" style="stroke: #A80036; stroke-width: 1.0;"/><polygon fill="#A80036" points="757.67,108.5802,748.7046,104.5032,752.6702,108.5373,748.636,112.5029,757.67,108.5802" style="stroke: #A80036; stroke-width: 1.0;"/><text fill="#000000" font-family="sans-serif" font-size="13" lengthAdjust="spacingAndGlyphs" textLength="56" x="658" y="104.4785">manages</text><polygon fill="#000000" points="717,98.0654,723,101.0654,717,104.0654,717,98.0654" style="stroke: #000000; stroke-width: 1.0;"/><text fill="#000000" font-family="sans-serif" font-size="13" lengthAdjust="spacingAndGlyphs" textLength="6" x="744.0774" y="122.5535">*</text><!--link ServiceEndpoint to LoadBalancer--><path d="M375.08,192.5102 C416.8,174.3302 471.94,150.3002 513.17,132.3302 " fill="none" id="ServiceEndpoint-&gt;LoadBalancer" style="stroke: #A80036; stroke-width: 1.0;"/><polygon fill="#A80036" points="517.87,130.2802,508.0214,130.2116,513.2869,132.279,511.2195,137.5445,517.87,130.2802" style="stroke: #A80036; stroke-width: 1.0;"/><text fill="#000000" font-family="sans-serif" font-size="13" lengthAdjust="spacingAndGlyphs" textLength="68" x="406" y="143.4785">gives work</text><polygon fill="#000000" points="477,137.0654,483,140.0654,477,143.0654,477,137.0654" style="stroke: #000000; stroke-width: 1.0;"/><text fill="#000000" font-family="sans-serif" font-size="13" lengthAdjust="spacingAndGlyphs" textLength="8" x="501.9916" y="147.0356">1</text><!--link Client to ServiceEndpoint--><path d="M70.11,218.9102 C114.14,218.9102 195.54,218.9102 251.78,218.9102 " fill="none" id="Client-ServiceEndpoint" style="stroke: #A80036; stroke-width: 1.0;"/><polygon fill="#000000" points="108,209.0654,102,212.0654,108,215.0654,108,209.0654" style="stroke: #000000; stroke-width: 1.0;"/><text fill="#000000" font-family="sans-serif" font-size="13" lengthAdjust="spacingAndGlyphs" textLength="107" x="114" y="215.4785">handles requests</text><text fill="#000000" font-family="sans-serif" font-size="13" lengthAdjust="spacingAndGlyphs" textLength="6" x="77.7903" y="233.158">*</text><text fill="#000000" font-family="sans-serif" font-size="13" lengthAdjust="spacingAndGlyphs" textLength="8" x="236.1811" y="232.3663">1</text><!--
@startuml "Class diagram"
title = Class diagram

left to right direction

together {
    class TicketSystem {
        Int maxTicketCount
        register(name, password)
        login(name, password, token)
        order(count)
    }

    class KeyVault {
        getKey()
    }

    class Crypto {
        encrypt(key, data)
        decrypt(key, data)
    }

    class PaymentProvider {
        balance(card)
        pay(card)
    }
}

class Service {
    execute()
}

class Worker {
    process()
    getDC()
}
class Client {
    run()
}

class ServiceEndpoint {
    invokeService()
}


class LoadBalancer {
    getAvailable()
    run()
    getWorker()
    releaseWorker()
    addWorker()
    firingWorker()
}

class Autoscaler {
    run()
    resize()
    createInstance(id)
}

Service - -> "1" TicketSystem: controls >
TicketSystem - -> "3" PaymentProvider
ServiceEndpoint - -> "1" KeyVault
ServiceEndpoint - -> "1" Crypto
Worker "*" - - "1" Service : invokes >
Autoscaler - -> "1" LoadBalancer : scales >
TicketSystem - -> "1" KeyVault
TicketSystem - -> "1" Crypto
LoadBalancer - -> "*" Worker : manages >
ServiceEndpoint - -> "1" LoadBalancer: gives work >
Client "*" - - "1" ServiceEndpoint: < handles requests

hide empty members
@enduml

PlantUML version 1.2019.09(Mon Aug 26 18:19:51 CEST 2019)
(GPL source distribution)
Java Runtime: Java(TM) SE Runtime Environment
JVM: Java HotSpot(TM) 64-Bit Server VM
Java Version: 1.8.0_221-b11
Operating System: Mac OS X
OS Version: 10.15.1
Default Encoding: UTF-8
Language: en
Country: CZ
--></g></svg>