<?xml version="1.0" encoding="UTF-8" standalone="no"?><svg xmlns="http://www.w3.org/2000/svg" xmlns:xlink="http://www.w3.org/1999/xlink" contentScriptType="application/ecmascript" contentStyleType="text/css" height="356px" preserveAspectRatio="none" style="width:1475px;height:356px;" version="1.1" viewBox="0 0 1475 356" width="1475px" zoomAndPan="magnify"><defs><filter height="300%" id="f11ylzc0aa7kj9" width="300%" x="-1" y="-1"><feGaussianBlur result="blurOut" stdDeviation="2.0"/><feColorMatrix in="blurOut" result="blurOut2" type="matrix" values="0 0 0 0 0 0 0 0 0 0 0 0 0 0 0 0 0 0 .4 0"/><feOffset dx="4.0" dy="4.0" in="blurOut2" result="blurOut3"/><feBlend in="SourceGraphic" in2="blurOut3" mode="normal"/></filter></defs><g><text fill="#000000" font-family="sans-serif" font-size="22" font-weight="bold" lengthAdjust="spacingAndGlyphs" textLength="161" x="676.5" y="21.2695">Class diagram</text><!--class TicketSystem--><rect fill="#FEFECE" filter="url(#f11ylzc0aa7kj9)" height="86.8652" id="TicketSystem" style="stroke: #A80036; stroke-width: 1.5;" width="118" x="1156" y="91.4102"/><ellipse cx="1175.95" cy="107.4102" fill="#ADD1B2" rx="11" ry="11" style="stroke: #A80036; stroke-width: 1.0;"/><path d="M1178.4231,113.5532 Q1177.8421,113.8521 1177.2029,114.0015 Q1176.5638,114.1509 1175.8582,114.1509 Q1173.3514,114.1509 1172.0315,112.499 Q1170.7117,110.8472 1170.7117,107.7261 Q1170.7117,104.5967 1172.0315,102.9448 Q1173.3514,101.293 1175.8582,101.293 Q1176.5638,101.293 1177.2112,101.4424 Q1177.8587,101.5918 1178.4231,101.8906 L1178.4231,104.6133 Q1177.7923,104.0322 1177.1988,103.7625 Q1176.6053,103.4927 1175.9744,103.4927 Q1174.6297,103.4927 1173.9449,104.5593 Q1173.2601,105.626 1173.2601,107.7261 Q1173.2601,109.8179 1173.9449,110.8845 Q1174.6297,111.9512 1175.9744,111.9512 Q1176.6053,111.9512 1177.1988,111.6814 Q1177.7923,111.4116 1178.4231,110.8306 Z "/><text fill="#000000" font-family="sans-serif" font-size="12" lengthAdjust="spacingAndGlyphs" textLength="75" x="1191.05" y="111.9453">TicketSystem</text><line style="stroke: #A80036; stroke-width: 1.5;" x1="1157" x2="1273" y1="123.4102" y2="123.4102"/><line style="stroke: #A80036; stroke-width: 1.5;" x1="1157" x2="1273" y1="131.4102" y2="131.4102"/><text fill="#000000" font-family="sans-serif" font-size="11" lengthAdjust="spacingAndGlyphs" textLength="91" x="1162" y="146.0449">register(request)</text><text fill="#000000" font-family="sans-serif" font-size="11" lengthAdjust="spacingAndGlyphs" textLength="76" x="1162" y="159">login(request)</text><text fill="#000000" font-family="sans-serif" font-size="11" lengthAdjust="spacingAndGlyphs" textLength="106" x="1162" y="171.9551">order(ticketsCount)</text><!--class KeyVault--><rect fill="#FEFECE" filter="url(#f11ylzc0aa7kj9)" height="60.9551" id="KeyVault" style="stroke: #A80036; stroke-width: 1.5;" width="82" x="1358.5" y="175.4102"/><ellipse cx="1373.5" cy="191.4102" fill="#ADD1B2" rx="11" ry="11" style="stroke: #A80036; stroke-width: 1.0;"/><path d="M1375.9731,197.5532 Q1375.3921,197.8521 1374.7529,198.0015 Q1374.1138,198.1509 1373.4082,198.1509 Q1370.9014,198.1509 1369.5815,196.499 Q1368.2617,194.8472 1368.2617,191.7261 Q1368.2617,188.5967 1369.5815,186.9448 Q1370.9014,185.293 1373.4082,185.293 Q1374.1138,185.293 1374.7612,185.4424 Q1375.4087,185.5918 1375.9731,185.8906 L1375.9731,188.6133 Q1375.3423,188.0322 1374.7488,187.7625 Q1374.1553,187.4927 1373.5244,187.4927 Q1372.1797,187.4927 1371.4949,188.5593 Q1370.8101,189.626 1370.8101,191.7261 Q1370.8101,193.8179 1371.4949,194.8845 Q1372.1797,195.9512 1373.5244,195.9512 Q1374.1553,195.9512 1374.7488,195.6814 Q1375.3423,195.4116 1375.9731,194.8306 Z "/><text fill="#000000" font-family="sans-serif" font-size="12" lengthAdjust="spacingAndGlyphs" textLength="50" x="1387.5" y="195.9453">KeyVault</text><line style="stroke: #A80036; stroke-width: 1.5;" x1="1359.5" x2="1439.5" y1="207.4102" y2="207.4102"/><line style="stroke: #A80036; stroke-width: 1.5;" x1="1359.5" x2="1439.5" y1="215.4102" y2="215.4102"/><text fill="#000000" font-family="sans-serif" font-size="11" lengthAdjust="spacingAndGlyphs" textLength="44" x="1364.5" y="230.0449">getKey()</text><!--class Crypto--><rect fill="#FEFECE" filter="url(#f11ylzc0aa7kj9)" height="73.9102" id="Crypto" style="stroke: #A80036; stroke-width: 1.5;" width="79" x="1360" y="271.9102"/><ellipse cx="1379.05" cy="287.9102" fill="#ADD1B2" rx="11" ry="11" style="stroke: #A80036; stroke-width: 1.0;"/><path d="M1381.5231,294.0532 Q1380.9421,294.3521 1380.3029,294.5015 Q1379.6638,294.6509 1378.9582,294.6509 Q1376.4514,294.6509 1375.1315,292.999 Q1373.8117,291.3472 1373.8117,288.2261 Q1373.8117,285.0967 1375.1315,283.4448 Q1376.4514,281.793 1378.9582,281.793 Q1379.6638,281.793 1380.3112,281.9424 Q1380.9587,282.0918 1381.5231,282.3906 L1381.5231,285.1133 Q1380.8923,284.5322 1380.2988,284.2625 Q1379.7053,283.9927 1379.0744,283.9927 Q1377.7297,283.9927 1377.0449,285.0593 Q1376.3601,286.126 1376.3601,288.2261 Q1376.3601,290.3179 1377.0449,291.3845 Q1377.7297,292.4512 1379.0744,292.4512 Q1379.7053,292.4512 1380.2988,292.1814 Q1380.8923,291.9116 1381.5231,291.3306 Z "/><text fill="#000000" font-family="sans-serif" font-size="12" lengthAdjust="spacingAndGlyphs" textLength="38" x="1393.95" y="292.4453">Crypto</text><line style="stroke: #A80036; stroke-width: 1.5;" x1="1361" x2="1438" y1="303.9102" y2="303.9102"/><line style="stroke: #A80036; stroke-width: 1.5;" x1="1361" x2="1438" y1="311.9102" y2="311.9102"/><text fill="#000000" font-family="sans-serif" font-size="11" lengthAdjust="spacingAndGlyphs" textLength="67" x="1366" y="326.5449">encrypt(key)</text><text fill="#000000" font-family="sans-serif" font-size="11" lengthAdjust="spacingAndGlyphs" textLength="67" x="1366" y="339.5">decrypt(key)</text><!--class PaymentProvider--><rect fill="#FEFECE" filter="url(#f11ylzc0aa7kj9)" height="73.9102" id="PaymentProvider" style="stroke: #A80036; stroke-width: 1.5;" width="129" x="1335" y="65.9102"/><ellipse cx="1350" cy="81.9102" fill="#ADD1B2" rx="11" ry="11" style="stroke: #A80036; stroke-width: 1.0;"/><path d="M1352.4731,88.0532 Q1351.8921,88.3521 1351.2529,88.5015 Q1350.6138,88.6509 1349.9082,88.6509 Q1347.4014,88.6509 1346.0815,86.999 Q1344.7617,85.3472 1344.7617,82.2261 Q1344.7617,79.0967 1346.0815,77.4448 Q1347.4014,75.793 1349.9082,75.793 Q1350.6138,75.793 1351.2612,75.9424 Q1351.9087,76.0918 1352.4731,76.3906 L1352.4731,79.1133 Q1351.8423,78.5322 1351.2488,78.2625 Q1350.6553,77.9927 1350.0244,77.9927 Q1348.6797,77.9927 1347.9949,79.0593 Q1347.3101,80.126 1347.3101,82.2261 Q1347.3101,84.3179 1347.9949,85.3845 Q1348.6797,86.4512 1350.0244,86.4512 Q1350.6553,86.4512 1351.2488,86.1814 Q1351.8423,85.9116 1352.4731,85.3306 Z "/><text fill="#000000" font-family="sans-serif" font-size="12" lengthAdjust="spacingAndGlyphs" textLength="97" x="1364" y="86.4453">PaymentProvider</text><line style="stroke: #A80036; stroke-width: 1.5;" x1="1336" x2="1463" y1="97.9102" y2="97.9102"/><line style="stroke: #A80036; stroke-width: 1.5;" x1="1336" x2="1463" y1="105.9102" y2="105.9102"/><text fill="#000000" font-family="sans-serif" font-size="11" lengthAdjust="spacingAndGlyphs" textLength="73" x="1341" y="120.5449">balance(card)</text><text fill="#000000" font-family="sans-serif" font-size="11" lengthAdjust="spacingAndGlyphs" textLength="51" x="1341" y="133.5">pay(card)</text><!--class Service--><rect fill="#FEFECE" filter="url(#f11ylzc0aa7kj9)" height="60.9551" id="Service" style="stroke: #A80036; stroke-width: 1.5;" width="72" x="955" y="100.4102"/><ellipse cx="970" cy="116.4102" fill="#ADD1B2" rx="11" ry="11" style="stroke: #A80036; stroke-width: 1.0;"/><path d="M972.4731,122.5532 Q971.8921,122.8521 971.2529,123.0015 Q970.6138,123.1509 969.9082,123.1509 Q967.4014,123.1509 966.0815,121.499 Q964.7617,119.8472 964.7617,116.7261 Q964.7617,113.5967 966.0815,111.9448 Q967.4014,110.293 969.9082,110.293 Q970.6138,110.293 971.2612,110.4424 Q971.9087,110.5918 972.4731,110.8906 L972.4731,113.6133 Q971.8423,113.0322 971.2488,112.7625 Q970.6553,112.4927 970.0244,112.4927 Q968.6797,112.4927 967.9949,113.5593 Q967.3101,114.626 967.3101,116.7261 Q967.3101,118.8179 967.9949,119.8845 Q968.6797,120.9512 970.0244,120.9512 Q970.6553,120.9512 971.2488,120.6814 Q971.8423,120.4116 972.4731,119.8306 Z "/><text fill="#000000" font-family="sans-serif" font-size="12" lengthAdjust="spacingAndGlyphs" textLength="40" x="984" y="120.9453">Service</text><line style="stroke: #A80036; stroke-width: 1.5;" x1="956" x2="1026" y1="132.4102" y2="132.4102"/><line style="stroke: #A80036; stroke-width: 1.5;" x1="956" x2="1026" y1="140.4102" y2="140.4102"/><text fill="#000000" font-family="sans-serif" font-size="11" lengthAdjust="spacingAndGlyphs" textLength="50" x="961" y="155.0449">execute()</text><!--class Worker--><rect fill="#FEFECE" filter="url(#f11ylzc0aa7kj9)" height="73.9102" id="Worker" style="stroke: #A80036; stroke-width: 1.5;" width="73" x="758" y="91.9102"/><ellipse cx="773" cy="107.9102" fill="#ADD1B2" rx="11" ry="11" style="stroke: #A80036; stroke-width: 1.0;"/><path d="M775.4731,114.0532 Q774.8921,114.3521 774.2529,114.5015 Q773.6138,114.6509 772.9082,114.6509 Q770.4014,114.6509 769.0815,112.999 Q767.7617,111.3472 767.7617,108.2261 Q767.7617,105.0967 769.0815,103.4448 Q770.4014,101.793 772.9082,101.793 Q773.6138,101.793 774.2612,101.9424 Q774.9087,102.0918 775.4731,102.3906 L775.4731,105.1133 Q774.8423,104.5322 774.2488,104.2625 Q773.6553,103.9927 773.0244,103.9927 Q771.6797,103.9927 770.9949,105.0593 Q770.3101,106.126 770.3101,108.2261 Q770.3101,110.3179 770.9949,111.3845 Q771.6797,112.4512 773.0244,112.4512 Q773.6553,112.4512 774.2488,112.1814 Q774.8423,111.9116 775.4731,111.3306 Z "/><text fill="#000000" font-family="sans-serif" font-size="12" lengthAdjust="spacingAndGlyphs" textLength="41" x="787" y="112.4453">Worker</text><line style="stroke: #A80036; stroke-width: 1.5;" x1="759" x2="830" y1="123.9102" y2="123.9102"/><line style="stroke: #A80036; stroke-width: 1.5;" x1="759" x2="830" y1="131.9102" y2="131.9102"/><text fill="#000000" font-family="sans-serif" font-size="11" lengthAdjust="spacingAndGlyphs" textLength="51" x="764" y="146.5449">process()</text><text fill="#000000" font-family="sans-serif" font-size="11" lengthAdjust="spacingAndGlyphs" textLength="41" x="764" y="159.5">getDC()</text><!--class Client--><rect fill="#FEFECE" filter="url(#f11ylzc0aa7kj9)" height="60.9551" id="Client" style="stroke: #A80036; stroke-width: 1.5;" width="64" x="6" y="207.4102"/><ellipse cx="21" cy="223.4102" fill="#ADD1B2" rx="11" ry="11" style="stroke: #A80036; stroke-width: 1.0;"/><path d="M23.4731,229.5532 Q22.8921,229.8521 22.2529,230.0015 Q21.6138,230.1509 20.9082,230.1509 Q18.4014,230.1509 17.0815,228.499 Q15.7617,226.8472 15.7617,223.7261 Q15.7617,220.5967 17.0815,218.9448 Q18.4014,217.293 20.9082,217.293 Q21.6138,217.293 22.2612,217.4424 Q22.9087,217.5918 23.4731,217.8906 L23.4731,220.6133 Q22.8423,220.0322 22.2488,219.7625 Q21.6553,219.4927 21.0244,219.4927 Q19.6797,219.4927 18.9949,220.5593 Q18.3101,221.626 18.3101,223.7261 Q18.3101,225.8179 18.9949,226.8845 Q19.6797,227.9512 21.0244,227.9512 Q21.6553,227.9512 22.2488,227.6814 Q22.8423,227.4116 23.4731,226.8306 Z "/><text fill="#000000" font-family="sans-serif" font-size="12" lengthAdjust="spacingAndGlyphs" textLength="32" x="35" y="227.9453">Client</text><line style="stroke: #A80036; stroke-width: 1.5;" x1="7" x2="69" y1="239.4102" y2="239.4102"/><line style="stroke: #A80036; stroke-width: 1.5;" x1="7" x2="69" y1="247.4102" y2="247.4102"/><text fill="#000000" font-family="sans-serif" font-size="11" lengthAdjust="spacingAndGlyphs" textLength="27" x="12" y="262.0449">run()</text><!--class ServiceEndpoint--><rect fill="#FEFECE" filter="url(#f11ylzc0aa7kj9)" height="60.9551" id="ServiceEndpoint" style="stroke: #A80036; stroke-width: 1.5;" width="123" x="252" y="207.4102"/><ellipse cx="267" cy="223.4102" fill="#ADD1B2" rx="11" ry="11" style="stroke: #A80036; stroke-width: 1.0;"/><path d="M269.4731,229.5532 Q268.8921,229.8521 268.2529,230.0015 Q267.6138,230.1509 266.9082,230.1509 Q264.4014,230.1509 263.0815,228.499 Q261.7617,226.8472 261.7617,223.7261 Q261.7617,220.5967 263.0815,218.9448 Q264.4014,217.293 266.9082,217.293 Q267.6138,217.293 268.2612,217.4424 Q268.9087,217.5918 269.4731,217.8906 L269.4731,220.6133 Q268.8423,220.0322 268.2488,219.7625 Q267.6553,219.4927 267.0244,219.4927 Q265.6797,219.4927 264.9949,220.5593 Q264.3101,221.626 264.3101,223.7261 Q264.3101,225.8179 264.9949,226.8845 Q265.6797,227.9512 267.0244,227.9512 Q267.6553,227.9512 268.2488,227.6814 Q268.8423,227.4116 269.4731,226.8306 Z "/><text fill="#000000" font-family="sans-serif" font-size="12" lengthAdjust="spacingAndGlyphs" textLength="91" x="281" y="227.9453">ServiceEndpoint</text><line style="stroke: #A80036; stroke-width: 1.5;" x1="253" x2="374" y1="239.4102" y2="239.4102"/><line style="stroke: #A80036; stroke-width: 1.5;" x1="253" x2="374" y1="247.4102" y2="247.4102"/><text fill="#000000" font-family="sans-serif" font-size="11" lengthAdjust="spacingAndGlyphs" textLength="81" x="258" y="262.0449">invokeService()</text><!--class LoadBalancer--><rect fill="#FEFECE" filter="url(#f11ylzc0aa7kj9)" height="112.7754" id="LoadBalancer" style="stroke: #A80036; stroke-width: 1.5;" width="109" x="518" y="71.4102"/><ellipse cx="533" cy="87.4102" fill="#ADD1B2" rx="11" ry="11" style="stroke: #A80036; stroke-width: 1.0;"/><path d="M535.4731,93.5532 Q534.8921,93.8521 534.2529,94.0015 Q533.6138,94.1509 532.9082,94.1509 Q530.4014,94.1509 529.0815,92.499 Q527.7617,90.8472 527.7617,87.7261 Q527.7617,84.5967 529.0815,82.9448 Q530.4014,81.293 532.9082,81.293 Q533.6138,81.293 534.2612,81.4424 Q534.9087,81.5918 535.4731,81.8906 L535.4731,84.6133 Q534.8423,84.0322 534.2488,83.7625 Q533.6553,83.4927 533.0244,83.4927 Q531.6797,83.4927 530.9949,84.5593 Q530.3101,85.626 530.3101,87.7261 Q530.3101,89.8179 530.9949,90.8845 Q531.6797,91.9512 533.0244,91.9512 Q533.6553,91.9512 534.2488,91.6814 Q534.8423,91.4116 535.4731,90.8306 Z "/><text fill="#000000" font-family="sans-serif" font-size="12" lengthAdjust="spacingAndGlyphs" textLength="77" x="547" y="91.9453">LoadBalancer</text><line style="stroke: #A80036; stroke-width: 1.5;" x1="519" x2="626" y1="103.4102" y2="103.4102"/><line style="stroke: #A80036; stroke-width: 1.5;" x1="519" x2="626" y1="111.4102" y2="111.4102"/><text fill="#000000" font-family="sans-serif" font-size="11" lengthAdjust="spacingAndGlyphs" textLength="27" x="524" y="126.0449">run()</text><text fill="#000000" font-family="sans-serif" font-size="11" lengthAdjust="spacingAndGlyphs" textLength="63" x="524" y="139">getWorker()</text><text fill="#000000" font-family="sans-serif" font-size="11" lengthAdjust="spacingAndGlyphs" textLength="84" x="524" y="151.9551">releaseWorker()</text><text fill="#000000" font-family="sans-serif" font-size="11" lengthAdjust="spacingAndGlyphs" textLength="66" x="524" y="164.9102">addWorker()</text><text fill="#000000" font-family="sans-serif" font-size="11" lengthAdjust="spacingAndGlyphs" textLength="75" x="524" y="177.8652">firingWorker()</text><!--class Autoscaler--><rect fill="#FEFECE" filter="url(#f11ylzc0aa7kj9)" height="86.8652" id="Autoscaler" style="stroke: #A80036; stroke-width: 1.5;" width="108" x="259.5" y="79.4102"/><ellipse cx="281.7" cy="95.4102" fill="#ADD1B2" rx="11" ry="11" style="stroke: #A80036; stroke-width: 1.0;"/><path d="M284.1731,101.5532 Q283.5921,101.8521 282.9529,102.0015 Q282.3138,102.1509 281.6082,102.1509 Q279.1014,102.1509 277.7815,100.499 Q276.4617,98.8472 276.4617,95.7261 Q276.4617,92.5967 277.7815,90.9448 Q279.1014,89.293 281.6082,89.293 Q282.3138,89.293 282.9612,89.4424 Q283.6087,89.5918 284.1731,89.8906 L284.1731,92.6133 Q283.5423,92.0322 282.9488,91.7625 Q282.3553,91.4927 281.7244,91.4927 Q280.3797,91.4927 279.6949,92.5593 Q279.0101,93.626 279.0101,95.7261 Q279.0101,97.8179 279.6949,98.8845 Q280.3797,99.9512 281.7244,99.9512 Q282.3553,99.9512 282.9488,99.6814 Q283.5423,99.4116 284.1731,98.8306 Z "/><text fill="#000000" font-family="sans-serif" font-size="12" lengthAdjust="spacingAndGlyphs" textLength="60" x="297.3" y="99.9453">Autoscaler</text><line style="stroke: #A80036; stroke-width: 1.5;" x1="260.5" x2="366.5" y1="111.4102" y2="111.4102"/><line style="stroke: #A80036; stroke-width: 1.5;" x1="260.5" x2="366.5" y1="119.4102" y2="119.4102"/><text fill="#000000" font-family="sans-serif" font-size="11" lengthAdjust="spacingAndGlyphs" textLength="27" x="265.5" y="134.0449">run()</text><text fill="#000000" font-family="sans-serif" font-size="11" lengthAdjust="spacingAndGlyphs" textLength="40" x="265.5" y="147">resize()</text><text fill="#000000" font-family="sans-serif" font-size="11" lengthAdjust="spacingAndGlyphs" textLength="96" x="265.5" y="159.9551">createInstance(id)</text><!--link Service to TicketSystem--><path d="M1027.18,131.5402 C1060.17,132.1402 1110.29,133.0402 1150.32,133.7602 " fill="none" id="Service-&gt;TicketSystem" style="stroke: #A80036; stroke-width: 1.0;"/><polygon fill="#A80036" points="1155.64,133.8602,1146.7218,129.681,1150.641,133.7602,1146.5618,137.6794,1155.64,133.8602" style="stroke: #A80036; stroke-width: 1.0;"/><text fill="#000000" font-family="sans-serif" font-size="13" lengthAdjust="spacingAndGlyphs" textLength="52" x="1058" y="129.4785">controls</text><polygon fill="#000000" points="1113,123.0654,1119,126.0654,1113,129.0654,1113,123.0654" style="stroke: #000000; stroke-width: 1.0;"/><text fill="#000000" font-family="sans-serif" font-size="13" lengthAdjust="spacingAndGlyphs" textLength="8" x="1139.918" y="147.2417">1</text><!--link TicketSystem to PaymentProvider--><path d="M1274.25,124.7002 C1291.89,121.6002 1311.43,118.1802 1329.69,114.9802 " fill="none" id="TicketSystem-&gt;PaymentProvider" style="stroke: #A80036; stroke-width: 1.0;"/><polygon fill="#A80036" points="1334.81,114.0802,1325.2577,111.6814,1329.8839,114.9369,1326.6285,119.5631,1334.81,114.0802" style="stroke: #A80036; stroke-width: 1.0;"/><text fill="#000000" font-family="sans-serif" font-size="13" lengthAdjust="spacingAndGlyphs" textLength="8" x="1318.8677" y="128.8304">3</text><!--link ServiceEndpoint to KeyVault--><path d="M375.25,237.9102 C427.33,237.9102 504.35,237.9102 571.5,237.9102 C571.5,237.9102 571.5,237.9102 1216,237.9102 C1263.22,237.9102 1316.28,227.3902 1352.97,218.4102 " fill="none" id="ServiceEndpoint-&gt;KeyVault" style="stroke: #A80036; stroke-width: 1.0;"/><polygon fill="#A80036" points="1358.26,217.1002,1348.5621,215.3822,1353.4068,218.3027,1350.4862,223.1474,1358.26,217.1002" style="stroke: #A80036; stroke-width: 1.0;"/><text fill="#000000" font-family="sans-serif" font-size="13" lengthAdjust="spacingAndGlyphs" textLength="8" x="1342.4844" y="232.9114">1</text><!--link ServiceEndpoint to Crypto--><path d="M375.26,264.6502 C426.53,284.7802 502.41,308.9102 571.5,308.9102 C571.5,308.9102 571.5,308.9102 1216,308.9102 C1263.26,308.9102 1317.41,308.9102 1354.37,308.9102 " fill="none" id="ServiceEndpoint-&gt;Crypto" style="stroke: #A80036; stroke-width: 1.0;"/><polygon fill="#A80036" points="1359.69,308.9102,1350.69,304.9102,1354.69,308.9102,1350.69,312.9102,1359.69,308.9102" style="stroke: #A80036; stroke-width: 1.0;"/><text fill="#000000" font-family="sans-serif" font-size="13" lengthAdjust="spacingAndGlyphs" textLength="8" x="1343.8863" y="322.8501">1</text><!--link Worker to Service--><path d="M831.17,129.2802 C866.38,129.6402 919.87,130.1902 954.88,130.5502 " fill="none" id="Worker-Service" style="stroke: #A80036; stroke-width: 1.0;"/><text fill="#000000" font-family="sans-serif" font-size="13" lengthAdjust="spacingAndGlyphs" textLength="49" x="862" y="126.4785">invokes</text><polygon fill="#000000" points="914,120.0654,920,123.0654,914,126.0654,914,120.0654" style="stroke: #000000; stroke-width: 1.0;"/><text fill="#000000" font-family="sans-serif" font-size="13" lengthAdjust="spacingAndGlyphs" textLength="6" x="838.98" y="143.4373">*</text><text fill="#000000" font-family="sans-serif" font-size="13" lengthAdjust="spacingAndGlyphs" textLength="8" x="938.9814" y="144.5592">1</text><!--link Autoscaler to LoadBalancer--><path d="M367.75,123.9502 C409.99,124.7702 468.99,125.9202 512.63,126.7602 " fill="none" id="Autoscaler-&gt;LoadBalancer" style="stroke: #A80036; stroke-width: 1.0;"/><polygon fill="#A80036" points="517.88,126.8702,508.9618,122.691,512.881,126.7702,508.8018,130.6894,517.88,126.8702" style="stroke: #A80036; stroke-width: 1.0;"/><text fill="#000000" font-family="sans-serif" font-size="13" lengthAdjust="spacingAndGlyphs" textLength="39" x="420.5" y="121.4785">scales</text><polygon fill="#000000" points="462.5,115.0654,468.5,118.0654,462.5,121.0654,462.5,115.0654" style="stroke: #000000; stroke-width: 1.0;"/><text fill="#000000" font-family="sans-serif" font-size="13" lengthAdjust="spacingAndGlyphs" textLength="8" x="502.0029" y="140.3425">1</text><!--link TicketSystem to KeyVault--><path d="M1274.25,157.5702 C1299.97,167.5802 1329.73,179.1602 1353.68,188.4702 " fill="none" id="TicketSystem-&gt;KeyVault" style="stroke: #A80036; stroke-width: 1.0;"/><polygon fill="#A80036" points="1358.39,190.3002,1351.4559,183.306,1353.7311,188.4852,1348.5519,190.7603,1358.39,190.3002" style="stroke: #A80036; stroke-width: 1.0;"/><text fill="#000000" font-family="sans-serif" font-size="13" lengthAdjust="spacingAndGlyphs" textLength="8" x="1342.6367" y="201.5052">1</text><!--link TicketSystem to Crypto--><path d="M1258.23,178.6302 C1280.66,201.4602 1308.91,229.6202 1335,253.9102 C1341.67,260.1102 1348.86,266.5602 1355.92,272.7702 " fill="none" id="TicketSystem-&gt;Crypto" style="stroke: #A80036; stroke-width: 1.0;"/><polygon fill="#A80036" points="1359.83,276.1902,1355.7076,267.2455,1356.0733,272.8906,1350.4283,273.2562,1359.83,276.1902" style="stroke: #A80036; stroke-width: 1.0;"/><text fill="#000000" font-family="sans-serif" font-size="13" lengthAdjust="spacingAndGlyphs" textLength="8" x="1344.0513" y="284.3019">1</text><!--link LoadBalancer to Worker--><path d="M627.04,128.1502 C665.71,128.3302 717.15,128.5602 752.56,128.7202 " fill="none" id="LoadBalancer-&gt;Worker" style="stroke: #A80036; stroke-width: 1.0;"/><polygon fill="#A80036" points="757.67,128.7502,748.693,124.6988,752.6701,128.7216,748.6473,132.6987,757.67,128.7502" style="stroke: #A80036; stroke-width: 1.0;"/><text fill="#000000" font-family="sans-serif" font-size="13" lengthAdjust="spacingAndGlyphs" textLength="56" x="658" y="125.4785">manages</text><polygon fill="#000000" points="717,119.0654,723,122.0654,717,125.0654,717,119.0654" style="stroke: #000000; stroke-width: 1.0;"/><text fill="#000000" font-family="sans-serif" font-size="13" lengthAdjust="spacingAndGlyphs" textLength="6" x="744.0774" y="142.7559">*</text><!--link ServiceEndpoint to LoadBalancer--><path d="M375.08,211.9802 C416.8,194.1202 471.94,170.5202 513.17,152.8802 " fill="none" id="ServiceEndpoint-&gt;LoadBalancer" style="stroke: #A80036; stroke-width: 1.0;"/><polygon fill="#A80036" points="517.87,150.8602,508.0224,150.703,513.2691,152.8177,511.1544,158.0644,517.87,150.8602" style="stroke: #A80036; stroke-width: 1.0;"/><text fill="#000000" font-family="sans-serif" font-size="13" lengthAdjust="spacingAndGlyphs" textLength="68" x="406" y="163.4785">gives work</text><polygon fill="#000000" points="477,157.0654,483,160.0654,477,163.0654,477,157.0654" style="stroke: #000000; stroke-width: 1.0;"/><text fill="#000000" font-family="sans-serif" font-size="13" lengthAdjust="spacingAndGlyphs" textLength="8" x="501.9916" y="167.5562">1</text><!--link Client to ServiceEndpoint--><path d="M70.11,237.9102 C114.14,237.9102 195.54,237.9102 251.78,237.9102 " fill="none" id="Client-ServiceEndpoint" style="stroke: #A80036; stroke-width: 1.0;"/><polygon fill="#000000" points="108,228.0654,102,231.0654,108,234.0654,108,228.0654" style="stroke: #000000; stroke-width: 1.0;"/><text fill="#000000" font-family="sans-serif" font-size="13" lengthAdjust="spacingAndGlyphs" textLength="107" x="114" y="234.4785">handles requests</text><text fill="#000000" font-family="sans-serif" font-size="13" lengthAdjust="spacingAndGlyphs" textLength="6" x="77.7903" y="252.158">*</text><text fill="#000000" font-family="sans-serif" font-size="13" lengthAdjust="spacingAndGlyphs" textLength="8" x="236.1811" y="251.3663">1</text><!--
@startuml "Class diagram"
title = Class diagram

left to right direction

together {
    class TicketSystem {
        register(request)
        login(request)
        order(ticketsCount)
    }

    class KeyVault {
        getKey()
    }

    class Crypto {
        encrypt(key)
        decrypt(key)
    }

    class PaymentProvider {
        balance(card)
        pay(card)
    }
}

class Service {
    execute()
}

class Worker {
    process()
    getDC()
}
class Client {
    run()
}

class ServiceEndpoint {
    invokeService()
}


class LoadBalancer {
    run()
    getWorker()
    releaseWorker()
    addWorker()
    firingWorker()
}

class Autoscaler {
    run()
    resize()
    createInstance(id)
}

Service - -> "1" TicketSystem: controls >
TicketSystem - -> "3" PaymentProvider
ServiceEndpoint - -> "1" KeyVault
ServiceEndpoint - -> "1" Crypto
Worker "*" - - "1" Service : invokes >
Autoscaler - -> "1" LoadBalancer : scales >
TicketSystem - -> "1" KeyVault
TicketSystem - -> "1" Crypto
LoadBalancer - -> "*" Worker : manages >
ServiceEndpoint - -> "1" LoadBalancer: gives work >
Client "*" - - "1" ServiceEndpoint: < handles requests

@enduml

PlantUML version 1.2019.09(Mon Aug 26 18:19:51 CEST 2019)
(GPL source distribution)
Java Runtime: Java(TM) SE Runtime Environment
JVM: Java HotSpot(TM) 64-Bit Server VM
Java Version: 1.8.0_221-b11
Operating System: Mac OS X
OS Version: 10.15.1
Default Encoding: UTF-8
Language: en
Country: CZ
--></g></svg>