<?xml version="1.0" encoding="UTF-8" standalone="no"?><svg xmlns="http://www.w3.org/2000/svg" xmlns:xlink="http://www.w3.org/1999/xlink" contentScriptType="application/ecmascript" contentStyleType="text/css" height="330px" preserveAspectRatio="none" style="width:1475px;height:330px;" version="1.1" viewBox="0 0 1475 330" width="1475px" zoomAndPan="magnify"><defs><filter height="300%" id="fjioa38f84i8n" width="300%" x="-1" y="-1"><feGaussianBlur result="blurOut" stdDeviation="2.0"/><feColorMatrix in="blurOut" result="blurOut2" type="matrix" values="0 0 0 0 0 0 0 0 0 0 0 0 0 0 0 0 0 0 .4 0"/><feOffset dx="4.0" dy="4.0" in="blurOut2" result="blurOut3"/><feBlend in="SourceGraphic" in2="blurOut3" mode="normal"/></filter></defs><g><!--class TicketSystem--><rect fill="#FEFECE" filter="url(#fjioa38f84i8n)" height="86.8652" id="TicketSystem" style="stroke: #A80036; stroke-width: 1.5;" width="118" x="1156" y="65.5"/><ellipse cx="1175.95" cy="81.5" fill="#ADD1B2" rx="11" ry="11" style="stroke: #A80036; stroke-width: 1.0;"/><path d="M1178.4231,87.6431 Q1177.8421,87.9419 1177.2029,88.0913 Q1176.5638,88.2407 1175.8582,88.2407 Q1173.3514,88.2407 1172.0315,86.5889 Q1170.7117,84.937 1170.7117,81.8159 Q1170.7117,78.6865 1172.0315,77.0347 Q1173.3514,75.3828 1175.8582,75.3828 Q1176.5638,75.3828 1177.2112,75.5322 Q1177.8587,75.6816 1178.4231,75.9805 L1178.4231,78.7031 Q1177.7923,78.1221 1177.1988,77.8523 Q1176.6053,77.5825 1175.9744,77.5825 Q1174.6297,77.5825 1173.9449,78.6492 Q1173.2601,79.7158 1173.2601,81.8159 Q1173.2601,83.9077 1173.9449,84.9744 Q1174.6297,86.041 1175.9744,86.041 Q1176.6053,86.041 1177.1988,85.7712 Q1177.7923,85.5015 1178.4231,84.9204 Z "/><text fill="#000000" font-family="sans-serif" font-size="12" lengthAdjust="spacingAndGlyphs" textLength="75" x="1191.05" y="86.0352">TicketSystem</text><line style="stroke: #A80036; stroke-width: 1.5;" x1="1157" x2="1273" y1="97.5" y2="97.5"/><line style="stroke: #A80036; stroke-width: 1.5;" x1="1157" x2="1273" y1="105.5" y2="105.5"/><text fill="#000000" font-family="sans-serif" font-size="11" lengthAdjust="spacingAndGlyphs" textLength="91" x="1162" y="120.1348">register(request)</text><text fill="#000000" font-family="sans-serif" font-size="11" lengthAdjust="spacingAndGlyphs" textLength="76" x="1162" y="133.0898">login(request)</text><text fill="#000000" font-family="sans-serif" font-size="11" lengthAdjust="spacingAndGlyphs" textLength="106" x="1162" y="146.0449">order(ticketsCount)</text><!--class KeyVault--><rect fill="#FEFECE" filter="url(#fjioa38f84i8n)" height="60.9551" id="KeyVault" style="stroke: #A80036; stroke-width: 1.5;" width="82" x="1358.5" y="149.5"/><ellipse cx="1373.5" cy="165.5" fill="#ADD1B2" rx="11" ry="11" style="stroke: #A80036; stroke-width: 1.0;"/><path d="M1375.9731,171.6431 Q1375.3921,171.9419 1374.7529,172.0913 Q1374.1138,172.2407 1373.4082,172.2407 Q1370.9014,172.2407 1369.5815,170.5889 Q1368.2617,168.937 1368.2617,165.8159 Q1368.2617,162.6865 1369.5815,161.0347 Q1370.9014,159.3828 1373.4082,159.3828 Q1374.1138,159.3828 1374.7612,159.5322 Q1375.4087,159.6816 1375.9731,159.9805 L1375.9731,162.7031 Q1375.3423,162.1221 1374.7488,161.8523 Q1374.1553,161.5825 1373.5244,161.5825 Q1372.1797,161.5825 1371.4949,162.6492 Q1370.8101,163.7158 1370.8101,165.8159 Q1370.8101,167.9077 1371.4949,168.9744 Q1372.1797,170.041 1373.5244,170.041 Q1374.1553,170.041 1374.7488,169.7712 Q1375.3423,169.5015 1375.9731,168.9204 Z "/><text fill="#000000" font-family="sans-serif" font-size="12" lengthAdjust="spacingAndGlyphs" textLength="50" x="1387.5" y="170.0352">KeyVault</text><line style="stroke: #A80036; stroke-width: 1.5;" x1="1359.5" x2="1439.5" y1="181.5" y2="181.5"/><line style="stroke: #A80036; stroke-width: 1.5;" x1="1359.5" x2="1439.5" y1="189.5" y2="189.5"/><text fill="#000000" font-family="sans-serif" font-size="11" lengthAdjust="spacingAndGlyphs" textLength="44" x="1364.5" y="204.1348">getKey()</text><!--class Crypto--><rect fill="#FEFECE" filter="url(#fjioa38f84i8n)" height="73.9102" id="Crypto" style="stroke: #A80036; stroke-width: 1.5;" width="79" x="1360" y="246"/><ellipse cx="1379.05" cy="262" fill="#ADD1B2" rx="11" ry="11" style="stroke: #A80036; stroke-width: 1.0;"/><path d="M1381.5231,268.1431 Q1380.9421,268.4419 1380.3029,268.5913 Q1379.6638,268.7407 1378.9582,268.7407 Q1376.4514,268.7407 1375.1315,267.0889 Q1373.8117,265.437 1373.8117,262.3159 Q1373.8117,259.1865 1375.1315,257.5347 Q1376.4514,255.8828 1378.9582,255.8828 Q1379.6638,255.8828 1380.3112,256.0322 Q1380.9587,256.1816 1381.5231,256.4805 L1381.5231,259.2031 Q1380.8923,258.6221 1380.2988,258.3523 Q1379.7053,258.0825 1379.0744,258.0825 Q1377.7297,258.0825 1377.0449,259.1492 Q1376.3601,260.2158 1376.3601,262.3159 Q1376.3601,264.4077 1377.0449,265.4744 Q1377.7297,266.541 1379.0744,266.541 Q1379.7053,266.541 1380.2988,266.2712 Q1380.8923,266.0015 1381.5231,265.4204 Z "/><text fill="#000000" font-family="sans-serif" font-size="12" lengthAdjust="spacingAndGlyphs" textLength="38" x="1393.95" y="266.5352">Crypto</text><line style="stroke: #A80036; stroke-width: 1.5;" x1="1361" x2="1438" y1="278" y2="278"/><line style="stroke: #A80036; stroke-width: 1.5;" x1="1361" x2="1438" y1="286" y2="286"/><text fill="#000000" font-family="sans-serif" font-size="11" lengthAdjust="spacingAndGlyphs" textLength="67" x="1366" y="300.6348">encrypt(key)</text><text fill="#000000" font-family="sans-serif" font-size="11" lengthAdjust="spacingAndGlyphs" textLength="67" x="1366" y="313.5898">decrypt(key)</text><!--class PaymentProvider--><rect fill="#FEFECE" filter="url(#fjioa38f84i8n)" height="73.9102" id="PaymentProvider" style="stroke: #A80036; stroke-width: 1.5;" width="129" x="1335" y="40"/><ellipse cx="1350" cy="56" fill="#ADD1B2" rx="11" ry="11" style="stroke: #A80036; stroke-width: 1.0;"/><path d="M1352.4731,62.1431 Q1351.8921,62.4419 1351.2529,62.5913 Q1350.6138,62.7407 1349.9082,62.7407 Q1347.4014,62.7407 1346.0815,61.0889 Q1344.7617,59.437 1344.7617,56.3159 Q1344.7617,53.1865 1346.0815,51.5347 Q1347.4014,49.8828 1349.9082,49.8828 Q1350.6138,49.8828 1351.2612,50.0322 Q1351.9087,50.1816 1352.4731,50.4805 L1352.4731,53.2031 Q1351.8423,52.6221 1351.2488,52.3523 Q1350.6553,52.0825 1350.0244,52.0825 Q1348.6797,52.0825 1347.9949,53.1492 Q1347.3101,54.2158 1347.3101,56.3159 Q1347.3101,58.4077 1347.9949,59.4744 Q1348.6797,60.541 1350.0244,60.541 Q1350.6553,60.541 1351.2488,60.2712 Q1351.8423,60.0015 1352.4731,59.4204 Z "/><text fill="#000000" font-family="sans-serif" font-size="12" lengthAdjust="spacingAndGlyphs" textLength="97" x="1364" y="60.5352">PaymentProvider</text><line style="stroke: #A80036; stroke-width: 1.5;" x1="1336" x2="1463" y1="72" y2="72"/><line style="stroke: #A80036; stroke-width: 1.5;" x1="1336" x2="1463" y1="80" y2="80"/><text fill="#000000" font-family="sans-serif" font-size="11" lengthAdjust="spacingAndGlyphs" textLength="73" x="1341" y="94.6348">balance(card)</text><text fill="#000000" font-family="sans-serif" font-size="11" lengthAdjust="spacingAndGlyphs" textLength="51" x="1341" y="107.5898">pay(card)</text><!--class Service--><rect fill="#FEFECE" filter="url(#fjioa38f84i8n)" height="60.9551" id="Service" style="stroke: #A80036; stroke-width: 1.5;" width="72" x="955" y="74.5"/><ellipse cx="970" cy="90.5" fill="#ADD1B2" rx="11" ry="11" style="stroke: #A80036; stroke-width: 1.0;"/><path d="M972.4731,96.6431 Q971.8921,96.9419 971.2529,97.0913 Q970.6138,97.2407 969.9082,97.2407 Q967.4014,97.2407 966.0815,95.5889 Q964.7617,93.937 964.7617,90.8159 Q964.7617,87.6865 966.0815,86.0347 Q967.4014,84.3828 969.9082,84.3828 Q970.6138,84.3828 971.2612,84.5322 Q971.9087,84.6816 972.4731,84.9805 L972.4731,87.7031 Q971.8423,87.1221 971.2488,86.8523 Q970.6553,86.5825 970.0244,86.5825 Q968.6797,86.5825 967.9949,87.6492 Q967.3101,88.7158 967.3101,90.8159 Q967.3101,92.9077 967.9949,93.9744 Q968.6797,95.041 970.0244,95.041 Q970.6553,95.041 971.2488,94.7712 Q971.8423,94.5015 972.4731,93.9204 Z "/><text fill="#000000" font-family="sans-serif" font-size="12" lengthAdjust="spacingAndGlyphs" textLength="40" x="984" y="95.0352">Service</text><line style="stroke: #A80036; stroke-width: 1.5;" x1="956" x2="1026" y1="106.5" y2="106.5"/><line style="stroke: #A80036; stroke-width: 1.5;" x1="956" x2="1026" y1="114.5" y2="114.5"/><text fill="#000000" font-family="sans-serif" font-size="11" lengthAdjust="spacingAndGlyphs" textLength="50" x="961" y="129.1348">execute()</text><!--class Worker--><rect fill="#FEFECE" filter="url(#fjioa38f84i8n)" height="73.9102" id="Worker" style="stroke: #A80036; stroke-width: 1.5;" width="73" x="758" y="66"/><ellipse cx="773" cy="82" fill="#ADD1B2" rx="11" ry="11" style="stroke: #A80036; stroke-width: 1.0;"/><path d="M775.4731,88.1431 Q774.8921,88.4419 774.2529,88.5913 Q773.6138,88.7407 772.9082,88.7407 Q770.4014,88.7407 769.0815,87.0889 Q767.7617,85.437 767.7617,82.3159 Q767.7617,79.1865 769.0815,77.5347 Q770.4014,75.8828 772.9082,75.8828 Q773.6138,75.8828 774.2612,76.0322 Q774.9087,76.1816 775.4731,76.4805 L775.4731,79.2031 Q774.8423,78.6221 774.2488,78.3523 Q773.6553,78.0825 773.0244,78.0825 Q771.6797,78.0825 770.9949,79.1492 Q770.3101,80.2158 770.3101,82.3159 Q770.3101,84.4077 770.9949,85.4744 Q771.6797,86.541 773.0244,86.541 Q773.6553,86.541 774.2488,86.2712 Q774.8423,86.0015 775.4731,85.4204 Z "/><text fill="#000000" font-family="sans-serif" font-size="12" lengthAdjust="spacingAndGlyphs" textLength="41" x="787" y="86.5352">Worker</text><line style="stroke: #A80036; stroke-width: 1.5;" x1="759" x2="830" y1="98" y2="98"/><line style="stroke: #A80036; stroke-width: 1.5;" x1="759" x2="830" y1="106" y2="106"/><text fill="#000000" font-family="sans-serif" font-size="11" lengthAdjust="spacingAndGlyphs" textLength="51" x="764" y="120.6348">process()</text><text fill="#000000" font-family="sans-serif" font-size="11" lengthAdjust="spacingAndGlyphs" textLength="41" x="764" y="133.5898">getDC()</text><!--class Client--><rect fill="#FEFECE" filter="url(#fjioa38f84i8n)" height="60.9551" id="Client" style="stroke: #A80036; stroke-width: 1.5;" width="64" x="6" y="181.5"/><ellipse cx="21" cy="197.5" fill="#ADD1B2" rx="11" ry="11" style="stroke: #A80036; stroke-width: 1.0;"/><path d="M23.4731,203.6431 Q22.8921,203.9419 22.2529,204.0913 Q21.6138,204.2407 20.9082,204.2407 Q18.4014,204.2407 17.0815,202.5889 Q15.7617,200.937 15.7617,197.8159 Q15.7617,194.6865 17.0815,193.0347 Q18.4014,191.3828 20.9082,191.3828 Q21.6138,191.3828 22.2612,191.5322 Q22.9087,191.6816 23.4731,191.9805 L23.4731,194.7031 Q22.8423,194.1221 22.2488,193.8523 Q21.6553,193.5825 21.0244,193.5825 Q19.6797,193.5825 18.9949,194.6492 Q18.3101,195.7158 18.3101,197.8159 Q18.3101,199.9077 18.9949,200.9744 Q19.6797,202.041 21.0244,202.041 Q21.6553,202.041 22.2488,201.7712 Q22.8423,201.5015 23.4731,200.9204 Z "/><text fill="#000000" font-family="sans-serif" font-size="12" lengthAdjust="spacingAndGlyphs" textLength="32" x="35" y="202.0352">Client</text><line style="stroke: #A80036; stroke-width: 1.5;" x1="7" x2="69" y1="213.5" y2="213.5"/><line style="stroke: #A80036; stroke-width: 1.5;" x1="7" x2="69" y1="221.5" y2="221.5"/><text fill="#000000" font-family="sans-serif" font-size="11" lengthAdjust="spacingAndGlyphs" textLength="27" x="12" y="236.1348">run()</text><!--class ServiceEndpoint--><rect fill="#FEFECE" filter="url(#fjioa38f84i8n)" height="60.9551" id="ServiceEndpoint" style="stroke: #A80036; stroke-width: 1.5;" width="123" x="252" y="181.5"/><ellipse cx="267" cy="197.5" fill="#ADD1B2" rx="11" ry="11" style="stroke: #A80036; stroke-width: 1.0;"/><path d="M269.4731,203.6431 Q268.8921,203.9419 268.2529,204.0913 Q267.6138,204.2407 266.9082,204.2407 Q264.4014,204.2407 263.0815,202.5889 Q261.7617,200.937 261.7617,197.8159 Q261.7617,194.6865 263.0815,193.0347 Q264.4014,191.3828 266.9082,191.3828 Q267.6138,191.3828 268.2612,191.5322 Q268.9087,191.6816 269.4731,191.9805 L269.4731,194.7031 Q268.8423,194.1221 268.2488,193.8523 Q267.6553,193.5825 267.0244,193.5825 Q265.6797,193.5825 264.9949,194.6492 Q264.3101,195.7158 264.3101,197.8159 Q264.3101,199.9077 264.9949,200.9744 Q265.6797,202.041 267.0244,202.041 Q267.6553,202.041 268.2488,201.7712 Q268.8423,201.5015 269.4731,200.9204 Z "/><text fill="#000000" font-family="sans-serif" font-size="12" lengthAdjust="spacingAndGlyphs" textLength="91" x="281" y="202.0352">ServiceEndpoint</text><line style="stroke: #A80036; stroke-width: 1.5;" x1="253" x2="374" y1="213.5" y2="213.5"/><line style="stroke: #A80036; stroke-width: 1.5;" x1="253" x2="374" y1="221.5" y2="221.5"/><text fill="#000000" font-family="sans-serif" font-size="11" lengthAdjust="spacingAndGlyphs" textLength="81" x="258" y="236.1348">invokeService()</text><!--class LoadBalancer--><rect fill="#FEFECE" filter="url(#fjioa38f84i8n)" height="112.7754" id="LoadBalancer" style="stroke: #A80036; stroke-width: 1.5;" width="109" x="518" y="45.5"/><ellipse cx="533" cy="61.5" fill="#ADD1B2" rx="11" ry="11" style="stroke: #A80036; stroke-width: 1.0;"/><path d="M535.4731,67.6431 Q534.8921,67.9419 534.2529,68.0913 Q533.6138,68.2407 532.9082,68.2407 Q530.4014,68.2407 529.0815,66.5889 Q527.7617,64.937 527.7617,61.8159 Q527.7617,58.6865 529.0815,57.0347 Q530.4014,55.3828 532.9082,55.3828 Q533.6138,55.3828 534.2612,55.5322 Q534.9087,55.6816 535.4731,55.9805 L535.4731,58.7031 Q534.8423,58.1221 534.2488,57.8523 Q533.6553,57.5825 533.0244,57.5825 Q531.6797,57.5825 530.9949,58.6492 Q530.3101,59.7158 530.3101,61.8159 Q530.3101,63.9077 530.9949,64.9744 Q531.6797,66.041 533.0244,66.041 Q533.6553,66.041 534.2488,65.7712 Q534.8423,65.5015 535.4731,64.9204 Z "/><text fill="#000000" font-family="sans-serif" font-size="12" lengthAdjust="spacingAndGlyphs" textLength="77" x="547" y="66.0352">LoadBalancer</text><line style="stroke: #A80036; stroke-width: 1.5;" x1="519" x2="626" y1="77.5" y2="77.5"/><line style="stroke: #A80036; stroke-width: 1.5;" x1="519" x2="626" y1="85.5" y2="85.5"/><text fill="#000000" font-family="sans-serif" font-size="11" lengthAdjust="spacingAndGlyphs" textLength="27" x="524" y="100.1348">run()</text><text fill="#000000" font-family="sans-serif" font-size="11" lengthAdjust="spacingAndGlyphs" textLength="63" x="524" y="113.0898">getWorker()</text><text fill="#000000" font-family="sans-serif" font-size="11" lengthAdjust="spacingAndGlyphs" textLength="84" x="524" y="126.0449">releaseWorker()</text><text fill="#000000" font-family="sans-serif" font-size="11" lengthAdjust="spacingAndGlyphs" textLength="66" x="524" y="139">addWorker()</text><text fill="#000000" font-family="sans-serif" font-size="11" lengthAdjust="spacingAndGlyphs" textLength="75" x="524" y="151.9551">firingWorker()</text><!--class Autoscaler--><rect fill="#FEFECE" filter="url(#fjioa38f84i8n)" height="86.8652" id="Autoscaler" style="stroke: #A80036; stroke-width: 1.5;" width="108" x="259.5" y="53.5"/><ellipse cx="281.7" cy="69.5" fill="#ADD1B2" rx="11" ry="11" style="stroke: #A80036; stroke-width: 1.0;"/><path d="M284.1731,75.6431 Q283.5921,75.9419 282.9529,76.0913 Q282.3138,76.2407 281.6082,76.2407 Q279.1014,76.2407 277.7815,74.5889 Q276.4617,72.937 276.4617,69.8159 Q276.4617,66.6865 277.7815,65.0347 Q279.1014,63.3828 281.6082,63.3828 Q282.3138,63.3828 282.9612,63.5322 Q283.6087,63.6816 284.1731,63.9805 L284.1731,66.7031 Q283.5423,66.1221 282.9488,65.8523 Q282.3553,65.5825 281.7244,65.5825 Q280.3797,65.5825 279.6949,66.6492 Q279.0101,67.7158 279.0101,69.8159 Q279.0101,71.9077 279.6949,72.9744 Q280.3797,74.041 281.7244,74.041 Q282.3553,74.041 282.9488,73.7712 Q283.5423,73.5015 284.1731,72.9204 Z "/><text fill="#000000" font-family="sans-serif" font-size="12" lengthAdjust="spacingAndGlyphs" textLength="60" x="297.3" y="74.0352">Autoscaler</text><line style="stroke: #A80036; stroke-width: 1.5;" x1="260.5" x2="366.5" y1="85.5" y2="85.5"/><line style="stroke: #A80036; stroke-width: 1.5;" x1="260.5" x2="366.5" y1="93.5" y2="93.5"/><text fill="#000000" font-family="sans-serif" font-size="11" lengthAdjust="spacingAndGlyphs" textLength="27" x="265.5" y="108.1348">run()</text><text fill="#000000" font-family="sans-serif" font-size="11" lengthAdjust="spacingAndGlyphs" textLength="40" x="265.5" y="121.0898">resize()</text><text fill="#000000" font-family="sans-serif" font-size="11" lengthAdjust="spacingAndGlyphs" textLength="96" x="265.5" y="134.0449">createInstance(id)</text><!--link Service to TicketSystem--><path d="M1027.18,105.63 C1060.17,106.23 1110.29,107.13 1150.32,107.85 " fill="none" id="Service-&gt;TicketSystem" style="stroke: #A80036; stroke-width: 1.0;"/><polygon fill="#A80036" points="1155.64,107.95,1146.7218,103.7708,1150.641,107.85,1146.5618,111.7692,1155.64,107.95" style="stroke: #A80036; stroke-width: 1.0;"/><text fill="#000000" font-family="sans-serif" font-size="13" lengthAdjust="spacingAndGlyphs" textLength="52" x="1058" y="103.5684">controls</text><polygon fill="#000000" points="1113,97.1553,1119,100.1553,1113,103.1553,1113,97.1553" style="stroke: #000000; stroke-width: 1.0;"/><text fill="#000000" font-family="sans-serif" font-size="13" lengthAdjust="spacingAndGlyphs" textLength="8" x="1139.918" y="121.3316">1</text><!--link TicketSystem to PaymentProvider--><path d="M1274.25,98.79 C1291.89,95.69 1311.43,92.27 1329.69,89.07 " fill="none" id="TicketSystem-&gt;PaymentProvider" style="stroke: #A80036; stroke-width: 1.0;"/><polygon fill="#A80036" points="1334.81,88.17,1325.2577,85.7712,1329.8839,89.0267,1326.6285,93.6529,1334.81,88.17" style="stroke: #A80036; stroke-width: 1.0;"/><text fill="#000000" font-family="sans-serif" font-size="13" lengthAdjust="spacingAndGlyphs" textLength="8" x="1318.8677" y="102.9202">3</text><!--link ServiceEndpoint to KeyVault--><path d="M375.25,212 C427.33,212 504.35,212 571.5,212 C571.5,212 571.5,212 1216,212 C1263.22,212 1316.28,201.48 1352.97,192.5 " fill="none" id="ServiceEndpoint-&gt;KeyVault" style="stroke: #A80036; stroke-width: 1.0;"/><polygon fill="#A80036" points="1358.26,191.19,1348.5621,189.472,1353.4068,192.3926,1350.4862,197.2372,1358.26,191.19" style="stroke: #A80036; stroke-width: 1.0;"/><text fill="#000000" font-family="sans-serif" font-size="13" lengthAdjust="spacingAndGlyphs" textLength="8" x="1342.4844" y="207.0013">1</text><!--link ServiceEndpoint to Crypto--><path d="M375.26,238.74 C426.53,258.87 502.41,283 571.5,283 C571.5,283 571.5,283 1216,283 C1263.26,283 1317.41,283 1354.37,283 " fill="none" id="ServiceEndpoint-&gt;Crypto" style="stroke: #A80036; stroke-width: 1.0;"/><polygon fill="#A80036" points="1359.69,283,1350.69,279,1354.69,283,1350.69,287,1359.69,283" style="stroke: #A80036; stroke-width: 1.0;"/><text fill="#000000" font-family="sans-serif" font-size="13" lengthAdjust="spacingAndGlyphs" textLength="8" x="1343.8863" y="296.94">1</text><!--link Worker to Service--><path d="M831.17,103.37 C866.38,103.73 919.87,104.28 954.88,104.64 " fill="none" id="Worker-Service" style="stroke: #A80036; stroke-width: 1.0;"/><text fill="#000000" font-family="sans-serif" font-size="13" lengthAdjust="spacingAndGlyphs" textLength="49" x="862" y="100.5684">invokes</text><polygon fill="#000000" points="914,94.1553,920,97.1553,914,100.1553,914,94.1553" style="stroke: #000000; stroke-width: 1.0;"/><text fill="#000000" font-family="sans-serif" font-size="13" lengthAdjust="spacingAndGlyphs" textLength="6" x="838.98" y="117.5272">*</text><text fill="#000000" font-family="sans-serif" font-size="13" lengthAdjust="spacingAndGlyphs" textLength="8" x="938.9814" y="118.649">1</text><!--link Autoscaler to LoadBalancer--><path d="M367.75,98.04 C409.99,98.86 468.99,100.01 512.63,100.85 " fill="none" id="Autoscaler-&gt;LoadBalancer" style="stroke: #A80036; stroke-width: 1.0;"/><polygon fill="#A80036" points="517.88,100.96,508.9618,96.7808,512.881,100.86,508.8018,104.7792,517.88,100.96" style="stroke: #A80036; stroke-width: 1.0;"/><text fill="#000000" font-family="sans-serif" font-size="13" lengthAdjust="spacingAndGlyphs" textLength="39" x="420.5" y="95.5684">scales</text><polygon fill="#000000" points="462.5,89.1553,468.5,92.1553,462.5,95.1553,462.5,89.1553" style="stroke: #000000; stroke-width: 1.0;"/><text fill="#000000" font-family="sans-serif" font-size="13" lengthAdjust="spacingAndGlyphs" textLength="8" x="502.0029" y="114.4324">1</text><!--link TicketSystem to KeyVault--><path d="M1274.25,131.66 C1299.97,141.67 1329.73,153.25 1353.68,162.56 " fill="none" id="TicketSystem-&gt;KeyVault" style="stroke: #A80036; stroke-width: 1.0;"/><polygon fill="#A80036" points="1358.39,164.39,1351.4559,157.3959,1353.7311,162.575,1348.5519,164.8502,1358.39,164.39" style="stroke: #A80036; stroke-width: 1.0;"/><text fill="#000000" font-family="sans-serif" font-size="13" lengthAdjust="spacingAndGlyphs" textLength="8" x="1342.6367" y="175.595">1</text><!--link TicketSystem to Crypto--><path d="M1258.23,152.72 C1280.66,175.55 1308.91,203.71 1335,228 C1341.67,234.2 1348.86,240.65 1355.92,246.86 " fill="none" id="TicketSystem-&gt;Crypto" style="stroke: #A80036; stroke-width: 1.0;"/><polygon fill="#A80036" points="1359.83,250.28,1355.7076,241.3354,1356.0733,246.9804,1350.4283,247.3461,1359.83,250.28" style="stroke: #A80036; stroke-width: 1.0;"/><text fill="#000000" font-family="sans-serif" font-size="13" lengthAdjust="spacingAndGlyphs" textLength="8" x="1344.0513" y="258.3917">1</text><!--link LoadBalancer to Worker--><path d="M627.04,102.24 C665.71,102.42 717.15,102.65 752.56,102.81 " fill="none" id="LoadBalancer-&gt;Worker" style="stroke: #A80036; stroke-width: 1.0;"/><polygon fill="#A80036" points="757.67,102.84,748.693,98.7886,752.6701,102.8114,748.6473,106.7885,757.67,102.84" style="stroke: #A80036; stroke-width: 1.0;"/><text fill="#000000" font-family="sans-serif" font-size="13" lengthAdjust="spacingAndGlyphs" textLength="56" x="658" y="99.5684">manages</text><polygon fill="#000000" points="717,93.1553,723,96.1553,717,99.1553,717,93.1553" style="stroke: #000000; stroke-width: 1.0;"/><text fill="#000000" font-family="sans-serif" font-size="13" lengthAdjust="spacingAndGlyphs" textLength="6" x="744.0774" y="116.8457">*</text><!--link ServiceEndpoint to LoadBalancer--><path d="M375.08,186.07 C416.8,168.21 471.94,144.61 513.17,126.97 " fill="none" id="ServiceEndpoint-&gt;LoadBalancer" style="stroke: #A80036; stroke-width: 1.0;"/><polygon fill="#A80036" points="517.87,124.95,508.0224,124.7928,513.2691,126.9075,511.1544,132.1542,517.87,124.95" style="stroke: #A80036; stroke-width: 1.0;"/><text fill="#000000" font-family="sans-serif" font-size="13" lengthAdjust="spacingAndGlyphs" textLength="68" x="406" y="137.5684">gives work</text><polygon fill="#000000" points="477,131.1553,483,134.1553,477,137.1553,477,131.1553" style="stroke: #000000; stroke-width: 1.0;"/><text fill="#000000" font-family="sans-serif" font-size="13" lengthAdjust="spacingAndGlyphs" textLength="8" x="501.9916" y="141.646">1</text><!--link Client to ServiceEndpoint--><path d="M70.11,212 C114.14,212 195.54,212 251.78,212 " fill="none" id="Client-ServiceEndpoint" style="stroke: #A80036; stroke-width: 1.0;"/><polygon fill="#000000" points="108,202.1553,102,205.1553,108,208.1553,108,202.1553" style="stroke: #000000; stroke-width: 1.0;"/><text fill="#000000" font-family="sans-serif" font-size="13" lengthAdjust="spacingAndGlyphs" textLength="107" x="114" y="208.5684">handles requests</text><text fill="#000000" font-family="sans-serif" font-size="13" lengthAdjust="spacingAndGlyphs" textLength="6" x="77.7903" y="226.2479">*</text><text fill="#000000" font-family="sans-serif" font-size="13" lengthAdjust="spacingAndGlyphs" textLength="8" x="236.1811" y="225.4561">1</text><!--
@startuml "Class diagram"
left to right direction

together {
    class TicketSystem {
        register(request)
        login(request)
        order(ticketsCount)
    }

    class KeyVault {
        getKey()
    }

    class Crypto {
        encrypt(key)
        decrypt(key)
    }

    class PaymentProvider {
        balance(card)
        pay(card)
    }
}

class Service {
    execute()
}

class Worker {
    process()
    getDC()
}
class Client {
    run()
}

class ServiceEndpoint {
    invokeService()
}


class LoadBalancer {
    run()
    getWorker()
    releaseWorker()
    addWorker()
    firingWorker()
}

class Autoscaler {
    run()
    resize()
    createInstance(id)
}

Service - -> "1" TicketSystem: controls >
TicketSystem - -> "3" PaymentProvider
ServiceEndpoint - -> "1" KeyVault
ServiceEndpoint - -> "1" Crypto
Worker "*" - - "1" Service : invokes >
Autoscaler - -> "1" LoadBalancer : scales >
TicketSystem - -> "1" KeyVault
TicketSystem - -> "1" Crypto
LoadBalancer - -> "*" Worker : manages >
ServiceEndpoint - -> "1" LoadBalancer: gives work >
Client "*" - - "1" ServiceEndpoint: < handles requests

@enduml

PlantUML version 1.2019.09(Mon Aug 26 18:19:51 CEST 2019)
(GPL source distribution)
Java Runtime: Java(TM) SE Runtime Environment
JVM: Java HotSpot(TM) 64-Bit Server VM
Java Version: 1.8.0_221-b11
Operating System: Mac OS X
OS Version: 10.15.1
Default Encoding: UTF-8
Language: en
Country: CZ
--></g></svg>