<?xml version="1.0" encoding="UTF-8" standalone="no"?><svg xmlns="http://www.w3.org/2000/svg" xmlns:xlink="http://www.w3.org/1999/xlink" contentScriptType="application/ecmascript" contentStyleType="text/css" height="647px" preserveAspectRatio="none" style="width:1794px;height:647px;" version="1.1" viewBox="0 0 1794 647" width="1794px" zoomAndPan="magnify"><defs><filter height="300%" id="f10ql177qeydpo" width="300%" x="-1" y="-1"><feGaussianBlur result="blurOut" stdDeviation="2.0"/><feColorMatrix in="blurOut" result="blurOut2" type="matrix" values="0 0 0 0 0 0 0 0 0 0 0 0 0 0 0 0 0 0 .4 0"/><feOffset dx="4.0" dy="4.0" in="blurOut2" result="blurOut3"/><feBlend in="SourceGraphic" in2="blurOut3" mode="normal"/></filter></defs><g><!--cluster Cloud--><path d="M372.0773,148.3823 C383.008,128.2007 398.4257,130.7981 410.869,146.7588 C425.1566,122.6795 443.847,121.3445 458.8119,146.0938 C469.2584,122.6872 490.4134,128.4433 501.2427,145.6943 C515.1231,122.8705 536.5226,124.0638 551.4892,144.4307 C564.7393,123.6171 580.8925,129.9483 591.8368,146.8945 C603.127,123.6702 622.0361,123.3976 636.9535,143.0806 C650.3737,122.8159 664.4253,125.5359 676.6028,144.3418 C692.8311,122.5567 711.8258,119.7525 727.5646,144.8736 C739.0583,120.0277 757.5228,120.2372 772.5951,141.3688 C787.6428,123.661 806.1552,122.9998 817.5166,145.4884 C826.6666,128.1584 846.2305,123.9412 856.9657,143.8074 C869.2221,123.5055 889.2922,127.5754 898.4094,147.076 C914.0568,120.5571 931.4653,120.2403 949.5278,144.6519 C967.9194,128.3496 982.1144,128.9264 994,152 C997.151,151.3472 999.331,152.999 998.3195,156.417 C1018.1843,169.373 1014.0471,186.6025 996.5855,198.0021 C1019.7561,206.5245 1023.9142,226.8334 1002.4543,241.3924 C1020.5686,257.7075 1025.2522,271.8263 1001.5539,287.3217 C1021.7803,303.9971 1021.0327,319.7243 996.9832,331.8554 C1019.1081,339.272 1025.9154,359.7986 1005.0185,375.1921 C1028.6992,389.7217 1029.788,409.8667 1004.1598,423.5202 C1026.5895,438.3717 1026.2018,459.6091 1001.0567,471.3755 C1018.1279,482.8107 1016.9476,503.0188 998.644,512.3721 C1020.6731,529.1862 1021.5188,546.2339 995.2442,559.5685 C1016.0389,576.0434 1013.895,597.1792 987,605 C989.2604,601.0079 992.3106,601.9535 994.451,605.1247 C981.7504,633.0178 964.5543,632.3254 945.094,612.0514 C931.9781,632.4153 910.6411,627.0222 901.6765,607.5292 C888.3024,627.1164 873.8299,630.3089 857.5977,610.7472 C843.644,628.8372 826.448,629.4855 813.3563,609.7394 C800.8346,629.8658 784.5346,628.2099 773.0466,608.6885 C762.887,630.3926 740.9376,633.5187 728.4557,611.0318 C715.1662,635.9855 700.9098,632.4869 683.3574,615.6299 C664.6525,635.9218 648.9842,633.6506 636.6947,608.9729 C625.2156,627.4459 607.5685,629.7677 594.2378,611.089 C580.7677,629.6729 564.1367,630.6877 550.7171,611.0315 C537.6788,627.7799 517.3038,631.1616 507.1352,607.9052 C492.5431,627.631 475.6236,627.8769 459.9826,609.1928 C443.7616,626.1512 431.066,625.0769 417.9115,605.6473 C395.9066,630.3547 373.3463,632.2912 359,598 C363.0627,596.0127 365.5627,598.7316 365.4866,602.5915 C344.0737,594.2106 338.0038,576.7126 357.7,560.692 C335.6064,542.2807 337.6393,528.3871 362.5558,514.9682 C333.9984,505.991 331.9732,482.5181 354.9976,465.6377 C337.5064,451.6172 341.6966,436.5724 359.0225,426.0959 C336.4367,410.2705 334.2732,394.5872 356.5536,376.5272 C340.5291,365.4222 341.0093,347.866 357.3166,337.3914 C334.8244,320.7421 335.1293,304.9982 360.3547,291.5085 C337.044,275.1791 338.0783,260.4602 360.5495,244.3198 C339.9181,233.188 342.8176,215.3588 361.0622,204.7304 C331.0529,181.4424 340.0561,163.6625 366,145 C368.9809,143.2325 372.0534,144.8366 372.0773,148.3823 " fill="#FFFFFF" style="stroke: #000000; stroke-width: 1.5;"/><text fill="#000000" font-family="sans-serif" font-size="14" font-weight="bold" lengthAdjust="spacingAndGlyphs" textLength="42" x="655.5" y="163.5352">Cloud</text><!--cluster FrontendServer--><polygon fill="#FFFFFF" filter="url(#f10ql177qeydpo)" points="383,198,393,188,690,188,690,466,680,476,383,476,383,198" style="stroke: #000000; stroke-width: 1.5;"/><line style="stroke: #000000; stroke-width: 1.5;" x1="680" x2="689" y1="198" y2="189"/><line style="stroke: #000000; stroke-width: 1.5;" x1="383" x2="680" y1="198" y2="198"/><line style="stroke: #000000; stroke-width: 1.5;" x1="680" x2="680" y1="198" y2="476"/><text fill="#000000" font-family="sans-serif" font-size="14" font-weight="bold" lengthAdjust="spacingAndGlyphs" textLength="108" x="478.5" y="214.5352">FrontendServer</text><!--cluster VirtualMachine--><polygon fill="#FFFFFF" filter="url(#f10ql177qeydpo)" points="730,378,740,368,970,368,970,571,960,581,730,581,730,378" style="stroke: #000000; stroke-width: 1.5;"/><line style="stroke: #000000; stroke-width: 1.5;" x1="960" x2="969" y1="378" y2="369"/><line style="stroke: #000000; stroke-width: 1.5;" x1="730" x2="960" y1="378" y2="378"/><line style="stroke: #000000; stroke-width: 1.5;" x1="960" x2="960" y1="378" y2="581"/><text fill="#000000" font-family="sans-serif" font-size="14" font-weight="bold" lengthAdjust="spacingAndGlyphs" textLength="108" x="792" y="394.5352">VirtualMachine</text><!--cluster Vendor_1--><path d="M1042.1766,343.4326 C1044.7088,337.4897 1051.2549,335.1364 1055.6907,341.3095 C1058.4246,333.8713 1065.5001,331.821 1070.9894,338.2752 C1075.3922,332.3866 1080.1431,330.4113 1084.8776,337.9317 C1088.072,331.4945 1094.4239,331.2928 1098.8014,336.5194 C1103.348,329.159 1108.5628,327.3932 1115.0622,334.2927 C1119.9758,327.1246 1124.6176,327.196 1130.2971,333.4215 C1134.6906,327.3675 1140.1495,325.9514 1144.5402,333.4245 C1148.4802,327.6745 1152.6237,326.0971 1157.4639,332.4643 C1163.5499,324.718 1168.5141,326.8938 1173.1267,334.0164 C1178.6388,328.1613 1184.3612,328.5823 1188.038,336.0678 C1191.9154,330.6162 1197.9985,330.958 1200.8519,337.1908 C1205.3234,332.1624 1212.2658,332.9279 1214.711,339.5923 C1220.3658,333.0576 1224.5451,333.5875 1228.5788,341.1833 C1237.6883,333.7421 1247.187,335.6546 1250,348 C1251.6355,348.1778 1252.464,348.7253 1251.6768,350.517 C1258.835,354.0204 1260.1612,359.2653 1253.4762,364.5443 C1262.1917,368.0488 1264.5939,373.9594 1256.8922,380.8939 C1267.6649,384.703 1268.9186,390.8937 1260.7994,398.8203 C1268.766,401.3343 1270.8828,408.1227 1264.4699,414.0927 C1270.5995,420.3766 1267.5561,426.1199 1260.467,428.8081 C1267.2784,435.4923 1266.8773,443.4233 1257.3879,447.4091 C1262.0651,452.6174 1262.2254,458.0613 1254.818,460.9815 C1262.8939,472.5136 1257.4019,484.0083 1243,484 C1244.7159,483.1263 1245.9393,483.772 1245.888,485.7744 C1240.502,493.6103 1233.255,493.592 1227.9819,485.6462 C1223.1718,493.6438 1214.2965,495.4201 1209.6765,485.4525 C1204.4324,493.9517 1199.2418,492.2469 1193.8202,485.6388 C1189.0489,493.8358 1183.3302,494.5873 1176.7002,487.7562 C1171.6984,495.6934 1164.5196,497.155 1159.2047,488.0781 C1153.2842,495.0921 1147.9387,495.501 1142.3954,487.6515 C1137.6309,493.6418 1130.9834,493.7323 1127.2403,486.4822 C1122.2168,494.672 1116.3295,497.3158 1109.3462,488.5505 C1103.6789,495.117 1097.2342,494.5441 1094.3172,485.8432 C1089.1548,495.0127 1079.8902,493.5191 1075.4356,485.084 C1070.8937,493.389 1065.2707,494.4364 1059.0473,486.8142 C1046.3459,494.2129 1037.584,492.8701 1034,477 C1034.86,477.0094 1035.3913,477.6421 1034.8756,478.4705 C1026.5324,475.373 1025.05,469.3297 1032.4491,463.654 C1022.777,459.4283 1022.5148,451.4822 1031.6627,446.3987 C1022.8607,443.4626 1021.4114,438.1037 1027.9365,431.3679 C1018.9738,426.841 1018.1126,419.4747 1025.7291,412.9597 C1017.3472,408.0484 1017.6763,401.3447 1026.2541,396.991 C1020.3768,391.8308 1021.9326,384.811 1029.1857,382.2648 C1020.9727,376.8877 1022.0851,368.7194 1031.4775,365.7915 C1023.1897,352.7492 1025.1733,344.7799 1041,341 C1042.5491,341.2433 1042.824,342.1269 1042.1766,343.4326 " fill="#FFFFFF" style="stroke: #000000; stroke-width: 1.5;"/><text fill="#000000" font-family="sans-serif" font-size="14" font-weight="bold" lengthAdjust="spacingAndGlyphs" textLength="67" x="1108.5" y="359.5352">Vendor_1</text><!--cluster Server_1--><polygon fill="#FFFFFF" filter="url(#f10ql177qeydpo)" points="1050,386,1060,376,1234,376,1234,458,1224,468,1050,468,1050,386" style="stroke: #000000; stroke-width: 1.5;"/><line style="stroke: #000000; stroke-width: 1.5;" x1="1224" x2="1233" y1="386" y2="377"/><line style="stroke: #000000; stroke-width: 1.5;" x1="1050" x2="1224" y1="386" y2="386"/><line style="stroke: #000000; stroke-width: 1.5;" x1="1224" x2="1224" y1="386" y2="468"/><text fill="#000000" font-family="sans-serif" font-size="14" font-weight="bold" lengthAdjust="spacingAndGlyphs" textLength="60" x="1108" y="402.5352">Server_1</text><!--cluster Vendor_2--><path d="M1298.1766,343.4326 C1300.7088,337.4897 1307.2549,335.1364 1311.6907,341.3095 C1314.4246,333.8713 1321.5001,331.821 1326.9894,338.2752 C1331.3922,332.3866 1336.1431,330.4113 1340.8776,337.9317 C1344.072,331.4945 1350.4239,331.2928 1354.8014,336.5194 C1359.348,329.159 1364.5628,327.3932 1371.0622,334.2927 C1375.9758,327.1246 1380.6176,327.196 1386.2971,333.4215 C1390.6906,327.3675 1396.1495,325.9514 1400.5402,333.4245 C1404.4802,327.6745 1408.6237,326.0971 1413.4639,332.4643 C1419.5499,324.718 1424.5141,326.8938 1429.1267,334.0164 C1434.6388,328.1613 1440.3612,328.5823 1444.038,336.0678 C1447.9154,330.6162 1453.9985,330.958 1456.8519,337.1908 C1461.3234,332.1624 1468.2658,332.9279 1470.711,339.5923 C1476.3658,333.0576 1480.5451,333.5875 1484.5788,341.1833 C1493.6883,333.7421 1503.187,335.6546 1506,348 C1507.6355,348.1778 1508.464,348.7253 1507.6768,350.517 C1514.835,354.0204 1516.1612,359.2653 1509.4762,364.5443 C1518.1917,368.0488 1520.5939,373.9594 1512.8922,380.8939 C1523.6649,384.703 1524.9186,390.8937 1516.7994,398.8203 C1524.766,401.3343 1526.8828,408.1227 1520.4699,414.0927 C1526.5995,420.3766 1523.5561,426.1199 1516.467,428.8081 C1523.2784,435.4923 1522.8773,443.4233 1513.3879,447.4091 C1518.0651,452.6174 1518.2254,458.0613 1510.818,460.9815 C1518.8939,472.5136 1513.4019,484.0083 1499,484 C1500.7159,483.1263 1501.9393,483.772 1501.888,485.7744 C1496.502,493.6103 1489.255,493.592 1483.9819,485.6462 C1479.1718,493.6438 1470.2965,495.4201 1465.6765,485.4525 C1460.4324,493.9517 1455.2418,492.2469 1449.8202,485.6388 C1445.0489,493.8358 1439.3302,494.5873 1432.7002,487.7562 C1427.6984,495.6934 1420.5196,497.155 1415.2047,488.0781 C1409.2842,495.0921 1403.9387,495.501 1398.3954,487.6515 C1393.6309,493.6418 1386.9834,493.7323 1383.2403,486.4822 C1378.2168,494.672 1372.3295,497.3158 1365.3462,488.5505 C1359.6789,495.117 1353.2342,494.5441 1350.3172,485.8432 C1345.1548,495.0127 1335.8902,493.5191 1331.4356,485.084 C1326.8937,493.389 1321.2707,494.4364 1315.0473,486.8142 C1302.3459,494.2129 1293.584,492.8701 1290,477 C1290.86,477.0094 1291.3913,477.6421 1290.8756,478.4705 C1282.5324,475.373 1281.05,469.3297 1288.4491,463.654 C1278.777,459.4283 1278.5148,451.4822 1287.6627,446.3987 C1278.8607,443.4626 1277.4114,438.1037 1283.9365,431.3679 C1274.9738,426.841 1274.1126,419.4747 1281.7291,412.9597 C1273.3472,408.0484 1273.6763,401.3447 1282.2541,396.991 C1276.3768,391.8308 1277.9326,384.811 1285.1857,382.2648 C1276.9727,376.8877 1278.0851,368.7194 1287.4775,365.7915 C1279.1897,352.7492 1281.1733,344.7799 1297,341 C1298.5491,341.2433 1298.824,342.1269 1298.1766,343.4326 " fill="#FFFFFF" style="stroke: #000000; stroke-width: 1.5;"/><text fill="#000000" font-family="sans-serif" font-size="14" font-weight="bold" lengthAdjust="spacingAndGlyphs" textLength="67" x="1364.5" y="359.5352">Vendor_2</text><!--cluster Server_2--><polygon fill="#FFFFFF" filter="url(#f10ql177qeydpo)" points="1306,386,1316,376,1490,376,1490,458,1480,468,1306,468,1306,386" style="stroke: #000000; stroke-width: 1.5;"/><line style="stroke: #000000; stroke-width: 1.5;" x1="1480" x2="1489" y1="386" y2="377"/><line style="stroke: #000000; stroke-width: 1.5;" x1="1306" x2="1480" y1="386" y2="386"/><line style="stroke: #000000; stroke-width: 1.5;" x1="1480" x2="1480" y1="386" y2="468"/><text fill="#000000" font-family="sans-serif" font-size="14" font-weight="bold" lengthAdjust="spacingAndGlyphs" textLength="60" x="1364" y="402.5352">Server_2</text><!--cluster Vendor_3--><path d="M1554.1766,343.4326 C1556.7088,337.4897 1563.2549,335.1364 1567.6907,341.3095 C1570.4246,333.8713 1577.5001,331.821 1582.9894,338.2752 C1587.3922,332.3866 1592.1431,330.4113 1596.8776,337.9317 C1600.072,331.4945 1606.4239,331.2928 1610.8014,336.5194 C1615.348,329.159 1620.5628,327.3932 1627.0622,334.2927 C1631.9758,327.1246 1636.6176,327.196 1642.2971,333.4215 C1646.6906,327.3675 1652.1495,325.9514 1656.5402,333.4245 C1660.4802,327.6745 1664.6237,326.0971 1669.4639,332.4643 C1675.5499,324.718 1680.5141,326.8938 1685.1267,334.0164 C1690.6388,328.1613 1696.3612,328.5823 1700.038,336.0678 C1703.9154,330.6162 1709.9985,330.958 1712.8519,337.1908 C1717.3234,332.1624 1724.2658,332.9279 1726.711,339.5923 C1732.3658,333.0576 1736.5451,333.5875 1740.5788,341.1833 C1749.6883,333.7421 1759.187,335.6546 1762,348 C1763.6355,348.1778 1764.464,348.7253 1763.6768,350.517 C1770.835,354.0204 1772.1612,359.2653 1765.4762,364.5443 C1774.1917,368.0488 1776.5939,373.9594 1768.8922,380.8939 C1779.6649,384.703 1780.9186,390.8937 1772.7994,398.8203 C1780.766,401.3343 1782.8828,408.1227 1776.4699,414.0927 C1782.5995,420.3766 1779.5561,426.1199 1772.467,428.8081 C1779.2784,435.4923 1778.8773,443.4233 1769.3879,447.4091 C1774.0651,452.6174 1774.2254,458.0613 1766.818,460.9815 C1774.8939,472.5136 1769.4019,484.0083 1755,484 C1756.7159,483.1263 1757.9393,483.772 1757.888,485.7744 C1752.502,493.6103 1745.255,493.592 1739.9819,485.6462 C1735.1718,493.6438 1726.2965,495.4201 1721.6765,485.4525 C1716.4324,493.9517 1711.2418,492.2469 1705.8202,485.6388 C1701.0489,493.8358 1695.3302,494.5873 1688.7002,487.7562 C1683.6984,495.6934 1676.5196,497.155 1671.2047,488.0781 C1665.2842,495.0921 1659.9387,495.501 1654.3954,487.6515 C1649.6309,493.6418 1642.9834,493.7323 1639.2403,486.4822 C1634.2168,494.672 1628.3295,497.3158 1621.3462,488.5505 C1615.6789,495.117 1609.2342,494.5441 1606.3172,485.8432 C1601.1548,495.0127 1591.8902,493.5191 1587.4356,485.084 C1582.8937,493.389 1577.2707,494.4364 1571.0473,486.8142 C1558.3459,494.2129 1549.584,492.8701 1546,477 C1546.86,477.0094 1547.3913,477.6421 1546.8756,478.4705 C1538.5324,475.373 1537.05,469.3297 1544.4491,463.654 C1534.777,459.4283 1534.5148,451.4822 1543.6627,446.3987 C1534.8607,443.4626 1533.4114,438.1037 1539.9365,431.3679 C1530.9738,426.841 1530.1126,419.4747 1537.7291,412.9597 C1529.3472,408.0484 1529.6763,401.3447 1538.2541,396.991 C1532.3768,391.8308 1533.9326,384.811 1541.1857,382.2648 C1532.9727,376.8877 1534.0851,368.7194 1543.4775,365.7915 C1535.1897,352.7492 1537.1733,344.7799 1553,341 C1554.5491,341.2433 1554.824,342.1269 1554.1766,343.4326 " fill="#FFFFFF" style="stroke: #000000; stroke-width: 1.5;"/><text fill="#000000" font-family="sans-serif" font-size="14" font-weight="bold" lengthAdjust="spacingAndGlyphs" textLength="67" x="1620.5" y="359.5352">Vendor_3</text><!--cluster Server_3--><polygon fill="#FFFFFF" filter="url(#f10ql177qeydpo)" points="1562,386,1572,376,1746,376,1746,458,1736,468,1562,468,1562,386" style="stroke: #000000; stroke-width: 1.5;"/><line style="stroke: #000000; stroke-width: 1.5;" x1="1736" x2="1745" y1="386" y2="377"/><line style="stroke: #000000; stroke-width: 1.5;" x1="1562" x2="1736" y1="386" y2="386"/><line style="stroke: #000000; stroke-width: 1.5;" x1="1736" x2="1736" y1="386" y2="468"/><text fill="#000000" font-family="sans-serif" font-size="14" font-weight="bold" lengthAdjust="spacingAndGlyphs" textLength="60" x="1620" y="402.5352">Server_3</text><!--cluster Clients--><rect fill="#FFFFFF" filter="url(#f10ql177qeydpo)" height="269" style="stroke: #000000; stroke-width: 1.5;" width="289" x="30" y="32"/><path d="M91,33 L91,41.4883 L81,51.4883 L30,51.4883 " fill="none" style="stroke: #000000; stroke-width: 1.5;"/><text fill="#000000" font-family="sans-serif" font-size="14" font-weight="bold" lengthAdjust="spacingAndGlyphs" textLength="51" x="33" y="46.5352">Clients</text><!--entity LoadBalancer--><rect fill="#FEFECE" filter="url(#f10ql177qeydpo)" height="36.4883" style="stroke: #A80036; stroke-width: 1.5;" width="111" x="407.5" y="236"/><rect fill="#FEFECE" height="5" style="stroke: #A80036; stroke-width: 1.5;" width="10" x="402.5" y="241"/><rect fill="#FEFECE" height="5" style="stroke: #A80036; stroke-width: 1.5;" width="10" x="402.5" y="262.4883"/><text fill="#000000" font-family="sans-serif" font-size="14" lengthAdjust="spacingAndGlyphs" textLength="91" x="417.5" y="259.5352">LoadBalancer</text><!--entity Autoscaler--><rect fill="#FEFECE" filter="url(#f10ql177qeydpo)" height="36.4883" style="stroke: #A80036; stroke-width: 1.5;" width="93" x="553.5" y="236"/><rect fill="#FEFECE" height="5" style="stroke: #A80036; stroke-width: 1.5;" width="10" x="548.5" y="241"/><rect fill="#FEFECE" height="5" style="stroke: #A80036; stroke-width: 1.5;" width="10" x="548.5" y="262.4883"/><text fill="#000000" font-family="sans-serif" font-size="14" lengthAdjust="spacingAndGlyphs" textLength="73" x="563.5" y="259.5352">Autoscaler</text><!--entity Endpoint--><rect fill="#FEFECE" filter="url(#f10ql177qeydpo)" height="36.4883" style="stroke: #A80036; stroke-width: 1.5;" width="82" x="422" y="416"/><rect fill="#FEFECE" height="5" style="stroke: #A80036; stroke-width: 1.5;" width="10" x="417" y="421"/><rect fill="#FEFECE" height="5" style="stroke: #A80036; stroke-width: 1.5;" width="10" x="417" y="442.4883"/><text fill="#000000" font-family="sans-serif" font-size="14" lengthAdjust="spacingAndGlyphs" textLength="62" x="432" y="439.5352">Endpoint</text><!--entity Worker--><rect fill="#FEFECE" filter="url(#f10ql177qeydpo)" height="36.4883" style="stroke: #A80036; stroke-width: 1.5;" width="69" x="773.5" y="416"/><rect fill="#FEFECE" height="5" style="stroke: #A80036; stroke-width: 1.5;" width="10" x="768.5" y="421"/><rect fill="#FEFECE" height="5" style="stroke: #A80036; stroke-width: 1.5;" width="10" x="768.5" y="442.4883"/><text fill="#000000" font-family="sans-serif" font-size="14" lengthAdjust="spacingAndGlyphs" textLength="49" x="783.5" y="439.5352">Worker</text><!--entity Service--><rect fill="#FEFECE" filter="url(#f10ql177qeydpo)" height="36.4883" style="stroke: #A80036; stroke-width: 1.5;" width="68" x="878" y="416"/><rect fill="#FEFECE" height="5" style="stroke: #A80036; stroke-width: 1.5;" width="10" x="873" y="421"/><rect fill="#FEFECE" height="5" style="stroke: #A80036; stroke-width: 1.5;" width="10" x="873" y="442.4883"/><text fill="#000000" font-family="sans-serif" font-size="14" lengthAdjust="spacingAndGlyphs" textLength="48" x="888" y="439.5352">Service</text><!--entity Database--><path d="M773.5,522 C773.5,512 815,512 815,512 C815,512 856.5,512 856.5,522 L856.5,547.4883 C856.5,557.4883 815,557.4883 815,557.4883 C815,557.4883 773.5,557.4883 773.5,547.4883 L773.5,522 " fill="#FEFECE" filter="url(#f10ql177qeydpo)" style="stroke: #000000; stroke-width: 1.5;"/><path d="M773.5,522 C773.5,532 815,532 815,532 C815,532 856.5,532 856.5,522 " fill="none" style="stroke: #000000; stroke-width: 1.5;"/><text fill="#000000" font-family="sans-serif" font-size="14" lengthAdjust="spacingAndGlyphs" textLength="63" x="783.5" y="549.5352">Database</text><!--entity PaymentProvider_1--><rect fill="#FEFECE" filter="url(#f10ql177qeydpo)" height="36.4883" style="stroke: #A80036; stroke-width: 1.5;" width="151" x="1066.5" y="416"/><rect fill="#FEFECE" height="5" style="stroke: #A80036; stroke-width: 1.5;" width="10" x="1061.5" y="421"/><rect fill="#FEFECE" height="5" style="stroke: #A80036; stroke-width: 1.5;" width="10" x="1061.5" y="442.4883"/><text fill="#000000" font-family="sans-serif" font-size="14" lengthAdjust="spacingAndGlyphs" textLength="131" x="1076.5" y="439.5352">PaymentProvider_1</text><!--entity PaymentProvider_2--><rect fill="#FEFECE" filter="url(#f10ql177qeydpo)" height="36.4883" style="stroke: #A80036; stroke-width: 1.5;" width="151" x="1322.5" y="416"/><rect fill="#FEFECE" height="5" style="stroke: #A80036; stroke-width: 1.5;" width="10" x="1317.5" y="421"/><rect fill="#FEFECE" height="5" style="stroke: #A80036; stroke-width: 1.5;" width="10" x="1317.5" y="442.4883"/><text fill="#000000" font-family="sans-serif" font-size="14" lengthAdjust="spacingAndGlyphs" textLength="131" x="1332.5" y="439.5352">PaymentProvider_2</text><!--entity PaymentProvider_3--><rect fill="#FEFECE" filter="url(#f10ql177qeydpo)" height="36.4883" style="stroke: #A80036; stroke-width: 1.5;" width="151" x="1578.5" y="416"/><rect fill="#FEFECE" height="5" style="stroke: #A80036; stroke-width: 1.5;" width="10" x="1573.5" y="421"/><rect fill="#FEFECE" height="5" style="stroke: #A80036; stroke-width: 1.5;" width="10" x="1573.5" y="442.4883"/><text fill="#000000" font-family="sans-serif" font-size="14" lengthAdjust="spacingAndGlyphs" textLength="131" x="1588.5" y="439.5352">PaymentProvider_3</text><!--entity cl_1--><rect fill="#FEFECE" filter="url(#f10ql177qeydpo)" height="46.4883" style="stroke: #000000; stroke-width: 1.5;" width="93" x="54.5" y="75"/><path d="M85.5,76 L85.5,80 L78.5,87 L54.5,87 " fill="none" style="stroke: #000000; stroke-width: 1.5;"/><text fill="#000000" font-family="sans-serif" font-size="14" lengthAdjust="spacingAndGlyphs" textLength="53" x="69.5" y="108.5352">Client 1</text><!--entity cl_2--><rect fill="#FEFECE" filter="url(#f10ql177qeydpo)" height="46.4883" style="stroke: #000000; stroke-width: 1.5;" width="93" x="182.5" y="75"/><path d="M213.5,76 L213.5,80 L206.5,87 L182.5,87 " fill="none" style="stroke: #000000; stroke-width: 1.5;"/><text fill="#000000" font-family="sans-serif" font-size="14" lengthAdjust="spacingAndGlyphs" textLength="53" x="197.5" y="108.5352">Client 2</text><!--entity cl_n--><rect fill="#FEFECE" filter="url(#f10ql177qeydpo)" height="46.4883" style="stroke: #000000; stroke-width: 1.5;" width="94" x="54" y="231"/><path d="M85.3333,232 L85.3333,236 L78.3333,243 L54,243 " fill="none" style="stroke: #000000; stroke-width: 1.5;"/><text fill="#000000" font-family="sans-serif" font-size="14" lengthAdjust="spacingAndGlyphs" textLength="54" x="69" y="264.5352">Client N</text><!--link FrontendServer to VirtualMachine--><path d="M690.0643,280.6307 C690.1414,280.8758 690.2189,281.1221 690.2968,281.3698 C690.6085,282.3605 690.9269,283.3723 691.2514,284.4037 C696.4441,300.9075 703.2281,322.47 710.0113,344.03 C716.7944,365.59 723.5766,387.1475 728.7655,403.6413 C729.0898,404.6721 729.4079,405.6832 729.7193,406.6733 C729.7972,406.9208 729.8747,407.167 729.9517,407.4118 " fill="none" id="FrontendServer-VirtualMachine" style="stroke: #A80036; stroke-width: 1.0;"/><path d="M714.6342,335.1628 A10,10 0 0 0 701.144 339.407" fill="#FFFFFF" style="stroke: #A80036; stroke-width: 1.5;"/><ellipse cx="710.0113" cy="344.03" fill="#FFFFFF" rx="6" ry="6" style="stroke: #A80036; stroke-width: 1.5;"/><!--link Clients to FrontendServer--><path d="M319.5547,99.1079 C319.7751,99.111 319.9995,99.1142 320.2279,99.1175 C322.0546,99.1439 324.1323,99.1753 326.4425,99.2124 C335.6832,99.3607 348.6442,99.5996 364.1466,99.968 C395.1512,100.7047 436.3212,101.9594 478.225,104.0437 C562.0325,108.2125 648.775,115.7 663,129 C673.0225,138.3725 679.2625,150.6419 682.9748,163.8147 C684.831,170.4011 686.0553,177.2134 686.8045,184.0023 C686.8981,184.8509 686.9843,185.6992 687.0635,186.5466 C687.103,186.9703 687.1408,187.3938 687.1768,187.817 " fill="none" id="Clients-FrontendServer" style="stroke: #A80036; stroke-width: 1.0;"/><path d="M471.514,96.6301 A10,10 0 0 0 470.8114 110.7548" fill="#FFFFFF" style="stroke: #A80036; stroke-width: 1.5;"/><ellipse cx="478.225" cy="104.0437" fill="#FFFFFF" rx="6" ry="6" style="stroke: #A80036; stroke-width: 1.5;"/><!--link FrontendServer to PaymentProvider_1--><path d="M690.3084,256.1613 C690.4616,256.1835 690.6167,256.206 690.7738,256.2288 C695.801,256.9592 702.8439,258.0216 711.5216,259.4294 C728.8769,262.245 752.7713,266.4425 780.1575,272.13 C834.93,283.505 903.67,300.84 962,325 C1021.93,349.82 1085.54,392.34 1118.74,415.94 " fill="none" id="FrontendServer-PaymentProvider_1" style="stroke: #A80036; stroke-width: 1.0;"/><path d="M864.8434,285.0541 A10,10 0 0 0 861.0282 298.6719" fill="#FFFFFF" style="stroke: #A80036; stroke-width: 1.5;"/><ellipse cx="869.7447" cy="293.7706" fill="#FFFFFF" rx="6" ry="6" style="stroke: #A80036; stroke-width: 1.5;"/><!--link FrontendServer to PaymentProvider_2--><path d="M690.2694,255.5286 C690.5252,255.5454 690.7867,255.5626 691.0537,255.5802 C692.1219,255.6507 693.2794,255.7274 694.5233,255.8104 C697.0112,255.9763 699.845,256.1672 703.0021,256.3828 C715.6307,257.2449 733.433,258.5011 754.9666,260.1297 C798.0338,263.3869 856.0263,268.1337 917.405,274.1975 C1040.1625,286.325 1176.465,303.72 1234,325 C1291.55,346.29 1349.25,391.03 1378.44,415.72 " fill="none" id="FrontendServer-PaymentProvider_2" style="stroke: #A80036; stroke-width: 1.0;"/><path d="M1094.2216,288.1214 A10,10 0 0 0 1092.1158 302.1059" fill="#FFFFFF" style="stroke: #A80036; stroke-width: 1.5;"/><ellipse cx="1100.1609" cy="296.1666" fill="#FFFFFF" rx="6" ry="6" style="stroke: #A80036; stroke-width: 1.5;"/><!--link FrontendServer to PaymentProvider_3--><path d="M690.0078,255.1502 C690.3152,255.1564 690.6311,255.1628 690.9553,255.1694 C696.144,255.2746 703.4883,255.4317 712.7246,255.6494 C731.1974,256.0849 757.2386,256.7633 788.7397,257.7559 C851.7419,259.7413 936.5838,262.9838 1026.3975,268.055 C1206.025,278.1975 1405.54,295.655 1490,325 C1548.29,345.25 1606.14,390.85 1635.03,415.84 " fill="none" id="FrontendServer-PaymentProvider_3" style="stroke: #A80036; stroke-width: 1.0;"/><path d="M1287.648,281.5112 A10,10 0 0 0 1286.0712 295.5651" fill="#FFFFFF" style="stroke: #A80036; stroke-width: 1.5;"/><ellipse cx="1293.8866" cy="289.3266" fill="#FFFFFF" rx="6" ry="6" style="stroke: #A80036; stroke-width: 1.5;"/><!--link LoadBalancer to Autoscaler--><!--link LoadBalancer to Endpoint--><!--link Worker to Service--><!--link Worker to Database--><!--link cl_1 to cl_2--><!--link cl_1 to cl_n--><!--
@startuml
cloud Cloud {
    node FrontendServer {
        component LoadBalancer
        component Autoscaler
        component Endpoint
    }
    node VirtualMachine {
        component Worker
        component Service
        database Database
    }
    FrontendServer -(0- VirtualMachine
}

cloud Vendor_1 {
    node Server_1 {
        component PaymentProvider_1
    }
}

cloud Vendor_2 {
    node Server_2 {
        component PaymentProvider_2
    }
}

cloud Vendor_3 {
    node Server_3 {
        component PaymentProvider_3
    }
}

frame Clients {
    frame cl_1 [
        Client 1
    ]
    frame cl_2 [
        Client 2
    ]
    frame cl_n [
        Client N
    ]
}

Clients -(0- FrontendServer
FrontendServer -(0- PaymentProvider_1
FrontendServer -(0- PaymentProvider_2
FrontendServer -(0- PaymentProvider_3
@enduml

PlantUML version 1.2019.09(Mon Aug 26 18:19:51 CEST 2019)
(GPL source distribution)
Java Runtime: Java(TM) SE Runtime Environment
JVM: Java HotSpot(TM) 64-Bit Server VM
Java Version: 1.8.0_221-b11
Operating System: Mac OS X
OS Version: 10.15
Default Encoding: UTF-8
Language: en
Country: CZ
--></g></svg>