<?xml version="1.0" encoding="UTF-8" standalone="no"?><svg xmlns="http://www.w3.org/2000/svg" xmlns:xlink="http://www.w3.org/1999/xlink" contentScriptType="application/ecmascript" contentStyleType="text/css" height="788px" preserveAspectRatio="none" style="width:2075px;height:788px;" version="1.1" viewBox="0 0 2075 788" width="2075px" zoomAndPan="magnify"><defs><filter height="300%" id="f1kbg921ctok5y" width="300%" x="-1" y="-1"><feGaussianBlur result="blurOut" stdDeviation="2.0"/><feColorMatrix in="blurOut" result="blurOut2" type="matrix" values="0 0 0 0 0 0 0 0 0 0 0 0 0 0 0 0 0 0 .4 0"/><feOffset dx="4.0" dy="4.0" in="blurOut2" result="blurOut3"/><feBlend in="SourceGraphic" in2="blurOut3" mode="normal"/></filter></defs><g><text fill="#000000" font-family="sans-serif" font-size="22" font-weight="bold" lengthAdjust="spacingAndGlyphs" textLength="237" x="936" y="21.2695">Deployment diagram</text><!--cluster Clients--><rect fill="#FFFFFF" filter="url(#f1kbg921ctok5y)" height="269" style="stroke: #000000; stroke-width: 1.5;" width="289" x="54" y="82.4102"/><path d="M115,83.4102 L115,91.8984 L105,101.8984 L54,101.8984 " fill="none" style="stroke: #000000; stroke-width: 1.5;"/><text fill="#000000" font-family="sans-serif" font-size="14" font-weight="bold" lengthAdjust="spacingAndGlyphs" textLength="51" x="57" y="96.9453">Clients</text><!--cluster KeyVaultServer--><polygon fill="#FFFFFF" filter="url(#f1kbg921ctok5y)" points="1051,624.4102,1061,614.4102,1235,614.4102,1235,696.4102,1225,706.4102,1051,706.4102,1051,624.4102" style="stroke: #000000; stroke-width: 1.5;"/><line style="stroke: #000000; stroke-width: 1.5;" x1="1225" x2="1234" y1="624.4102" y2="615.4102"/><line style="stroke: #000000; stroke-width: 1.5;" x1="1051" x2="1225" y1="624.4102" y2="624.4102"/><line style="stroke: #000000; stroke-width: 1.5;" x1="1225" x2="1225" y1="624.4102" y2="706.4102"/><text fill="#000000" font-family="sans-serif" font-size="14" font-weight="bold" lengthAdjust="spacingAndGlyphs" textLength="108" x="1085" y="640.9453">KeyVaultServer</text><!--cluster Cloud--><path d="M394.5425,202.3061 C404.6951,182.6719 423.8945,181.9675 437.321,198.4258 C450.9711,173.137 468.6976,173.4347 485.3644,195.3558 C500.5414,177.4193 514.5235,179.747 526.3672,199.0281 C537.257,176.162 558.9567,171.146 575.7459,192.43 C591.2219,174.7376 608.2067,173.9196 619.6317,196.8107 C631.8646,172.2801 648.1521,173.2387 664.58,192.5055 C671.5641,168.8207 692.0106,167.8135 705.0752,186.7249 C725.5818,164.0443 741.7049,167.9098 752.9858,195.5148 C763.5254,175.219 775.8648,171.1552 791.6085,190.4361 C809.3668,164.3265 826.8279,170.1882 842.233,192.8773 C855.1675,175.5928 871.971,178.0084 881.3546,196.7348 C895.2231,173.5987 909.9652,175.8737 925.1232,195.4123 C940.6296,177.0057 964.6584,175.2853 974.0858,202.0077 C988.7251,179.8642 1004.726,183.7827 1019,202.4102 C1022.0058,199.3621 1023.8626,200.389 1025.5097,203.7831 C1048.2811,220.2314 1046.6843,234.3417 1025.4184,250.7043 C1041.997,265.2249 1043.8707,284.2678 1020.9275,294.7598 C1039.6513,308.6919 1044.2795,323.8 1022.6203,339.268 C1046.2317,350.8023 1045.405,365.7205 1025.9658,380.7286 C1049.6222,396.8584 1044.1713,417.1248 1023.1757,430.7647 C1043.4981,444.215 1043.6104,459.0487 1024.8444,474.0073 C1046.3933,483.8022 1049.8886,501.0991 1030.3583,516.2553 C1049.1746,535.3986 1053.2623,552.2636 1024.3746,565.6251 C1043.6019,577.2063 1043.8598,594.7683 1025.7704,607.5908 C1044.2317,621.2927 1044.8423,635.975 1023.6487,647.5725 C1044.5235,660.1978 1046.2442,680.9523 1025.0503,694.8255 C1045.8433,716.293 1037.7851,734.0841 1012,742.9102 C1016.6295,741.8262 1018.1092,744.7205 1017.3665,748.655 C1002.1065,771.3003 982.6923,766.1671 969.5749,746.2493 C956.8149,764.8682 941.6835,769.0663 926.7971,748.5749 C912.7502,770.5592 898.7292,767.3913 885.6787,747.5943 C874.5327,769.9826 852.7555,766.5059 841.5526,747.6552 C825.5022,770.0542 811.0342,768.7975 794.1874,748.5395 C780.8313,773.121 765.2004,771.1031 748.757,751.7306 C732.7625,773.0009 716.3877,774.1324 703.4916,748.7259 C691.3868,769.7245 678.8883,774.8528 661.6992,753.7759 C648.3186,772.664 626.1713,776.3231 614.3188,752.0966 C602.574,771.2747 581.6785,774.4508 570.2979,751.7141 C555.9396,775.2165 535.479,772.4423 524.3324,748.5962 C512.3245,768.1871 490.1621,771.8627 479.4154,747.3128 C467.9259,767.6478 452.2106,769.1172 437.2832,751.0885 C414.7481,776.1711 389.7089,767.4276 383,735.9102 C387.4768,734.9327 390.8575,736.8048 389.5285,742.0254 C364.1337,730.9695 358.8201,711.0451 383.1094,693.4266 C364.566,678.8769 363.9533,663.4648 385.7941,651.5011 C363.2982,636.2166 364.0022,616.5865 388.5105,603.9895 C366.4921,594.0861 362.9359,575.3742 382.9497,560.1404 C365.5484,545.6664 365.3426,527.9091 386.3097,516.3813 C365.5652,502.2107 366.7032,485.9884 387.8066,473.2708 C367.7315,462.5143 362.8122,442.8387 382.1559,427.2429 C365.3782,410.3228 366.7455,396.5645 387.3684,384.1704 C368.0874,372.7658 368.4831,354.0521 387.129,342.4299 C368.605,330.6704 361.1092,311.8376 384.8989,297.9564 C366.2087,283.9667 364.6108,267.7889 384.6236,253.5593 C354.9958,232.3683 356.7362,210.7863 390,195.4102 C395.0457,195.1182 396.8934,197.7258 394.5425,202.3061 " fill="#FFFFFF" style="stroke: #000000; stroke-width: 1.5;"/><text fill="#000000" font-family="sans-serif" font-size="14" font-weight="bold" lengthAdjust="spacingAndGlyphs" textLength="42" x="680" y="213.9453">Cloud</text><!--cluster VirtualMachines--><polygon fill="#FFFFFF" filter="url(#f1kbg921ctok5y)" points="754,452.4102,764,442.4102,995,442.4102,995,708.9102,985,718.9102,754,718.9102,754,452.4102" style="stroke: #000000; stroke-width: 1.5;"/><line style="stroke: #000000; stroke-width: 1.5;" x1="985" x2="994" y1="452.4102" y2="443.4102"/><line style="stroke: #000000; stroke-width: 1.5;" x1="754" x2="985" y1="452.4102" y2="452.4102"/><line style="stroke: #000000; stroke-width: 1.5;" x1="985" x2="985" y1="452.4102" y2="718.9102"/><text fill="#000000" font-family="sans-serif" font-size="14" font-weight="bold" lengthAdjust="spacingAndGlyphs" textLength="116" x="812.5" y="468.9453">VirtualMachines</text><!--cluster FrontendServer--><polygon fill="#FFFFFF" filter="url(#f1kbg921ctok5y)" points="407,248.4102,417,238.4102,714,238.4102,714,540.4102,704,550.4102,407,550.4102,407,248.4102" style="stroke: #000000; stroke-width: 1.5;"/><line style="stroke: #000000; stroke-width: 1.5;" x1="704" x2="713" y1="248.4102" y2="239.4102"/><line style="stroke: #000000; stroke-width: 1.5;" x1="407" x2="704" y1="248.4102" y2="248.4102"/><line style="stroke: #000000; stroke-width: 1.5;" x1="704" x2="704" y1="248.4102" y2="550.4102"/><text fill="#000000" font-family="sans-serif" font-size="14" font-weight="bold" lengthAdjust="spacingAndGlyphs" textLength="108" x="502.5" y="264.9453">FrontendServer</text><!--cluster Vendor_1--><path d="M1835.1766,417.8428 C1837.7088,411.8999 1844.2549,409.5466 1848.6907,415.7196 C1851.4246,408.2814 1858.5001,406.2311 1863.9894,412.6853 C1868.3922,406.7968 1873.1431,404.8214 1877.8776,412.3418 C1881.072,405.9047 1887.4239,405.703 1891.8014,410.9296 C1896.348,403.5691 1901.5628,401.8034 1908.0622,408.7028 C1912.9758,401.5347 1917.6176,401.6061 1923.2971,407.8317 C1927.6906,401.7777 1933.1495,400.3616 1937.5402,407.8347 C1941.4802,402.0846 1945.6237,400.5073 1950.4639,406.8745 C1956.5499,399.1281 1961.5141,401.3039 1966.1267,408.4265 C1971.6388,402.5715 1977.3612,402.9924 1981.038,410.4779 C1984.9154,405.0263 1990.9985,405.3681 1993.8519,411.6009 C1998.3234,406.5726 2005.2658,407.338 2007.711,414.0025 C2013.3658,407.4677 2017.5451,407.9977 2021.5788,415.5934 C2030.6883,408.1523 2040.187,410.0647 2043,422.4102 C2044.6355,422.5879 2045.464,423.1354 2044.6768,424.9272 C2051.835,428.4305 2053.1612,433.6754 2046.4762,438.9545 C2055.1917,442.4589 2057.5939,448.3695 2049.8922,455.3041 C2060.6649,459.1131 2061.9186,465.3038 2053.7994,473.2304 C2061.766,475.7445 2063.8828,482.5329 2057.4699,488.5028 C2063.5995,494.7868 2060.5561,500.5301 2053.467,503.2183 C2060.2784,509.9025 2059.8773,517.8334 2050.3879,521.8193 C2055.0651,527.0276 2055.2254,532.4715 2047.818,535.3916 C2055.8939,546.9238 2050.4019,558.4185 2036,558.4102 C2037.7159,557.5365 2038.9393,558.1821 2038.888,560.1846 C2033.502,568.0205 2026.255,568.0021 2020.9819,560.0563 C2016.1718,568.0539 2007.2965,569.8303 2002.6765,559.8626 C1997.4324,568.3619 1992.2418,566.657 1986.8202,560.0489 C1982.0489,568.2459 1976.3302,568.9974 1969.7002,562.1663 C1964.6984,570.1035 1957.5196,571.5651 1952.2047,562.4883 C1946.2842,569.5022 1940.9387,569.9112 1935.3954,562.0616 C1930.6309,568.052 1923.9834,568.1424 1920.2403,560.8924 C1915.2168,569.0821 1909.3295,571.7259 1902.3462,562.9607 C1896.6789,569.5272 1890.2342,568.9543 1887.3172,560.2534 C1882.1548,569.4228 1872.8902,567.9293 1868.4356,559.4942 C1863.8937,567.7992 1858.2707,568.8466 1852.0473,561.2244 C1839.3459,568.623 1830.584,567.2802 1827,551.4102 C1827.86,551.4195 1828.3913,552.0522 1827.8756,552.8807 C1819.5324,549.7832 1818.05,543.7399 1825.4491,538.0642 C1815.777,533.8385 1815.5148,525.8923 1824.6627,520.8089 C1815.8607,517.8727 1814.4114,512.5139 1820.9365,505.7781 C1811.9738,501.2511 1811.1126,493.8849 1818.7291,487.3698 C1810.3472,482.4586 1810.6763,475.7548 1819.2541,471.4011 C1813.3768,466.241 1814.9326,459.2211 1822.1857,456.675 C1813.9727,451.2979 1815.0851,443.1296 1824.4775,440.2017 C1816.1897,427.1593 1818.1733,419.1901 1834,415.4102 C1835.5491,415.6535 1835.824,416.5371 1835.1766,417.8428 " fill="#FFFFFF" style="stroke: #000000; stroke-width: 1.5;"/><text fill="#000000" font-family="sans-serif" font-size="14" font-weight="bold" lengthAdjust="spacingAndGlyphs" textLength="67" x="1901.5" y="433.9453">Vendor_1</text><!--cluster Server_1--><polygon fill="#FFFFFF" filter="url(#f1kbg921ctok5y)" points="1843,460.4102,1853,450.4102,2027,450.4102,2027,532.4102,2017,542.4102,1843,542.4102,1843,460.4102" style="stroke: #000000; stroke-width: 1.5;"/><line style="stroke: #000000; stroke-width: 1.5;" x1="2017" x2="2026" y1="460.4102" y2="451.4102"/><line style="stroke: #000000; stroke-width: 1.5;" x1="1843" x2="2017" y1="460.4102" y2="460.4102"/><line style="stroke: #000000; stroke-width: 1.5;" x1="2017" x2="2017" y1="460.4102" y2="542.4102"/><text fill="#000000" font-family="sans-serif" font-size="14" font-weight="bold" lengthAdjust="spacingAndGlyphs" textLength="60" x="1901" y="476.9453">Server_1</text><!--cluster Vendor_2--><path d="M1579.1766,417.8428 C1581.7088,411.8999 1588.2549,409.5466 1592.6907,415.7196 C1595.4246,408.2814 1602.5001,406.2311 1607.9894,412.6853 C1612.3922,406.7968 1617.1431,404.8214 1621.8776,412.3418 C1625.072,405.9047 1631.4239,405.703 1635.8014,410.9296 C1640.348,403.5691 1645.5628,401.8034 1652.0622,408.7028 C1656.9758,401.5347 1661.6176,401.6061 1667.2971,407.8317 C1671.6906,401.7777 1677.1495,400.3616 1681.5402,407.8347 C1685.4802,402.0846 1689.6237,400.5073 1694.4639,406.8745 C1700.5499,399.1281 1705.5141,401.3039 1710.1267,408.4265 C1715.6388,402.5715 1721.3612,402.9924 1725.038,410.4779 C1728.9154,405.0263 1734.9985,405.3681 1737.8519,411.6009 C1742.3234,406.5726 1749.2658,407.338 1751.711,414.0025 C1757.3658,407.4677 1761.5451,407.9977 1765.5788,415.5934 C1774.6883,408.1523 1784.187,410.0647 1787,422.4102 C1788.6355,422.5879 1789.464,423.1354 1788.6768,424.9272 C1795.835,428.4305 1797.1612,433.6754 1790.4762,438.9545 C1799.1917,442.4589 1801.5939,448.3695 1793.8922,455.3041 C1804.6649,459.1131 1805.9186,465.3038 1797.7994,473.2304 C1805.766,475.7445 1807.8828,482.5329 1801.4699,488.5028 C1807.5995,494.7868 1804.5561,500.5301 1797.467,503.2183 C1804.2784,509.9025 1803.8773,517.8334 1794.3879,521.8193 C1799.0651,527.0276 1799.2254,532.4715 1791.818,535.3916 C1799.8939,546.9238 1794.4019,558.4185 1780,558.4102 C1781.7159,557.5365 1782.9393,558.1821 1782.888,560.1846 C1777.502,568.0205 1770.255,568.0021 1764.9819,560.0563 C1760.1718,568.0539 1751.2965,569.8303 1746.6765,559.8626 C1741.4324,568.3619 1736.2418,566.657 1730.8202,560.0489 C1726.0489,568.2459 1720.3302,568.9974 1713.7002,562.1663 C1708.6984,570.1035 1701.5196,571.5651 1696.2047,562.4883 C1690.2842,569.5022 1684.9387,569.9112 1679.3954,562.0616 C1674.6309,568.052 1667.9834,568.1424 1664.2403,560.8924 C1659.2168,569.0821 1653.3295,571.7259 1646.3462,562.9607 C1640.6789,569.5272 1634.2342,568.9543 1631.3172,560.2534 C1626.1548,569.4228 1616.8902,567.9293 1612.4356,559.4942 C1607.8937,567.7992 1602.2707,568.8466 1596.0473,561.2244 C1583.3459,568.623 1574.584,567.2802 1571,551.4102 C1571.86,551.4195 1572.3913,552.0522 1571.8756,552.8807 C1563.5324,549.7832 1562.05,543.7399 1569.4491,538.0642 C1559.777,533.8385 1559.5148,525.8923 1568.6627,520.8089 C1559.8607,517.8727 1558.4114,512.5139 1564.9365,505.7781 C1555.9738,501.2511 1555.1126,493.8849 1562.7291,487.3698 C1554.3472,482.4586 1554.6763,475.7548 1563.2541,471.4011 C1557.3768,466.241 1558.9326,459.2211 1566.1857,456.675 C1557.9727,451.2979 1559.0851,443.1296 1568.4775,440.2017 C1560.1897,427.1593 1562.1733,419.1901 1578,415.4102 C1579.5491,415.6535 1579.824,416.5371 1579.1766,417.8428 " fill="#FFFFFF" style="stroke: #000000; stroke-width: 1.5;"/><text fill="#000000" font-family="sans-serif" font-size="14" font-weight="bold" lengthAdjust="spacingAndGlyphs" textLength="67" x="1645.5" y="433.9453">Vendor_2</text><!--cluster Server_2--><polygon fill="#FFFFFF" filter="url(#f1kbg921ctok5y)" points="1587,460.4102,1597,450.4102,1771,450.4102,1771,532.4102,1761,542.4102,1587,542.4102,1587,460.4102" style="stroke: #000000; stroke-width: 1.5;"/><line style="stroke: #000000; stroke-width: 1.5;" x1="1761" x2="1770" y1="460.4102" y2="451.4102"/><line style="stroke: #000000; stroke-width: 1.5;" x1="1587" x2="1761" y1="460.4102" y2="460.4102"/><line style="stroke: #000000; stroke-width: 1.5;" x1="1761" x2="1761" y1="460.4102" y2="542.4102"/><text fill="#000000" font-family="sans-serif" font-size="14" font-weight="bold" lengthAdjust="spacingAndGlyphs" textLength="60" x="1645" y="476.9453">Server_2</text><!--cluster Vendor_3--><path d="M1323.1766,417.8428 C1325.7088,411.8999 1332.2549,409.5466 1336.6907,415.7196 C1339.4246,408.2814 1346.5001,406.2311 1351.9894,412.6853 C1356.3922,406.7968 1361.1431,404.8214 1365.8776,412.3418 C1369.072,405.9047 1375.4239,405.703 1379.8014,410.9296 C1384.348,403.5691 1389.5628,401.8034 1396.0622,408.7028 C1400.9758,401.5347 1405.6176,401.6061 1411.2971,407.8317 C1415.6906,401.7777 1421.1495,400.3616 1425.5402,407.8347 C1429.4802,402.0846 1433.6237,400.5073 1438.4639,406.8745 C1444.5499,399.1281 1449.5141,401.3039 1454.1267,408.4265 C1459.6388,402.5715 1465.3612,402.9924 1469.038,410.4779 C1472.9154,405.0263 1478.9985,405.3681 1481.8519,411.6009 C1486.3234,406.5726 1493.2658,407.338 1495.711,414.0025 C1501.3658,407.4677 1505.5451,407.9977 1509.5788,415.5934 C1518.6883,408.1523 1528.187,410.0647 1531,422.4102 C1532.6355,422.5879 1533.464,423.1354 1532.6768,424.9272 C1539.835,428.4305 1541.1612,433.6754 1534.4762,438.9545 C1543.1917,442.4589 1545.5939,448.3695 1537.8922,455.3041 C1548.6649,459.1131 1549.9186,465.3038 1541.7994,473.2304 C1549.766,475.7445 1551.8828,482.5329 1545.4699,488.5028 C1551.5995,494.7868 1548.5561,500.5301 1541.467,503.2183 C1548.2784,509.9025 1547.8773,517.8334 1538.3879,521.8193 C1543.0651,527.0276 1543.2254,532.4715 1535.818,535.3916 C1543.8939,546.9238 1538.4019,558.4185 1524,558.4102 C1525.7159,557.5365 1526.9393,558.1821 1526.888,560.1846 C1521.502,568.0205 1514.255,568.0021 1508.9819,560.0563 C1504.1718,568.0539 1495.2965,569.8303 1490.6765,559.8626 C1485.4324,568.3619 1480.2418,566.657 1474.8202,560.0489 C1470.0489,568.2459 1464.3302,568.9974 1457.7002,562.1663 C1452.6984,570.1035 1445.5196,571.5651 1440.2047,562.4883 C1434.2842,569.5022 1428.9387,569.9112 1423.3954,562.0616 C1418.6309,568.052 1411.9834,568.1424 1408.2403,560.8924 C1403.2168,569.0821 1397.3295,571.7259 1390.3462,562.9607 C1384.6789,569.5272 1378.2342,568.9543 1375.3172,560.2534 C1370.1548,569.4228 1360.8902,567.9293 1356.4356,559.4942 C1351.8937,567.7992 1346.2707,568.8466 1340.0473,561.2244 C1327.3459,568.623 1318.584,567.2802 1315,551.4102 C1315.86,551.4195 1316.3913,552.0522 1315.8756,552.8807 C1307.5324,549.7832 1306.05,543.7399 1313.4491,538.0642 C1303.777,533.8385 1303.5148,525.8923 1312.6627,520.8089 C1303.8607,517.8727 1302.4114,512.5139 1308.9365,505.7781 C1299.9738,501.2511 1299.1126,493.8849 1306.7291,487.3698 C1298.3472,482.4586 1298.6763,475.7548 1307.2541,471.4011 C1301.3768,466.241 1302.9326,459.2211 1310.1857,456.675 C1301.9727,451.2979 1303.0851,443.1296 1312.4775,440.2017 C1304.1897,427.1593 1306.1733,419.1901 1322,415.4102 C1323.5491,415.6535 1323.824,416.5371 1323.1766,417.8428 " fill="#FFFFFF" style="stroke: #000000; stroke-width: 1.5;"/><text fill="#000000" font-family="sans-serif" font-size="14" font-weight="bold" lengthAdjust="spacingAndGlyphs" textLength="67" x="1389.5" y="433.9453">Vendor_3</text><!--cluster Server_3--><polygon fill="#FFFFFF" filter="url(#f1kbg921ctok5y)" points="1331,460.4102,1341,450.4102,1515,450.4102,1515,532.4102,1505,542.4102,1331,542.4102,1331,460.4102" style="stroke: #000000; stroke-width: 1.5;"/><line style="stroke: #000000; stroke-width: 1.5;" x1="1505" x2="1514" y1="460.4102" y2="451.4102"/><line style="stroke: #000000; stroke-width: 1.5;" x1="1331" x2="1505" y1="460.4102" y2="460.4102"/><line style="stroke: #000000; stroke-width: 1.5;" x1="1505" x2="1505" y1="460.4102" y2="542.4102"/><text fill="#000000" font-family="sans-serif" font-size="14" font-weight="bold" lengthAdjust="spacingAndGlyphs" textLength="60" x="1389" y="476.9453">Server_3</text><!--entity cl_1--><rect fill="#FEFECE" filter="url(#f1kbg921ctok5y)" height="46.4883" style="stroke: #000000; stroke-width: 1.5;" width="93" x="78.5" y="125.4102"/><path d="M109.5,126.4102 L109.5,130.4102 L102.5,137.4102 L78.5,137.4102 " fill="none" style="stroke: #000000; stroke-width: 1.5;"/><text fill="#000000" font-family="sans-serif" font-size="14" lengthAdjust="spacingAndGlyphs" textLength="53" x="93.5" y="158.9453">Client 1</text><!--entity cl_2--><rect fill="#FEFECE" filter="url(#f1kbg921ctok5y)" height="46.4883" style="stroke: #000000; stroke-width: 1.5;" width="93" x="206.5" y="125.4102"/><path d="M237.5,126.4102 L237.5,130.4102 L230.5,137.4102 L206.5,137.4102 " fill="none" style="stroke: #000000; stroke-width: 1.5;"/><text fill="#000000" font-family="sans-serif" font-size="14" lengthAdjust="spacingAndGlyphs" textLength="53" x="221.5" y="158.9453">Client 2</text><!--entity cl_n--><rect fill="#FEFECE" filter="url(#f1kbg921ctok5y)" height="46.4883" style="stroke: #000000; stroke-width: 1.5;" width="94" x="78" y="281.4102"/><path d="M109.3333,282.4102 L109.3333,286.4102 L102.3333,293.4102 L78,293.4102 " fill="none" style="stroke: #000000; stroke-width: 1.5;"/><text fill="#000000" font-family="sans-serif" font-size="14" lengthAdjust="spacingAndGlyphs" textLength="54" x="93" y="314.9453">Client N</text><!--entity KeyVault--><rect fill="#FEFECE" filter="url(#f1kbg921ctok5y)" height="36.4883" style="stroke: #A80036; stroke-width: 1.5;" width="79" x="1067.5" y="654.4102"/><rect fill="#FEFECE" height="5" style="stroke: #A80036; stroke-width: 1.5;" width="10" x="1062.5" y="659.4102"/><rect fill="#FEFECE" height="5" style="stroke: #A80036; stroke-width: 1.5;" width="10" x="1062.5" y="680.8984"/><text fill="#000000" font-family="sans-serif" font-size="14" lengthAdjust="spacingAndGlyphs" textLength="59" x="1077.5" y="677.9453">KeyVault</text><!--entity Worker--><rect fill="#FEFECE" filter="url(#f1kbg921ctok5y)" height="36.4883" style="stroke: #A80036; stroke-width: 1.5;" width="69" x="778.5" y="490.4102"/><rect fill="#FEFECE" height="5" style="stroke: #A80036; stroke-width: 1.5;" width="10" x="773.5" y="495.4102"/><rect fill="#FEFECE" height="5" style="stroke: #A80036; stroke-width: 1.5;" width="10" x="773.5" y="516.8984"/><text fill="#000000" font-family="sans-serif" font-size="14" lengthAdjust="spacingAndGlyphs" textLength="49" x="788.5" y="513.9453">Worker</text><!--entity Service--><rect fill="#FEFECE" filter="url(#f1kbg921ctok5y)" height="36.4883" style="stroke: #A80036; stroke-width: 1.5;" width="68" x="883" y="490.4102"/><rect fill="#FEFECE" height="5" style="stroke: #A80036; stroke-width: 1.5;" width="10" x="878" y="495.4102"/><rect fill="#FEFECE" height="5" style="stroke: #A80036; stroke-width: 1.5;" width="10" x="878" y="516.8984"/><text fill="#000000" font-family="sans-serif" font-size="14" lengthAdjust="spacingAndGlyphs" textLength="48" x="893" y="513.9453">Service</text><!--entity Crypto--><rect fill="#FEFECE" filter="url(#f1kbg921ctok5y)" height="36.4883" style="stroke: #A80036; stroke-width: 1.5;" width="66" x="778" y="654.4102"/><rect fill="#FEFECE" height="5" style="stroke: #A80036; stroke-width: 1.5;" width="10" x="773" y="659.4102"/><rect fill="#FEFECE" height="5" style="stroke: #A80036; stroke-width: 1.5;" width="10" x="773" y="680.8984"/><text fill="#000000" font-family="sans-serif" font-size="14" lengthAdjust="spacingAndGlyphs" textLength="46" x="788" y="677.9453">Crypto</text><!--entity Database--><path d="M879.5,659.9102 C879.5,649.9102 921,649.9102 921,649.9102 C921,649.9102 962.5,649.9102 962.5,659.9102 L962.5,685.3984 C962.5,695.3984 921,695.3984 921,695.3984 C921,695.3984 879.5,695.3984 879.5,685.3984 L879.5,659.9102 " fill="#FEFECE" filter="url(#f1kbg921ctok5y)" style="stroke: #000000; stroke-width: 1.5;"/><path d="M879.5,659.9102 C879.5,669.9102 921,669.9102 921,669.9102 C921,669.9102 962.5,669.9102 962.5,659.9102 " fill="none" style="stroke: #000000; stroke-width: 1.5;"/><text fill="#000000" font-family="sans-serif" font-size="14" lengthAdjust="spacingAndGlyphs" textLength="63" x="889.5" y="687.4453">Database</text><!--entity LoadBalancer--><rect fill="#FEFECE" filter="url(#f1kbg921ctok5y)" height="36.4883" style="stroke: #A80036; stroke-width: 1.5;" width="111" x="431.5" y="286.4102"/><rect fill="#FEFECE" height="5" style="stroke: #A80036; stroke-width: 1.5;" width="10" x="426.5" y="291.4102"/><rect fill="#FEFECE" height="5" style="stroke: #A80036; stroke-width: 1.5;" width="10" x="426.5" y="312.8984"/><text fill="#000000" font-family="sans-serif" font-size="14" lengthAdjust="spacingAndGlyphs" textLength="91" x="441.5" y="309.9453">LoadBalancer</text><!--entity Autoscaler--><rect fill="#FEFECE" filter="url(#f1kbg921ctok5y)" height="36.4883" style="stroke: #A80036; stroke-width: 1.5;" width="93" x="577.5" y="286.4102"/><rect fill="#FEFECE" height="5" style="stroke: #A80036; stroke-width: 1.5;" width="10" x="572.5" y="291.4102"/><rect fill="#FEFECE" height="5" style="stroke: #A80036; stroke-width: 1.5;" width="10" x="572.5" y="312.8984"/><text fill="#000000" font-family="sans-serif" font-size="14" lengthAdjust="spacingAndGlyphs" textLength="73" x="587.5" y="309.9453">Autoscaler</text><!--entity Endpoint--><rect fill="#FEFECE" filter="url(#f1kbg921ctok5y)" height="36.4883" style="stroke: #A80036; stroke-width: 1.5;" width="82" x="446" y="490.4102"/><rect fill="#FEFECE" height="5" style="stroke: #A80036; stroke-width: 1.5;" width="10" x="441" y="495.4102"/><rect fill="#FEFECE" height="5" style="stroke: #A80036; stroke-width: 1.5;" width="10" x="441" y="516.8984"/><text fill="#000000" font-family="sans-serif" font-size="14" lengthAdjust="spacingAndGlyphs" textLength="62" x="456" y="513.9453">Endpoint</text><!--entity PaymentProvider_1--><rect fill="#FEFECE" filter="url(#f1kbg921ctok5y)" height="36.4883" style="stroke: #A80036; stroke-width: 1.5;" width="151" x="1859.5" y="490.4102"/><rect fill="#FEFECE" height="5" style="stroke: #A80036; stroke-width: 1.5;" width="10" x="1854.5" y="495.4102"/><rect fill="#FEFECE" height="5" style="stroke: #A80036; stroke-width: 1.5;" width="10" x="1854.5" y="516.8984"/><text fill="#000000" font-family="sans-serif" font-size="14" lengthAdjust="spacingAndGlyphs" textLength="131" x="1869.5" y="513.9453">PaymentProvider_1</text><!--entity PaymentProvider_2--><rect fill="#FEFECE" filter="url(#f1kbg921ctok5y)" height="36.4883" style="stroke: #A80036; stroke-width: 1.5;" width="151" x="1603.5" y="490.4102"/><rect fill="#FEFECE" height="5" style="stroke: #A80036; stroke-width: 1.5;" width="10" x="1598.5" y="495.4102"/><rect fill="#FEFECE" height="5" style="stroke: #A80036; stroke-width: 1.5;" width="10" x="1598.5" y="516.8984"/><text fill="#000000" font-family="sans-serif" font-size="14" lengthAdjust="spacingAndGlyphs" textLength="131" x="1613.5" y="513.9453">PaymentProvider_2</text><!--entity PaymentProvider_3--><rect fill="#FEFECE" filter="url(#f1kbg921ctok5y)" height="36.4883" style="stroke: #A80036; stroke-width: 1.5;" width="151" x="1347.5" y="490.4102"/><rect fill="#FEFECE" height="5" style="stroke: #A80036; stroke-width: 1.5;" width="10" x="1342.5" y="495.4102"/><rect fill="#FEFECE" height="5" style="stroke: #A80036; stroke-width: 1.5;" width="10" x="1342.5" y="516.8984"/><text fill="#000000" font-family="sans-serif" font-size="14" lengthAdjust="spacingAndGlyphs" textLength="131" x="1357.5" y="513.9453">PaymentProvider_3</text><!--link FrontendServer to VirtualMachines--><path d="M714.2365,306.2375 C714.4188,306.2566 714.6039,306.2762 714.7918,306.296 C715.5432,306.3753 716.3388,306.46 717.1769,306.5501 C723.8816,307.2707 733.3076,308.335 744.6414,309.7523 C767.3091,312.587 797.6081,316.8339 829.0313,322.5677 C891.8775,334.0352 959.22,351.4502 979,375.4102 C997.415,397.7202 999.64,430.0452 997.1513,457.1227 C996.8402,460.5073 996.4554,463.81 996.0194,467.0009 C995.8014,468.5964 995.5706,470.1639 995.3298,471.6997 C995.2696,472.0837 995.2088,472.4656 995.1474,472.8456 C995.1167,473.0355 995.0858,473.225 995.0548,473.4139 " fill="none" id="FrontendServer-VirtualMachines" style="stroke: #A80036; stroke-width: 1.0;"/><path d="M823.3443,314.3421 A10,10 0 0 0 820.8057 328.2546" fill="#FFFFFF" style="stroke: #A80036; stroke-width: 1.5;"/><ellipse cx="829.0313" cy="322.5677" fill="#FFFFFF" rx="6" ry="6" style="stroke: #A80036; stroke-width: 1.5;"/><!--link FrontendServer to KeyVault--><path d="M714.1505,306.275 C714.5252,306.3162 714.9117,306.3589 715.31,306.403 C716.1065,306.4912 716.9499,306.5852 717.8386,306.6851 C724.9478,307.4837 734.9519,308.6535 747.0063,310.1869 C771.115,313.2536 803.425,317.7745 837.18,323.6889 C904.69,335.5177 977.98,352.9202 1003,375.4102 C1088.47,452.2402 1103.7,603.5002 1106.41,654.3102 " fill="none" id="FrontendServer-KeyVault" style="stroke: #A80036; stroke-width: 1.0;"/><path d="M931.1946,336.7949 A10,10 0 0 0 927.2671 350.3807" fill="#FFFFFF" style="stroke: #A80036; stroke-width: 1.5;"/><ellipse cx="936.0238" cy="345.5516" fill="#FFFFFF" rx="6" ry="6" style="stroke: #A80036; stroke-width: 1.5;"/><!--link VirtualMachines to KeyVault--><path d="M995.167,520.4342 C995.2652,520.5668 995.3642,520.7005 995.464,520.8352 C997.06,522.9899 998.8499,525.4064 1000.8055,528.0466 C1008.6278,538.6073 1019.1019,552.7483 1030.4313,568.0439 C1053.09,598.6352 1079.17,633.8452 1094.3,654.2702 " fill="none" id="VirtualMachines-KeyVault" style="stroke: #A80036; stroke-width: 1.0;"/><path d="M1031.9047,558.153 A10,10 0 0 0 1020.5404 566.5705" fill="#FFFFFF" style="stroke: #A80036; stroke-width: 1.5;"/><ellipse cx="1030.4313" cy="568.0439" fill="#FFFFFF" rx="6" ry="6" style="stroke: #A80036; stroke-width: 1.5;"/><!--link Clients to FrontendServer--><path d="M343.5547,149.518 C343.7751,149.5212 343.9995,149.5244 344.2279,149.5277 C346.0546,149.554 348.1323,149.5855 350.4425,149.6226 C359.6832,149.7709 372.6442,150.0098 388.1466,150.3781 C419.1512,151.1148 460.3212,152.3695 502.225,154.4539 C586.0325,158.6227 672.775,166.1102 687,179.4102 C697.0225,188.7827 703.2625,201.052 706.9748,214.2248 C708.831,220.8112 710.0553,227.6235 710.8045,234.4125 C710.8981,235.2611 710.9843,236.1093 711.0635,236.9567 C711.103,237.3804 711.1408,237.8039 711.1768,238.2271 " fill="none" id="Clients-FrontendServer" style="stroke: #A80036; stroke-width: 1.0;"/><path d="M495.514,147.0403 A10,10 0 0 0 494.8114 161.1649" fill="#FFFFFF" style="stroke: #A80036; stroke-width: 1.5;"/><ellipse cx="502.225" cy="154.4539" fill="#FFFFFF" rx="6" ry="6" style="stroke: #A80036; stroke-width: 1.5;"/><!--link FrontendServer to PaymentProvider_1--><path d="M714.2074,305.6472 C714.5913,305.6585 714.9883,305.6701 715.3981,305.6822 C716.2177,305.7064 717.0887,305.7322 718.0103,305.7596 C725.3834,305.9785 735.9947,306.2991 749.4104,306.7187 C776.2418,307.5579 814.2905,308.793 860.0847,310.4034 C951.6731,313.6242 1074.2438,318.3458 1200.0225,324.4014 C1451.58,336.5127 1715.97,353.9602 1771,375.4102 C1835.36,400.5002 1894.08,460.4902 1920.41,490.1702 " fill="none" id="FrontendServer-PaymentProvider_1" style="stroke: #A80036; stroke-width: 1.0;"/><path d="M1193.2997,316.9985 A10,10 0 0 0 1192.6196 331.1243" fill="#FFFFFF" style="stroke: #A80036; stroke-width: 1.5;"/><ellipse cx="1200.0225" cy="324.4014" fill="#FFFFFF" rx="6" ry="6" style="stroke: #A80036; stroke-width: 1.5;"/><!--link FrontendServer to PaymentProvider_2--><path d="M714.0541,305.4636 C714.3633,305.4661 714.681,305.4686 715.0071,305.4713 C720.2257,305.5139 727.6117,305.5835 736.8993,305.6949 C755.4743,305.9179 781.6552,306.308 813.3136,306.9834 C876.6303,308.3342 961.8569,310.8258 1051.9663,315.4014 C1232.185,324.5527 1431.935,342.0402 1515,375.4102 C1579.1,401.1602 1637.94,460.8402 1664.35,490.3102 " fill="none" id="FrontendServer-PaymentProvider_2" style="stroke: #A80036; stroke-width: 1.0;"/><path d="M1313.7138,328.4793 A10,10 0 0 0 1312.0714 342.5258" fill="#FFFFFF" style="stroke: #A80036; stroke-width: 1.5;"/><ellipse cx="1319.9158" cy="336.3238" fill="#FFFFFF" rx="6" ry="6" style="stroke: #A80036; stroke-width: 1.5;"/><!--link FrontendServer to PaymentProvider_3--><path d="M714.4563,306.4662 C714.6331,306.4887 714.8126,306.5116 714.9947,306.5349 C715.7229,306.628 716.4929,306.7268 717.3037,306.8313 C723.7896,307.6677 732.8852,308.8705 744.1148,310.4316 C766.5741,313.5536 797.5694,318.1083 833.2963,324.0289 C904.75,335.8702 995.13,353.1752 1074,375.4102 C1189.66,408.0202 1320.95,462.6802 1384.49,490.3102 " fill="none" id="FrontendServer-PaymentProvider_3" style="stroke: #A80036; stroke-width: 1.0;"/><path d="M1069.1129,366.6857 A10,10 0 0 0 1065.2755 380.2973" fill="#FFFFFF" style="stroke: #A80036; stroke-width: 1.5;"/><ellipse cx="1074" cy="375.4102" fill="#FFFFFF" rx="6" ry="6" style="stroke: #A80036; stroke-width: 1.5;"/><!--link cl_1 to cl_2--><!--link cl_1 to cl_n--><!--link Worker to Service--><!--link Worker to Crypto--><!--link Crypto to Database--><!--link LoadBalancer to Autoscaler--><!--link LoadBalancer to Endpoint--><!--
@startuml
title = Deployment diagram

together {
    frame Clients {
        frame cl_1 [
            Client 1
        ]
        frame cl_2 [
            Client 2
        ]
        frame cl_n [
            Client N
        ]
    }
    
    node KeyVaultServer {
        component KeyVault
    }

    cloud Cloud {
        node VirtualMachines {
            component Worker
            component Service
            component Crypto
            database Database
        }

        node FrontendServer {
            component LoadBalancer
            component Autoscaler
            component Endpoint
            component Crypto
        }

        FrontendServer -(0- VirtualMachines
    }
    
    FrontendServer -(0- KeyVault
    VirtualMachines -(0- KeyVault
}

together {
    cloud Vendor_1 {
        node Server_1 {
            component PaymentProvider_1
        }
    }

    cloud Vendor_2 {
        node Server_2 {
            component PaymentProvider_2
        }
    }

    cloud Vendor_3 {
        node Server_3 {
            component PaymentProvider_3
        }
    }
}

Clients -(0- FrontendServer
FrontendServer -(0- PaymentProvider_1
FrontendServer -(0- PaymentProvider_2
FrontendServer -(0- PaymentProvider_3
@enduml

PlantUML version 1.2019.09(Mon Aug 26 18:19:51 CEST 2019)
(GPL source distribution)
Java Runtime: Java(TM) SE Runtime Environment
JVM: Java HotSpot(TM) 64-Bit Server VM
Java Version: 1.8.0_221-b11
Operating System: Mac OS X
OS Version: 10.15.1
Default Encoding: UTF-8
Language: en
Country: CZ
--></g></svg>