<?xml version="1.0" encoding="UTF-8" standalone="no"?><svg xmlns="http://www.w3.org/2000/svg" xmlns:xlink="http://www.w3.org/1999/xlink" contentScriptType="application/ecmascript" contentStyleType="text/css" height="731px" preserveAspectRatio="none" style="width:652px;height:731px;" version="1.1" viewBox="0 0 652 731" width="652px" zoomAndPan="magnify"><defs><filter height="300%" id="f8j1wicj6hft2" width="300%" x="-1" y="-1"><feGaussianBlur result="blurOut" stdDeviation="2.0"/><feColorMatrix in="blurOut" result="blurOut2" type="matrix" values="0 0 0 0 0 0 0 0 0 0 0 0 0 0 0 0 0 0 .4 0"/><feOffset dx="4.0" dy="4.0" in="blurOut2" result="blurOut3"/><feBlend in="SourceGraphic" in2="blurOut3" mode="normal"/></filter></defs><g><!--cluster Cloud--><path d="M40.9815,116.1813 C50.2919,94.5759 69.6601,96.1659 82.7137,112.0099 C92.2422,94.3743 107.6711,88.5586 121.6667,107.2153 C133.7912,89.6168 149.8006,89.2657 160.1841,109.0111 C171.6987,89.2916 184.657,83.3608 201.4191,103.5954 C212.6444,84.2692 231.1182,83.735 241.3736,104.5604 C252.854,87.0412 266.2135,85.9583 280.916,100.5986 C296.592,79.6764 314.0288,85.1254 325.2467,105.3962 C333.8308,83.0797 351.5834,81.6351 364.2997,101.5776 C375.1193,81.4739 396.3894,83.5056 407.3593,101.4073 C422.1576,84.0178 436.6757,91.9892 443.6001,109.5678 C458.262,85.8863 472.0509,86.9538 487.6777,108.63 C501.688,91.5236 516.5494,91.6702 528.5774,110.8636 C539.0852,93.7172 552.5347,93.1869 562.8094,111.0913 C579.0723,89.9393 597.84,89.1336 609,116 C609.4969,115.9927 609.6503,116.297 609.5145,116.7335 C636.4552,126.3877 634.4253,146.1395 616.5384,162.6508 C634.9131,173.8742 636.7672,185.8287 618.0223,198.585 C639.9572,211.9156 633.639,233.2312 614.2856,243.0957 C634.6894,251.6391 638.2883,272.8168 619.0402,285.7772 C633.9443,297.2216 633.3914,312.9978 615.2933,320.924 C633.4106,332.9681 637.7785,348.4121 616.7288,361.8307 C638.8138,371.471 639.9793,385.237 625.0642,402.4667 C640.9891,417.001 637.9052,438.2693 617.3106,446.3513 C635.699,460.4976 633.8336,472.6317 615.4654,485.0243 C637.1308,493.8991 635.9834,515.2471 619.0665,527.4006 C640.4869,544.0567 634.2991,556.8006 614.7328,569.2082 C636.1328,580.3516 633.3744,596.9523 617.638,610.6962 C633.0642,621.9682 637.3349,639.7437 616.4639,649.9294 C633.2203,670.6502 629.169,686.3809 602,692 C603.4427,691.0075 605.0477,691.5097 605.3528,693.3476 C594.692,711.6851 580.1937,711.7054 568.3298,694.6045 C555.6908,716.9646 541.5384,715.4243 525.1541,698.7469 C511.2699,718.225 493.7042,713.9323 483.1552,695.0915 C471.557,714.7055 459.6434,710.3389 447.372,695.7968 C432.4761,715.8947 417.8122,713.9531 404.3261,694.2713 C392.9007,713.8299 378.2695,712.5543 367.0956,694.0255 C352.9758,719.7123 334.9943,715.6479 319.8239,695.0996 C308.3115,711.281 293.2116,714.6138 281.8143,694.9774 C272.4254,714.387 258.5651,715.9741 245.9917,698.0315 C229.5556,719.2653 215.0995,718.2409 203.2003,693.7826 C193.3496,717.0932 172.2534,718.1451 159.4583,696.6576 C145.6815,712.7044 132.6606,715.8091 121.1631,694.3315 C107.1087,714.1033 93.8997,712.8666 79.5297,694.6777 C58.8876,711.9545 41.9634,712.1397 30,685 C31.7823,684.8543 32.7003,685.9256 31.8987,687.639 C14.7717,678.4375 12.7221,658.9964 29.9518,648.1031 C11.4349,636.4879 11.5264,617.6305 29.7796,605.8654 C12.2859,595.0311 11.0598,576.7693 29.4925,565.6784 C9.9463,555.1239 8.9046,535.025 27.8853,523.0191 C6.9438,513.0413 11.1373,493.5219 27.4096,483.1007 C6.68,470.694 7.5711,458.3113 25.2437,443.789 C2.0295,433.952 -0.1741,417.2245 20.791,402.6103 C2.9058,389.3577 0.9624,373.7033 23.197,362.8803 C7.859,350.2937 9.3061,334.7517 26.9687,325.4944 C6.6747,313.1891 7.0729,298.4311 26.5531,285.7103 C10.3041,272.6406 12.2536,254.2842 31.1478,245.2005 C13.5478,232.9717 11.5647,214.2662 31.3695,202.2304 C11.6997,188.2749 11.7382,172.3805 31.7433,158.7662 C7.3704,139.7962 8.999,122.4378 37,109 C41.5753,109.4659 43.1064,112.0006 40.9815,116.1813 " fill="#FFFFFF" style="stroke: #000000; stroke-width: 1.5;"/><text fill="#000000" font-family="sans-serif" font-size="14" font-weight="bold" lengthAdjust="spacingAndGlyphs" textLength="42" x="298.5" y="127.5352">Cloud</text><!--cluster FrontendServer--><polygon fill="#FFFFFF" filter="url(#f8j1wicj6hft2)" points="54,162,64,152,361,152,361,405,351,415,54,415,54,162" style="stroke: #000000; stroke-width: 1.5;"/><line style="stroke: #000000; stroke-width: 1.5;" x1="351" x2="360" y1="162" y2="153"/><line style="stroke: #000000; stroke-width: 1.5;" x1="54" x2="351" y1="162" y2="162"/><line style="stroke: #000000; stroke-width: 1.5;" x1="351" x2="351" y1="162" y2="415"/><text fill="#000000" font-family="sans-serif" font-size="14" font-weight="bold" lengthAdjust="spacingAndGlyphs" textLength="108" x="149.5" y="178.5352">FrontendServer</text><!--cluster VirtualMachine--><polygon fill="#FFFFFF" filter="url(#f8j1wicj6hft2)" points="401,317,411,307,585,307,585,658,575,668,401,668,401,317" style="stroke: #000000; stroke-width: 1.5;"/><line style="stroke: #000000; stroke-width: 1.5;" x1="575" x2="584" y1="317" y2="308"/><line style="stroke: #000000; stroke-width: 1.5;" x1="401" x2="575" y1="317" y2="317"/><line style="stroke: #000000; stroke-width: 1.5;" x1="575" x2="575" y1="317" y2="668"/><text fill="#000000" font-family="sans-serif" font-size="14" font-weight="bold" lengthAdjust="spacingAndGlyphs" textLength="108" x="435" y="333.5352">VirtualMachine</text><!--entity LoadBalancer--><rect fill="#FEFECE" filter="url(#f8j1wicj6hft2)" height="36.4883" style="stroke: #A80036; stroke-width: 1.5;" width="111" x="78.5" y="200"/><rect fill="#FEFECE" height="5" style="stroke: #A80036; stroke-width: 1.5;" width="10" x="73.5" y="205"/><rect fill="#FEFECE" height="5" style="stroke: #A80036; stroke-width: 1.5;" width="10" x="73.5" y="226.4883"/><text fill="#000000" font-family="sans-serif" font-size="14" lengthAdjust="spacingAndGlyphs" textLength="91" x="88.5" y="223.5352">LoadBalancer</text><!--entity Autoscaler--><rect fill="#FEFECE" filter="url(#f8j1wicj6hft2)" height="36.4883" style="stroke: #A80036; stroke-width: 1.5;" width="93" x="224.5" y="200"/><rect fill="#FEFECE" height="5" style="stroke: #A80036; stroke-width: 1.5;" width="10" x="219.5" y="205"/><rect fill="#FEFECE" height="5" style="stroke: #A80036; stroke-width: 1.5;" width="10" x="219.5" y="226.4883"/><text fill="#000000" font-family="sans-serif" font-size="14" lengthAdjust="spacingAndGlyphs" textLength="73" x="234.5" y="223.5352">Autoscaler</text><!--entity Endpoint--><rect fill="#FEFECE" filter="url(#f8j1wicj6hft2)" height="36.4883" style="stroke: #A80036; stroke-width: 1.5;" width="82" x="93" y="355"/><rect fill="#FEFECE" height="5" style="stroke: #A80036; stroke-width: 1.5;" width="10" x="88" y="360"/><rect fill="#FEFECE" height="5" style="stroke: #A80036; stroke-width: 1.5;" width="10" x="88" y="381.4883"/><text fill="#000000" font-family="sans-serif" font-size="14" lengthAdjust="spacingAndGlyphs" textLength="62" x="103" y="378.5352">Endpoint</text><!--entity Worker--><rect fill="#FEFECE" filter="url(#f8j1wicj6hft2)" height="36.4883" style="stroke: #A80036; stroke-width: 1.5;" width="69" x="444.5" y="355"/><rect fill="#FEFECE" height="5" style="stroke: #A80036; stroke-width: 1.5;" width="10" x="439.5" y="360"/><rect fill="#FEFECE" height="5" style="stroke: #A80036; stroke-width: 1.5;" width="10" x="439.5" y="381.4883"/><text fill="#000000" font-family="sans-serif" font-size="14" lengthAdjust="spacingAndGlyphs" textLength="49" x="454.5" y="378.5352">Worker</text><!--entity Service--><rect fill="#FEFECE" filter="url(#f8j1wicj6hft2)" height="36.4883" style="stroke: #A80036; stroke-width: 1.5;" width="68" x="444" y="486"/><rect fill="#FEFECE" height="5" style="stroke: #A80036; stroke-width: 1.5;" width="10" x="439" y="491"/><rect fill="#FEFECE" height="5" style="stroke: #A80036; stroke-width: 1.5;" width="10" x="439" y="512.4883"/><text fill="#000000" font-family="sans-serif" font-size="14" lengthAdjust="spacingAndGlyphs" textLength="48" x="454" y="509.5352">Service</text><!--entity Database--><path d="M443.5,609 C443.5,599 485,599 485,599 C485,599 526.5,599 526.5,609 L526.5,634.4883 C526.5,644.4883 485,644.4883 485,644.4883 C485,644.4883 443.5,644.4883 443.5,634.4883 L443.5,609 " fill="#FEFECE" filter="url(#f8j1wicj6hft2)" style="stroke: #000000; stroke-width: 1.5;"/><path d="M443.5,609 C443.5,619 485,619 485,619 C485,619 526.5,619 526.5,609 " fill="none" style="stroke: #000000; stroke-width: 1.5;"/><text fill="#000000" font-family="sans-serif" font-size="14" lengthAdjust="spacingAndGlyphs" textLength="63" x="453.5" y="636.5352">Database</text><!--entity cl_1--><rect fill="#FEFECE" filter="url(#f8j1wicj6hft2)" height="46.4883" style="stroke: #000000; stroke-width: 1.5;" width="93" x="178.5" y="8"/><path d="M209.5,9 L209.5,13 L202.5,20 L178.5,20 " fill="none" style="stroke: #000000; stroke-width: 1.5;"/><text fill="#000000" font-family="sans-serif" font-size="14" lengthAdjust="spacingAndGlyphs" textLength="53" x="193.5" y="41.5352">Client 1</text><!--entity cl_2--><rect fill="#FEFECE" filter="url(#f8j1wicj6hft2)" height="46.4883" style="stroke: #000000; stroke-width: 1.5;" width="93" x="306.5" y="8"/><path d="M337.5,9 L337.5,13 L330.5,20 L306.5,20 " fill="none" style="stroke: #000000; stroke-width: 1.5;"/><text fill="#000000" font-family="sans-serif" font-size="14" lengthAdjust="spacingAndGlyphs" textLength="53" x="321.5" y="41.5352">Client 2</text><!--entity cl_n--><rect fill="#FEFECE" filter="url(#f8j1wicj6hft2)" height="46.4883" style="stroke: #000000; stroke-width: 1.5;" width="94" x="435" y="8"/><path d="M466.3333,9 L466.3333,13 L459.3333,20 L435,20 " fill="none" style="stroke: #000000; stroke-width: 1.5;"/><text fill="#000000" font-family="sans-serif" font-size="14" lengthAdjust="spacingAndGlyphs" textLength="54" x="450" y="41.5352">Client N</text><!--link FrontendServer to VirtualMachine--><path d="M361.0627,291.9127 C361.1871,292.2427 361.3127,292.5726 361.4394,292.9023 C361.6927,293.5619 361.9505,294.2211 362.2126,294.8797 C362.7367,296.197 363.2778,297.512 363.8342,298.8235 C366.0596,304.0695 368.5293,309.259 371.1336,314.308 C376.3422,324.4059 382.0894,333.9419 387.4988,342.2438 C390.2034,346.3947 392.8237,350.2371 395.2499,353.687 C396.463,355.412 397.6276,357.0388 398.7301,358.557 C399.2813,359.3161 399.8169,360.048 400.3353,360.7515 C400.4649,360.9273 400.5934,361.1014 400.7209,361.2737 C400.7846,361.3599 400.848,361.4456 400.9112,361.5308 " fill="none" id="FrontendServer-VirtualMachine" style="stroke: #A80036; stroke-width: 1.0;"/><path d="M381.737,319.2659 A10,10 0 0 0 369.5574 326.4532" fill="#FFFFFF" style="stroke: #A80036; stroke-width: 1.5;"/><ellipse cx="379.2409" cy="328.9494" fill="#FFFFFF" rx="6" ry="6" style="stroke: #A80036; stroke-width: 1.5;"/><!--link FrontendServer to VirtualMachine--><path d="M361.0643,241.031 C361.1414,241.2417 361.2189,241.4534 361.2968,241.6663 C361.6085,242.5179 361.9269,243.3876 362.2514,244.2742 C367.4441,258.4603 374.2281,276.9944 381.0113,295.5263 C387.7944,314.0581 394.5766,332.5878 399.7655,346.7652 C400.0898,347.6512 400.4079,348.5203 400.7193,349.3713 C400.7972,349.5841 400.8747,349.7957 400.9517,350.0062 " fill="none" id="FrontendServer-&gt;VirtualMachine" style="stroke: #A80036; stroke-width: 1.0;"/><polygon fill="#A80036" points="400.9517,350.0062,401.6147,340.1797,399.2332,345.3108,394.1021,342.9293,400.9517,350.0062" style="stroke: #A80036; stroke-width: 1.0;"/><text fill="#000000" font-family="sans-serif" font-size="13" lengthAdjust="spacingAndGlyphs" textLength="203" x="377" y="279.5684">"Scales (many) virtual machines"</text><!--link Worker to Service--><path d="M478.87,391.13 C478.69,414.16 478.37,455.16 478.17,480.62 " fill="none" id="Worker-&gt;Service" style="stroke: #A80036; stroke-width: 1.0;"/><polygon fill="#A80036" points="478.13,485.8,482.1814,476.823,478.1586,480.8001,474.1815,476.7773,478.13,485.8" style="stroke: #A80036; stroke-width: 1.0;"/><text fill="#000000" font-family="sans-serif" font-size="13" lengthAdjust="spacingAndGlyphs" textLength="27" x="479" y="452.5684">Jobs</text><!--link Service to Database--><path d="M479.03,522.04 C480.17,540.86 482.03,571.43 483.36,593.51 " fill="none" id="Service-&gt;Database" style="stroke: #A80036; stroke-width: 1.0;"/><polygon fill="#A80036" points="483.68,598.65,487.1322,589.426,483.3797,593.659,479.1467,589.9065,483.68,598.65" style="stroke: #A80036; stroke-width: 1.0;"/><text fill="#000000" font-family="sans-serif" font-size="13" lengthAdjust="spacingAndGlyphs" textLength="81" x="482" y="565.5684">Transactions</text><!--link cl_1 to FrontendServer--><path d="M271.77,47.13 C294.09,56.75 319.11,71.53 334,93 C341.8175,104.275 346.9381,117.51 350.2158,131.0575 C351.8546,137.8313 353.0327,144.6831 353.8568,151.4072 " fill="none" id="cl_1-FrontendServer" style="stroke: #A80036; stroke-width: 1.0;"/><path d="M335.7808,83.1598 A10,10 0 0 0 324.1598 91.2192" fill="#FFFFFF" style="stroke: #A80036; stroke-width: 1.5;"/><ellipse cx="334" cy="93" fill="#FFFFFF" rx="6" ry="6" style="stroke: #A80036; stroke-width: 1.5;"/><!--link cl_2 to FrontendServer--><path d="M353,54.32 C353,66.4275 353,82.4281 353,99.6725 C353,108.2947 353,117.2278 353,126.1407 C353,130.5971 353,135.0485 353,139.4535 C353,141.6559 353,143.8468 353,146.0208 C353,147.1079 353,148.1907 353,149.2687 C353,149.8077 353,150.3455 353,150.882 C353,151.1502 353,151.4181 353,151.6857 " fill="none" id="cl_2-FrontendServer" style="stroke: #A80036; stroke-width: 1.0;"/><path d="M360.0711,92.6014 A10,10 0 0 0 345.9289 92.6014" fill="#FFFFFF" style="stroke: #A80036; stroke-width: 1.5;"/><ellipse cx="353" cy="99.6725" fill="#FFFFFF" rx="6" ry="6" style="stroke: #A80036; stroke-width: 1.5;"/><!--link cl_n to FrontendServer--><path d="M466.44,54.32 C449.555,78.535 421.81,118.3225 397.9863,152.4875 C386.0744,169.57 375.1428,185.2469 367.0392,196.8688 C365.0133,199.7742 363.1642,202.4263 361.5206,204.7834 C361.4179,204.9308 361.316,205.0769 361.2149,205.222 " fill="none" id="cl_n-FrontendServer" style="stroke: #A80036; stroke-width: 1.0;"/><path d="M407.8309,150.7319 A10,10 0 0 0 396.2306 142.6428" fill="#FFFFFF" style="stroke: #A80036; stroke-width: 1.5;"/><ellipse cx="397.9863" cy="152.4875" fill="#FFFFFF" rx="6" ry="6" style="stroke: #A80036; stroke-width: 1.5;"/><!--link LoadBalancer to Autoscaler--><!--link LoadBalancer to Endpoint--><!--
@startuml
cloud Cloud {
    node FrontendServer {
        component LoadBalancer
        component Autoscaler
        component Endpoint
    }
    node VirtualMachine {
        component Worker
        component Service
        database Database
    }

    FrontendServer -(0- VirtualMachine
    FrontendServer - -> VirtualMachine: "Scales (many) virtual machines"
    Worker - -> Service: "Jobs"
    Service - -> Database: "Transactions"
}

frame cl_1 [
    Client 1
]
frame cl_2 [
    Client 2
]
frame cl_n [
    Client N
]

cl_1 -(0- FrontendServer
cl_2 -(0- FrontendServer
cl_n -(0- FrontendServer
@enduml

PlantUML version 1.2019.09(Mon Aug 26 18:19:51 CEST 2019)
(GPL source distribution)
Java Runtime: Java(TM) SE Runtime Environment
JVM: Java HotSpot(TM) 64-Bit Server VM
Java Version: 1.8.0_221-b11
Operating System: Mac OS X
OS Version: 10.15
Default Encoding: UTF-8
Language: en
Country: CZ
--></g></svg>