<?xml version="1.0" encoding="UTF-8" standalone="no"?><svg xmlns="http://www.w3.org/2000/svg" xmlns:xlink="http://www.w3.org/1999/xlink" contentScriptType="application/ecmascript" contentStyleType="text/css" height="682px" preserveAspectRatio="none" style="width:746px;height:682px;" version="1.1" viewBox="0 0 746 682" width="746px" zoomAndPan="magnify"><defs><filter height="300%" id="f1dgsolx0wdlc2" width="300%" x="-1" y="-1"><feGaussianBlur result="blurOut" stdDeviation="2.0"/><feColorMatrix in="blurOut" result="blurOut2" type="matrix" values="0 0 0 0 0 0 0 0 0 0 0 0 0 0 0 0 0 0 .4 0"/><feOffset dx="4.0" dy="4.0" in="blurOut2" result="blurOut3"/><feBlend in="SourceGraphic" in2="blurOut3" mode="normal"/></filter></defs><g><text fill="#000000" font-family="sans-serif" font-size="14" font-weight="bold" lengthAdjust="spacingAndGlyphs" textLength="197" x="275" y="23.5352">Sequence diagram UC2 NF1</text><rect fill="#FFFFFF" filter="url(#f1dgsolx0wdlc2)" height="146.5527" style="stroke: #A80036; stroke-width: 1.0;" width="10" x="475.5" y="419.082"/><rect fill="#FFFFFF" filter="url(#f1dgsolx0wdlc2)" height="146.5527" style="stroke: #A80036; stroke-width: 1.0;" width="10" x="569.5" y="419.082"/><rect fill="#FFFFFF" filter="url(#f1dgsolx0wdlc2)" height="146.5527" style="stroke: #A80036; stroke-width: 1.0;" width="10" x="680.5" y="419.082"/><rect fill="#FFFFFF" filter="url(#f1dgsolx0wdlc2)" height="120.2422" style="stroke: #000000; stroke-width: 2.0;" width="261.5" x="194" y="203.2188"/><rect fill="#FFFFFF" filter="url(#f1dgsolx0wdlc2)" height="46.6211" style="stroke: #000000; stroke-width: 2.0;" width="243" x="204" y="269.8398"/><line style="stroke: #A80036; stroke-width: 1.0; stroke-dasharray: 5.0,5.0;" x1="37" x2="37" y1="68.9766" y2="642.2559"/><line style="stroke: #A80036; stroke-width: 1.0; stroke-dasharray: 5.0,5.0;" x1="140" x2="140" y1="68.9766" y2="642.2559"/><line style="stroke: #A80036; stroke-width: 1.0; stroke-dasharray: 5.0,5.0;" x1="268" x2="268" y1="68.9766" y2="642.2559"/><line style="stroke: #A80036; stroke-width: 1.0; stroke-dasharray: 5.0,5.0;" x1="391" x2="391" y1="68.9766" y2="642.2559"/><line style="stroke: #A80036; stroke-width: 1.0; stroke-dasharray: 5.0,5.0;" x1="480" x2="480" y1="68.9766" y2="642.2559"/><line style="stroke: #A80036; stroke-width: 1.0; stroke-dasharray: 5.0,5.0;" x1="574.5" x2="574.5" y1="68.9766" y2="642.2559"/><line style="stroke: #A80036; stroke-width: 1.0; stroke-dasharray: 5.0,5.0;" x1="685" x2="685" y1="68.9766" y2="642.2559"/><rect fill="#FEFECE" filter="url(#f1dgsolx0wdlc2)" height="30.4883" style="stroke: #A80036; stroke-width: 1.5;" width="54" x="8" y="33.4883"/><text fill="#000000" font-family="sans-serif" font-size="14" lengthAdjust="spacingAndGlyphs" textLength="40" x="15" y="54.0234">Client</text><rect fill="#FEFECE" filter="url(#f1dgsolx0wdlc2)" height="30.4883" style="stroke: #A80036; stroke-width: 1.5;" width="54" x="8" y="641.2559"/><text fill="#000000" font-family="sans-serif" font-size="14" lengthAdjust="spacingAndGlyphs" textLength="40" x="15" y="661.791">Client</text><rect fill="#FEFECE" filter="url(#f1dgsolx0wdlc2)" height="30.4883" style="stroke: #A80036; stroke-width: 1.5;" width="124" x="76" y="33.4883"/><text fill="#000000" font-family="sans-serif" font-size="14" lengthAdjust="spacingAndGlyphs" textLength="110" x="83" y="54.0234">ServiceEndpoint</text><rect fill="#FEFECE" filter="url(#f1dgsolx0wdlc2)" height="30.4883" style="stroke: #A80036; stroke-width: 1.5;" width="124" x="76" y="641.2559"/><text fill="#000000" font-family="sans-serif" font-size="14" lengthAdjust="spacingAndGlyphs" textLength="110" x="83" y="661.791">ServiceEndpoint</text><rect fill="#FEFECE" filter="url(#f1dgsolx0wdlc2)" height="30.4883" style="stroke: #A80036; stroke-width: 1.5;" width="105" x="214" y="33.4883"/><text fill="#000000" font-family="sans-serif" font-size="14" lengthAdjust="spacingAndGlyphs" textLength="91" x="221" y="54.0234">LoadBalancer</text><rect fill="#FEFECE" filter="url(#f1dgsolx0wdlc2)" height="30.4883" style="stroke: #A80036; stroke-width: 1.5;" width="105" x="214" y="641.2559"/><text fill="#000000" font-family="sans-serif" font-size="14" lengthAdjust="spacingAndGlyphs" textLength="91" x="221" y="661.791">LoadBalancer</text><rect fill="#FEFECE" filter="url(#f1dgsolx0wdlc2)" height="30.4883" style="stroke: #A80036; stroke-width: 1.5;" width="87" x="346" y="33.4883"/><text fill="#000000" font-family="sans-serif" font-size="14" lengthAdjust="spacingAndGlyphs" textLength="73" x="353" y="54.0234">Autoscaler</text><rect fill="#FEFECE" filter="url(#f1dgsolx0wdlc2)" height="30.4883" style="stroke: #A80036; stroke-width: 1.5;" width="87" x="346" y="641.2559"/><text fill="#000000" font-family="sans-serif" font-size="14" lengthAdjust="spacingAndGlyphs" textLength="73" x="353" y="661.791">Autoscaler</text><rect fill="#FEFECE" filter="url(#f1dgsolx0wdlc2)" height="30.4883" style="stroke: #A80036; stroke-width: 1.5;" width="63" x="447" y="33.4883"/><text fill="#000000" font-family="sans-serif" font-size="14" lengthAdjust="spacingAndGlyphs" textLength="49" x="454" y="54.0234">Worker</text><rect fill="#FEFECE" filter="url(#f1dgsolx0wdlc2)" height="30.4883" style="stroke: #A80036; stroke-width: 1.5;" width="63" x="447" y="641.2559"/><text fill="#000000" font-family="sans-serif" font-size="14" lengthAdjust="spacingAndGlyphs" textLength="49" x="454" y="661.791">Worker</text><rect fill="#FEFECE" filter="url(#f1dgsolx0wdlc2)" height="30.4883" style="stroke: #A80036; stroke-width: 1.5;" width="62" x="541.5" y="33.4883"/><text fill="#000000" font-family="sans-serif" font-size="14" lengthAdjust="spacingAndGlyphs" textLength="48" x="548.5" y="54.0234">Service</text><rect fill="#FEFECE" filter="url(#f1dgsolx0wdlc2)" height="30.4883" style="stroke: #A80036; stroke-width: 1.5;" width="62" x="541.5" y="641.2559"/><text fill="#000000" font-family="sans-serif" font-size="14" lengthAdjust="spacingAndGlyphs" textLength="48" x="548.5" y="661.791">Service</text><rect fill="#FEFECE" filter="url(#f1dgsolx0wdlc2)" height="30.4883" style="stroke: #A80036; stroke-width: 1.5;" width="103" x="632" y="33.4883"/><text fill="#000000" font-family="sans-serif" font-size="14" lengthAdjust="spacingAndGlyphs" textLength="89" x="639" y="54.0234">TicketSystem</text><rect fill="#FEFECE" filter="url(#f1dgsolx0wdlc2)" height="30.4883" style="stroke: #A80036; stroke-width: 1.5;" width="103" x="632" y="641.2559"/><text fill="#000000" font-family="sans-serif" font-size="14" lengthAdjust="spacingAndGlyphs" textLength="89" x="639" y="661.791">TicketSystem</text><rect fill="#FFFFFF" filter="url(#f1dgsolx0wdlc2)" height="146.5527" style="stroke: #A80036; stroke-width: 1.0;" width="10" x="475.5" y="419.082"/><rect fill="#FFFFFF" filter="url(#f1dgsolx0wdlc2)" height="146.5527" style="stroke: #A80036; stroke-width: 1.0;" width="10" x="569.5" y="419.082"/><rect fill="#FFFFFF" filter="url(#f1dgsolx0wdlc2)" height="146.5527" style="stroke: #A80036; stroke-width: 1.0;" width="10" x="680.5" y="419.082"/><polygon fill="#A80036" points="128,96.2871,138,100.2871,128,104.2871,132,100.2871" style="stroke: #A80036; stroke-width: 1.0;"/><line style="stroke: #A80036; stroke-width: 1.0;" x1="37" x2="134" y1="100.2871" y2="100.2871"/><text fill="#000000" font-family="sans-serif" font-size="13" lengthAdjust="spacingAndGlyphs" textLength="29" x="44" y="95.5449">run()</text><polygon fill="#A80036" points="256.5,125.5977,266.5,129.5977,256.5,133.5977,260.5,129.5977" style="stroke: #A80036; stroke-width: 1.0;"/><line style="stroke: #A80036; stroke-width: 1.0;" x1="140" x2="262.5" y1="129.5977" y2="129.5977"/><text fill="#000000" font-family="sans-serif" font-size="13" lengthAdjust="spacingAndGlyphs" textLength="94" x="147" y="124.8555">invokeService()</text><polygon fill="#A80036" points="279.5,154.9082,269.5,158.9082,279.5,162.9082,275.5,158.9082" style="stroke: #A80036; stroke-width: 1.0;"/><line style="stroke: #A80036; stroke-width: 1.0;" x1="273.5" x2="390.5" y1="158.9082" y2="158.9082"/><text fill="#000000" font-family="sans-serif" font-size="13" lengthAdjust="spacingAndGlyphs" textLength="85" x="285.5" y="154.166">getAvailable()</text><polygon fill="#A80036" points="379.5,184.2188,389.5,188.2188,379.5,192.2188,383.5,188.2188" style="stroke: #A80036; stroke-width: 1.0;"/><line style="stroke: #A80036; stroke-width: 1.0; stroke-dasharray: 2.0,2.0;" x1="268.5" x2="385.5" y1="188.2188" y2="188.2188"/><text fill="#000000" font-family="sans-serif" font-size="13" lengthAdjust="spacingAndGlyphs" textLength="88" x="275.5" y="183.4766">workersCount</text><path d="M194,203.2188 L256,203.2188 L256,210.2188 L246,220.2188 L194,220.2188 L194,203.2188 " fill="#EEEEEE" style="stroke: #000000; stroke-width: 1.0;"/><rect fill="none" height="120.2422" style="stroke: #000000; stroke-width: 2.0;" width="261.5" x="194" y="203.2188"/><text fill="#000000" font-family="sans-serif" font-size="13" font-weight="bold" lengthAdjust="spacingAndGlyphs" textLength="17" x="209" y="216.7871">alt</text><text fill="#000000" font-family="sans-serif" font-size="11" font-weight="bold" lengthAdjust="spacingAndGlyphs" textLength="110" x="271" y="215.8535">[workersCount &lt; 0]</text><line style="stroke: #A80036; stroke-width: 1.0;" x1="391.5" x2="433.5" y1="241.8398" y2="241.8398"/><line style="stroke: #A80036; stroke-width: 1.0;" x1="433.5" x2="433.5" y1="241.8398" y2="254.8398"/><line style="stroke: #A80036; stroke-width: 1.0;" x1="392.5" x2="433.5" y1="254.8398" y2="254.8398"/><polygon fill="#A80036" points="402.5,250.8398,392.5,254.8398,402.5,258.8398,398.5,254.8398" style="stroke: #A80036; stroke-width: 1.0;"/><text fill="#000000" font-family="sans-serif" font-size="13" lengthAdjust="spacingAndGlyphs" textLength="45" x="398.5" y="237.0977">resize()</text><path d="M204,269.8398 L278,269.8398 L278,276.8398 L268,286.8398 L204,286.8398 L204,269.8398 " fill="#EEEEEE" style="stroke: #000000; stroke-width: 1.0;"/><rect fill="none" height="46.6211" style="stroke: #000000; stroke-width: 2.0;" width="243" x="204" y="269.8398"/><text fill="#000000" font-family="sans-serif" font-size="13" font-weight="bold" lengthAdjust="spacingAndGlyphs" textLength="29" x="219" y="283.4082">loop</text><text fill="#000000" font-family="sans-serif" font-size="11" font-weight="bold" lengthAdjust="spacingAndGlyphs" textLength="50" x="293" y="282.4746">[n times]</text><polygon fill="#A80036" points="279.5,304.4609,269.5,308.4609,279.5,312.4609,275.5,308.4609" style="stroke: #A80036; stroke-width: 1.0;"/><line style="stroke: #A80036; stroke-width: 1.0;" x1="273.5" x2="390.5" y1="308.4609" y2="308.4609"/><text fill="#000000" font-family="sans-serif" font-size="13" lengthAdjust="spacingAndGlyphs" textLength="99" x="285.5" y="303.7188">createInstance()</text><line style="stroke: #A80036; stroke-width: 1.0;" x1="268.5" x2="310.5" y1="376.7715" y2="376.7715"/><line style="stroke: #A80036; stroke-width: 1.0;" x1="310.5" x2="310.5" y1="376.7715" y2="389.7715"/><line style="stroke: #A80036; stroke-width: 1.0;" x1="269.5" x2="310.5" y1="389.7715" y2="389.7715"/><polygon fill="#A80036" points="279.5,385.7715,269.5,389.7715,279.5,393.7715,275.5,389.7715" style="stroke: #A80036; stroke-width: 1.0;"/><text fill="#000000" font-family="sans-serif" font-size="13" lengthAdjust="spacingAndGlyphs" textLength="72" x="275.5" y="372.0293">getWorker()</text><polygon fill="#A80036" points="463.5,415.082,473.5,419.082,463.5,423.082,467.5,419.082" style="stroke: #A80036; stroke-width: 1.0;"/><line style="stroke: #A80036; stroke-width: 1.0;" x1="268.5" x2="469.5" y1="419.082" y2="419.082"/><text fill="#000000" font-family="sans-serif" font-size="13" lengthAdjust="spacingAndGlyphs" textLength="57" x="275.5" y="414.3398">process()</text><polygon fill="#A80036" points="557.5,444.3926,567.5,448.3926,557.5,452.3926,561.5,448.3926" style="stroke: #A80036; stroke-width: 1.0;"/><line style="stroke: #A80036; stroke-width: 1.0;" x1="485.5" x2="563.5" y1="448.3926" y2="448.3926"/><text fill="#000000" font-family="sans-serif" font-size="13" lengthAdjust="spacingAndGlyphs" textLength="57" x="492.5" y="443.6504">execute()</text><polygon fill="#A80036" points="668.5,473.7031,678.5,477.7031,668.5,481.7031,672.5,477.7031" style="stroke: #A80036; stroke-width: 1.0;"/><line style="stroke: #A80036; stroke-width: 1.0;" x1="579.5" x2="674.5" y1="477.7031" y2="477.7031"/><text fill="#000000" font-family="sans-serif" font-size="13" lengthAdjust="spacingAndGlyphs" textLength="77" x="586.5" y="472.9609">order(count)</text><polygon fill="#A80036" points="590.5,503.0137,580.5,507.0137,590.5,511.0137,586.5,507.0137" style="stroke: #A80036; stroke-width: 1.0;"/><line style="stroke: #A80036; stroke-width: 1.0; stroke-dasharray: 2.0,2.0;" x1="584.5" x2="679.5" y1="507.0137" y2="507.0137"/><text fill="#000000" font-family="sans-serif" font-size="13" lengthAdjust="spacingAndGlyphs" textLength="60" x="596.5" y="502.2715">Response</text><polygon fill="#A80036" points="496.5,532.3242,486.5,536.3242,496.5,540.3242,492.5,536.3242" style="stroke: #A80036; stroke-width: 1.0;"/><line style="stroke: #A80036; stroke-width: 1.0; stroke-dasharray: 2.0,2.0;" x1="490.5" x2="568.5" y1="536.3242" y2="536.3242"/><text fill="#000000" font-family="sans-serif" font-size="13" lengthAdjust="spacingAndGlyphs" textLength="60" x="502.5" y="531.582">Response</text><polygon fill="#A80036" points="279.5,561.6348,269.5,565.6348,279.5,569.6348,275.5,565.6348" style="stroke: #A80036; stroke-width: 1.0;"/><line style="stroke: #A80036; stroke-width: 1.0; stroke-dasharray: 2.0,2.0;" x1="273.5" x2="479.5" y1="565.6348" y2="565.6348"/><text fill="#000000" font-family="sans-serif" font-size="13" lengthAdjust="spacingAndGlyphs" textLength="60" x="285.5" y="560.8926">Response</text><polygon fill="#A80036" points="151,590.9453,141,594.9453,151,598.9453,147,594.9453" style="stroke: #A80036; stroke-width: 1.0;"/><line style="stroke: #A80036; stroke-width: 1.0; stroke-dasharray: 2.0,2.0;" x1="145" x2="267.5" y1="594.9453" y2="594.9453"/><text fill="#000000" font-family="sans-serif" font-size="13" lengthAdjust="spacingAndGlyphs" textLength="60" x="157" y="590.2031">Response</text><polygon fill="#A80036" points="48,620.2559,38,624.2559,48,628.2559,44,624.2559" style="stroke: #A80036; stroke-width: 1.0;"/><line style="stroke: #A80036; stroke-width: 1.0; stroke-dasharray: 2.0,2.0;" x1="42" x2="139" y1="624.2559" y2="624.2559"/><text fill="#000000" font-family="sans-serif" font-size="13" lengthAdjust="spacingAndGlyphs" textLength="60" x="54" y="619.5137">Response</text><!--
@startuml seqUc2Nf1
title Sequence diagram UC2 NF1


Client -> ServiceEndpoint: run()

ServiceEndpoint -> LoadBalancer: invokeService()
Autoscaler -> LoadBalancer: getAvailable()
return workersCount
alt workersCount < 0
    Autoscaler -> Autoscaler: resize()
    loop n times
        Autoscaler -> LoadBalancer: createInstance()
    end
end
|||

LoadBalancer -> LoadBalancer: getWorker()
LoadBalancer -> Worker: process()
activate Worker
activate Service
activate TicketSystem

Worker -> Service: execute()
Service -> TicketSystem: order(count)

Service <- - TicketSystem: Response
Worker <- - Service: Response
return Response

deactivate Worker
deactivate Service
deactivate TicketSystem

ServiceEndpoint <- - LoadBalancer: Response
Client <- - ServiceEndpoint: Response
@enduml

PlantUML version 1.2019.09(Mon Aug 26 18:19:51 CEST 2019)
(GPL source distribution)
Java Runtime: Java(TM) SE Runtime Environment
JVM: Java HotSpot(TM) 64-Bit Server VM
Java Version: 1.8.0_221-b11
Operating System: Mac OS X
OS Version: 10.15.1
Default Encoding: UTF-8
Language: en
Country: CZ
--></g></svg>