<?xml version="1.0" encoding="UTF-8" standalone="no"?><svg xmlns="http://www.w3.org/2000/svg" xmlns:xlink="http://www.w3.org/1999/xlink" contentScriptType="application/ecmascript" contentStyleType="text/css" height="623px" preserveAspectRatio="none" style="width:1041px;height:623px;" version="1.1" viewBox="0 0 1041 623" width="1041px" zoomAndPan="magnify"><defs><filter height="300%" id="fxnlpzdbos2q7" width="300%" x="-1" y="-1"><feGaussianBlur result="blurOut" stdDeviation="2.0"/><feColorMatrix in="blurOut" result="blurOut2" type="matrix" values="0 0 0 0 0 0 0 0 0 0 0 0 0 0 0 0 0 0 .4 0"/><feOffset dx="4.0" dy="4.0" in="blurOut2" result="blurOut3"/><feBlend in="SourceGraphic" in2="blurOut3" mode="normal"/></filter></defs><g><!--cluster Cloud--><path d="M367.5914,146.2014 C386.1487,122.8032 403.265,127.8749 417.286,151.0425 C426.8696,127.2272 445.5679,123.5408 460.8077,145.6865 C473.518,126.5335 485.8472,122.7609 501.7666,142.2884 C513.7787,118.1125 533.5055,119.7507 546.7333,141.0872 C563.8336,121.7666 577.9523,120.4486 591.874,144.4029 C601.2986,121.5081 621.474,115.4221 636.8928,138.538 C650.5363,117.2504 664.0225,118.8709 678.9651,137.157 C695.6047,117.9467 716.7684,119.4627 725.6624,145.2034 C739.2904,124.9732 754.8886,124.3389 770.094,143.4206 C783.4587,125.4279 797.8662,125.3363 812.046,142.4463 C825.0435,124.1825 847.0101,125.2655 856.3717,146.5241 C871.0959,125.8906 889.3999,127.2647 900.7936,149.9402 C911.3486,130.1882 933.0881,128.0662 944.3885,149.1443 C959.1041,123.4485 982.1291,128.2753 994,152 C997.501,150.8874 998.6194,152.3189 998.4444,155.6646 C1020.5432,168.1089 1024.5242,182.0287 1002.8138,198.9004 C1020.2396,214.2106 1022.8576,227.7349 1000.807,241.171 C1018.1719,250.4823 1022.9559,267.9429 1002.7793,279.2012 C1023.9495,290.2605 1029.6445,312.545 1005.0693,325.85 C1024.8915,340.5356 1022.5569,355.4644 1004.3498,369.5236 C1021.5644,380.8746 1025.9507,398.9722 1004.8197,410.76 C1021.9428,423.6264 1023.5359,438.8879 1002.8928,449.8948 C1020.8529,463.4413 1018.5037,482.1155 995.9732,488.3823 C1014.8576,502.0217 1015.2563,518.7306 997.2595,533.4233 C1017.5827,552.8609 1008.3326,568.1496 987,578 C991.0149,578.7333 992.2932,582.0546 989.5848,585.2011 C973.9402,602.8171 957.3933,598.6965 946.8188,579.337 C938.0908,603.5331 918.3899,603.4544 902.8942,586.574 C890.7639,607.9189 873.0505,609.9213 860.2085,587.2643 C844.6874,605.3831 825.9424,608.4595 814.4389,583.0408 C804.0711,606.9474 782.5026,607.1624 767.1963,588.5246 C750.8692,606.485 735.0626,606.6834 725.0986,582.2117 C713.8594,601.7731 692.4223,605.5949 680.7985,582.6121 C670.0635,602.3379 652.3329,602.8725 640.1075,584.1912 C625.6663,606.9036 604.9244,607.4198 590.9874,583.6583 C578.0947,605.4381 561.6895,604.5045 550.2665,582.2977 C538.2571,605.0044 518.9268,602.3758 504.7538,584.7383 C491.2863,611.4096 470.7938,607.7329 455.1868,586.9742 C440.4723,608.4902 423.0242,602.1226 412.3481,582.7439 C393.2357,602.0551 368.0779,597.2717 359,571 C364.6837,569.5093 368.4388,572.9785 366.3208,578.8053 C343.4548,564.5443 345.0257,551.108 365.5485,536.063 C345.7801,527.0753 343.9992,509.282 359.6437,495.1797 C335.4621,481.2784 337.4022,461.5548 361.8295,450.0055 C339.8137,438.0244 338.8583,425.1215 357.6076,408.9485 C342.607,394.603 338.4611,380.2924 360.9938,369.1395 C338.8388,356.4235 337.7368,339.3986 356.5811,322.7801 C339.3669,310.2442 341.4427,295.182 359.6419,285.5583 C340.9533,272.2838 338.0227,254.9032 358.4742,240.6117 C339.5727,226.7216 344.1246,209.8389 362.6197,199.7421 C339.421,182.6265 339.2578,159.0317 366,145 C366.9606,144.6876 367.6959,145.1031 367.5914,146.2014 " fill="#FFFFFF" style="stroke: #000000; stroke-width: 1.5;"/><text fill="#000000" font-family="sans-serif" font-size="14" font-weight="bold" lengthAdjust="spacingAndGlyphs" textLength="42" x="655.5" y="163.5352">Cloud</text><!--cluster FrontendServer--><polygon fill="#FFFFFF" filter="url(#fxnlpzdbos2q7)" points="383,198,393,188,690,188,690,439,680,449,383,449,383,198" style="stroke: #000000; stroke-width: 1.5;"/><line style="stroke: #000000; stroke-width: 1.5;" x1="680" x2="689" y1="198" y2="189"/><line style="stroke: #000000; stroke-width: 1.5;" x1="383" x2="680" y1="198" y2="198"/><line style="stroke: #000000; stroke-width: 1.5;" x1="680" x2="680" y1="198" y2="449"/><text fill="#000000" font-family="sans-serif" font-size="14" font-weight="bold" lengthAdjust="spacingAndGlyphs" textLength="108" x="478.5" y="214.5352">FrontendServer</text><!--cluster VirtualMachine--><polygon fill="#FFFFFF" filter="url(#fxnlpzdbos2q7)" points="730,351,740,341,970,341,970,544,960,554,730,554,730,351" style="stroke: #000000; stroke-width: 1.5;"/><line style="stroke: #000000; stroke-width: 1.5;" x1="960" x2="969" y1="351" y2="342"/><line style="stroke: #000000; stroke-width: 1.5;" x1="730" x2="960" y1="351" y2="351"/><line style="stroke: #000000; stroke-width: 1.5;" x1="960" x2="960" y1="351" y2="554"/><text fill="#000000" font-family="sans-serif" font-size="14" font-weight="bold" lengthAdjust="spacingAndGlyphs" textLength="108" x="792" y="367.5352">VirtualMachine</text><!--cluster Clients--><rect fill="#FFFFFF" filter="url(#fxnlpzdbos2q7)" height="269" style="stroke: #000000; stroke-width: 1.5;" width="289" x="30" y="32"/><path d="M91,33 L91,41.4883 L81,51.4883 L30,51.4883 " fill="none" style="stroke: #000000; stroke-width: 1.5;"/><text fill="#000000" font-family="sans-serif" font-size="14" font-weight="bold" lengthAdjust="spacingAndGlyphs" textLength="51" x="33" y="46.5352">Clients</text><!--entity LoadBalancer--><rect fill="#FEFECE" filter="url(#fxnlpzdbos2q7)" height="36.4883" style="stroke: #A80036; stroke-width: 1.5;" width="111" x="407.5" y="236"/><rect fill="#FEFECE" height="5" style="stroke: #A80036; stroke-width: 1.5;" width="10" x="402.5" y="241"/><rect fill="#FEFECE" height="5" style="stroke: #A80036; stroke-width: 1.5;" width="10" x="402.5" y="262.4883"/><text fill="#000000" font-family="sans-serif" font-size="14" lengthAdjust="spacingAndGlyphs" textLength="91" x="417.5" y="259.5352">LoadBalancer</text><!--entity Autoscaler--><rect fill="#FEFECE" filter="url(#fxnlpzdbos2q7)" height="36.4883" style="stroke: #A80036; stroke-width: 1.5;" width="93" x="553.5" y="236"/><rect fill="#FEFECE" height="5" style="stroke: #A80036; stroke-width: 1.5;" width="10" x="548.5" y="241"/><rect fill="#FEFECE" height="5" style="stroke: #A80036; stroke-width: 1.5;" width="10" x="548.5" y="262.4883"/><text fill="#000000" font-family="sans-serif" font-size="14" lengthAdjust="spacingAndGlyphs" textLength="73" x="563.5" y="259.5352">Autoscaler</text><!--entity Endpoint--><rect fill="#FEFECE" filter="url(#fxnlpzdbos2q7)" height="36.4883" style="stroke: #A80036; stroke-width: 1.5;" width="82" x="422" y="389"/><rect fill="#FEFECE" height="5" style="stroke: #A80036; stroke-width: 1.5;" width="10" x="417" y="394"/><rect fill="#FEFECE" height="5" style="stroke: #A80036; stroke-width: 1.5;" width="10" x="417" y="415.4883"/><text fill="#000000" font-family="sans-serif" font-size="14" lengthAdjust="spacingAndGlyphs" textLength="62" x="432" y="412.5352">Endpoint</text><!--entity Worker--><rect fill="#FEFECE" filter="url(#fxnlpzdbos2q7)" height="36.4883" style="stroke: #A80036; stroke-width: 1.5;" width="69" x="773.5" y="389"/><rect fill="#FEFECE" height="5" style="stroke: #A80036; stroke-width: 1.5;" width="10" x="768.5" y="394"/><rect fill="#FEFECE" height="5" style="stroke: #A80036; stroke-width: 1.5;" width="10" x="768.5" y="415.4883"/><text fill="#000000" font-family="sans-serif" font-size="14" lengthAdjust="spacingAndGlyphs" textLength="49" x="783.5" y="412.5352">Worker</text><!--entity Service--><rect fill="#FEFECE" filter="url(#fxnlpzdbos2q7)" height="36.4883" style="stroke: #A80036; stroke-width: 1.5;" width="68" x="878" y="389"/><rect fill="#FEFECE" height="5" style="stroke: #A80036; stroke-width: 1.5;" width="10" x="873" y="394"/><rect fill="#FEFECE" height="5" style="stroke: #A80036; stroke-width: 1.5;" width="10" x="873" y="415.4883"/><text fill="#000000" font-family="sans-serif" font-size="14" lengthAdjust="spacingAndGlyphs" textLength="48" x="888" y="412.5352">Service</text><!--entity Database--><path d="M773.5,495 C773.5,485 815,485 815,485 C815,485 856.5,485 856.5,495 L856.5,520.4883 C856.5,530.4883 815,530.4883 815,530.4883 C815,530.4883 773.5,530.4883 773.5,520.4883 L773.5,495 " fill="#FEFECE" filter="url(#fxnlpzdbos2q7)" style="stroke: #000000; stroke-width: 1.5;"/><path d="M773.5,495 C773.5,505 815,505 815,505 C815,505 856.5,505 856.5,495 " fill="none" style="stroke: #000000; stroke-width: 1.5;"/><text fill="#000000" font-family="sans-serif" font-size="14" lengthAdjust="spacingAndGlyphs" textLength="63" x="783.5" y="522.5352">Database</text><!--entity cl_1--><rect fill="#FEFECE" filter="url(#fxnlpzdbos2q7)" height="46.4883" style="stroke: #000000; stroke-width: 1.5;" width="93" x="54.5" y="75"/><path d="M85.5,76 L85.5,80 L78.5,87 L54.5,87 " fill="none" style="stroke: #000000; stroke-width: 1.5;"/><text fill="#000000" font-family="sans-serif" font-size="14" lengthAdjust="spacingAndGlyphs" textLength="53" x="69.5" y="108.5352">Client 1</text><!--entity cl_2--><rect fill="#FEFECE" filter="url(#fxnlpzdbos2q7)" height="46.4883" style="stroke: #000000; stroke-width: 1.5;" width="93" x="182.5" y="75"/><path d="M213.5,76 L213.5,80 L206.5,87 L182.5,87 " fill="none" style="stroke: #000000; stroke-width: 1.5;"/><text fill="#000000" font-family="sans-serif" font-size="14" lengthAdjust="spacingAndGlyphs" textLength="53" x="197.5" y="108.5352">Client 2</text><!--entity cl_n--><rect fill="#FEFECE" filter="url(#fxnlpzdbos2q7)" height="46.4883" style="stroke: #000000; stroke-width: 1.5;" width="94" x="54" y="231"/><path d="M85.3333,232 L85.3333,236 L78.3333,243 L54,243 " fill="none" style="stroke: #000000; stroke-width: 1.5;"/><text fill="#000000" font-family="sans-serif" font-size="14" lengthAdjust="spacingAndGlyphs" textLength="54" x="69" y="264.5352">Client N</text><!--link FrontendServer to VirtualMachine--><path d="M690.0643,276.7441 C690.1414,276.952 690.2189,277.161 690.2968,277.3711 C690.6085,278.2115 690.9269,279.0698 691.2514,279.9448 C696.4441,293.9453 703.2281,312.2369 710.0113,330.5263 C716.7944,348.8156 723.5766,367.1028 728.7655,381.0945 C729.0898,381.969 729.4079,382.8267 729.7193,383.6666 C729.7972,383.8766 729.8747,384.0854 729.9517,384.2931 " fill="none" id="FrontendServer-VirtualMachine" style="stroke: #A80036; stroke-width: 1.0;"/><path d="M714.1822,321.4376 A10,10 0 0 0 700.9226 326.3553" fill="#FFFFFF" style="stroke: #A80036; stroke-width: 1.5;"/><ellipse cx="710.0113" cy="330.5263" fill="#FFFFFF" rx="6" ry="6" style="stroke: #A80036; stroke-width: 1.5;"/><!--link Clients to FrontendServer--><path d="M319.5547,99.1079 C319.7751,99.111 319.9995,99.1142 320.2279,99.1175 C322.0546,99.1439 324.1323,99.1753 326.4425,99.2124 C335.6832,99.3607 348.6442,99.5996 364.1466,99.968 C395.1512,100.7047 436.3212,101.9594 478.225,104.0437 C562.0325,108.2125 648.775,115.7 663,129 C673.0225,138.3725 679.2625,150.6419 682.9748,163.8147 C684.831,170.4011 686.0553,177.2134 686.8045,184.0023 C686.8981,184.8509 686.9843,185.6992 687.0635,186.5466 C687.103,186.9703 687.1408,187.3938 687.1768,187.817 " fill="none" id="Clients-FrontendServer" style="stroke: #A80036; stroke-width: 1.0;"/><path d="M471.514,96.6301 A10,10 0 0 0 470.8114 110.7548" fill="#FFFFFF" style="stroke: #A80036; stroke-width: 1.5;"/><ellipse cx="478.225" cy="104.0437" fill="#FFFFFF" rx="6" ry="6" style="stroke: #A80036; stroke-width: 1.5;"/><!--link LoadBalancer to Autoscaler--><!--link LoadBalancer to Endpoint--><!--link Worker to Service--><!--link Worker to Database--><!--link cl_1 to cl_2--><!--link cl_1 to cl_n--><!--
@startuml
cloud Cloud {
    node FrontendServer {
        component LoadBalancer
        component Autoscaler
        component Endpoint
    }
    node VirtualMachine {
        component Worker
        component Service
        database Database
    }
    FrontendServer -(0- VirtualMachine
}

frame Clients {
    frame cl_1 [
        Client 1
    ]
    frame cl_2 [
        Client 2
    ]
    frame cl_n [
        Client N
    ]
}

Clients -(0- FrontendServer
@enduml

PlantUML version 1.2019.09(Mon Aug 26 18:19:51 CEST 2019)
(GPL source distribution)
Java Runtime: Java(TM) SE Runtime Environment
JVM: Java HotSpot(TM) 64-Bit Server VM
Java Version: 1.8.0_221-b11
Operating System: Mac OS X
OS Version: 10.15
Default Encoding: UTF-8
Language: en
Country: CZ
--></g></svg>